<?xml version="1.0" encoding="UTF-8"?>
<!DOCTYPE svg PUBLIC "-//W3C//DTD SVG 1.1//EN" "http://www.w3.org/Graphics/SVG/1.1/DTD/svg11.dtd">
<!-- Creator: CorelDRAW 2020 (64-Bit) -->
<svg xmlns="http://www.w3.org/2000/svg" xml:space="preserve" width="38.4368in" height="29.8848in" version="1.1" style="shape-rendering:geometricPrecision; text-rendering:geometricPrecision; image-rendering:optimizeQuality; fill-rule:evenodd; clip-rule:evenodd"
viewBox="0 0 14289.81 11110.37"
 xmlns:xlink="http://www.w3.org/1999/xlink"
 xmlns:xodm="http://www.corel.com/coreldraw/odm/2003">
 <defs>
  <style type="text/css">
   <![CDATA[
    .fil1 {fill:#8C5231;fill-rule:nonzero}
    .fil0 {fill:#C78938;fill-rule:nonzero}
   ]]>
  </style>
 </defs>
 <g id="Layer_x0020_1">
  <metadata id="CorelCorpID_0Corel-Layer"/>
  <g id="_2523479931952">
   <polygon class="fil0" points="13280.21,1484.69 9800.17,8314.12 6320.13,1484.69 5559.99,0.03 7222.81,0.03 7982.95,1484.69 9800.17,5047.87 11617.4,1484.69 12377.54,0.03 14040.36,0.03 "/>
   <g>
    <polygon class="fil1" points="7720.22,6829.43 4240.18,0 760.14,6829.43 -0,8314.09 1662.81,8314.09 2422.96,6829.43 4240.18,3266.25 6057.41,6829.43 6817.55,8314.09 8480.37,8314.09 "/>
    <polygon class="fil1" points="5583.08,7295.04 3194.43,2607.44 805.79,7295.04 284.04,8314.09 1425.37,8314.09 1947.12,7295.04 3194.43,4849.33 4441.74,7295.04 4963.49,8314.09 6104.83,8314.09 "/>
   </g>
   <path class="fil0" d="M489.3 9864l0 1016.14c-12.97,-2.11 -24.63,-3.69 -35.2,-4.75 -10.86,-1.06 -22.23,-1.6 -34.66,-1.6 -12.97,0 -25.94,0.8 -39.17,2.37 -13.23,1.6 -23.54,2.91 -30.69,3.97l0 -1016.14c-82.57,0 -141.32,1.06 -175.72,3.17 -34.14,2.11 -92.35,7.14 -173.86,15.37 1.06,-7.17 2.37,-14.57 3.71,-21.97 1.57,-7.4 2.37,-15.88 2.37,-25.14 0,-7.68 -0.8,-15.89 -2.37,-24.6 -1.34,-8.74 -2.66,-16.43 -3.71,-23.03l819.53 0 -3.17 47.63 3.17 47.11c-40.23,-5.03 -89.43,-9.54 -147.66,-12.97 -58.2,-3.71 -119.09,-5.57 -182.58,-5.57zm530.3 1012.97l0 -1089.17c10.32,2.12 20.89,3.71 31.49,4.77 10.57,1.06 23.29,1.57 38.37,1.57 17.98,0 32.8,-1.06 43.92,-3.17 11.12,-2.12 19.86,-3.17 25.94,-3.17l0 1089.17c-12.97,-2.12 -24.63,-3.69 -35.2,-4.75 -10.86,-1.06 -22.23,-1.6 -34.66,-1.6 -12.97,0 -25.94,0.8 -39.17,2.37 -13.23,1.6 -23.54,2.91 -30.69,3.97zm1384.75 -1089.17l0 1089.17 -47.89 0c-18.26,-28.31 -45.52,-61.12 -82.31,-98.43l-685.36 -758.93 -16.4 0 0 857.36c-12.45,-2.12 -21.43,-3.69 -27,-4.75 -5.29,-1.06 -11.12,-1.6 -17.46,-1.6 -7.14,0 -15.09,0.8 -23.83,2.37 -8.46,1.6 -15.34,2.91 -20.63,3.97l0 -1089.17 63.51 0 752.31 819.53 16.14 0 0 -819.53c12.97,2.12 21.97,3.71 27,4.77 5.29,1.06 10.83,1.57 17.2,1.57 7.66,0 15.6,-0.8 23.8,-2.37 8.2,-1.6 15.34,-2.91 20.91,-3.97zm1127.28 457.27l0 -457.27c10.34,2.12 20.91,3.71 31.51,4.77 10.57,1.06 23.29,1.57 38.35,1.57 18,0 32.83,-1.06 43.94,-3.17 11.11,-2.12 19.83,-3.17 25.92,-3.17l0 1089.17c-12.95,-2.12 -24.6,-3.69 -35.18,-4.75 -10.86,-1.06 -22.23,-1.6 -34.68,-1.6 -12.95,0 -25.92,0.8 -39.15,2.37 -13.23,1.6 -23.57,2.91 -30.71,3.97l0 -548.82c-39.15,0 -103.46,-1.32 -192.38,-3.43 -88.92,-2.4 -136,-3.71 -141.03,-3.71 -38.37,0 -101.89,1.32 -190.8,3.71 -88.89,2.11 -137.6,3.43 -145.8,3.43l0 548.82c-12.97,-2.12 -24.6,-3.69 -35.18,-4.75 -10.6,-1.06 -22.23,-1.6 -34.94,-1.6 -11.37,0 -20.91,0.26 -28.31,0.8 -7.4,0.52 -21.17,2.37 -41.29,5.55l0 -1089.17c19.06,2.12 32.03,3.71 38.91,4.77 7.14,1.06 17.2,1.57 30.69,1.57 18,0 32.54,-1.06 43.4,-3.17 11.11,-2.12 20.11,-3.17 26.72,-3.17l0 457.27c38.91,0 103.48,1.06 194.23,3.17 90.77,2.12 138.14,3.17 142.37,3.17 37.57,0 100.83,-1.06 189.2,-3.17 88.38,-2.12 136.55,-3.17 144.21,-3.17zm1711.84 0l0 -457.27c10.34,2.12 20.91,3.71 31.51,4.77 10.57,1.06 23.29,1.57 38.35,1.57 18,0 32.83,-1.06 43.94,-3.17 11.11,-2.12 19.83,-3.17 25.92,-3.17l0 1089.17c-12.95,-2.12 -24.6,-3.69 -35.18,-4.75 -10.85,-1.06 -22.23,-1.6 -34.68,-1.6 -12.95,0 -25.92,0.8 -39.15,2.37 -13.23,1.6 -23.57,2.91 -30.71,3.97l0 -548.82c-39.15,0 -103.46,-1.32 -192.38,-3.43 -88.92,-2.4 -136,-3.71 -141.03,-3.71 -38.37,0 -101.89,1.32 -190.8,3.71 -88.89,2.11 -137.6,3.43 -145.8,3.43l0 548.82c-12.97,-2.12 -24.6,-3.69 -35.18,-4.75 -10.6,-1.06 -22.23,-1.6 -34.94,-1.6 -11.37,0 -20.91,0.26 -28.31,0.8 -7.4,0.52 -21.17,2.37 -41.29,5.55l0 -1089.17c19.06,2.12 32.03,3.71 38.91,4.77 7.14,1.06 17.2,1.57 30.69,1.57 18,0 32.54,-1.06 43.4,-3.17 11.11,-2.12 20.11,-3.17 26.72,-3.17l0 457.27c38.91,0 103.48,1.06 194.23,3.17 90.77,2.12 138.14,3.17 142.37,3.17 37.57,0 100.83,-1.06 189.2,-3.17 88.38,-2.12 136.55,-3.17 144.21,-3.17zm1197.17 75.94c0,-75.94 -5.83,-140.52 -17.46,-193.43 -11.66,-52.94 -34.14,-104.54 -67.49,-154.55 -33.34,-50.29 -74.37,-88.92 -122.78,-115.92 -48.69,-27.23 -100.29,-40.74 -154.55,-40.74 -117.23,0 -209.58,48.43 -276.8,145.29 -67.2,97.12 -100.8,226.24 -100.8,388.18 0,155.34 35.46,277.6 106.37,366.52 66.69,83.86 152.95,125.69 258.81,125.69 121.72,0 217.78,-60.34 288.69,-180.74 57.43,-96.58 86,-201.38 86,-314.64l0 -25.66zm-380.78 575.02c-147.4,0 -266.21,-51.6 -356.72,-155.06 -90.49,-103.46 -135.75,-240.01 -135.75,-410.15 0,-170.69 46.83,-307.49 140.26,-410.44 93.66,-103.2 211.95,-154.8 355.38,-154.8 140.52,0 257.46,42.6 350.35,127.81 107.17,98.97 160.63,237.12 160.63,414.92 0,175.72 -47.63,317.55 -143.17,425.78 -95.26,107.97 -219.09,161.95 -370.98,161.95zm1110.86 -1130.46l476.07 1111.4c-11.4,-1.06 -24.63,-2.37 -39.43,-3.97 -15.08,-1.57 -29.37,-2.37 -42.6,-2.37 -16.14,0 -32.03,0.8 -47.91,2.37 -15.6,1.6 -28.31,2.91 -38.37,3.97 -49.46,-149.49 -104.52,-293.46 -165.12,-431.84l-403.01 0c-44.46,109.01 -78.32,195.55 -101.6,259.84 -23.29,64.05 -42.34,121.46 -57.43,172 -14.29,-3.17 -24.88,-5.03 -31.23,-5.55 -6.63,-0.54 -15.08,-0.8 -25.94,-0.8 -10.32,0 -20.89,0.8 -31.49,2.37 -10.57,1.6 -19.06,2.91 -25.14,3.97l495.38 -1111.4 37.83 0zm117.23 612.87l-174.38 -406.21 -174.66 406.21 349.04 0zm1054.51 -120.68l0 -469.96 422.33 0c78.6,0 139.46,5.03 182.86,14.83 62.97,13.23 118.55,40.21 166.72,80.43 56.89,46.57 99.49,105.06 128.06,175.72 28.85,70.37 43.14,144.21 43.14,221.21 0,105.86 -18.52,199.26 -55.83,279.72 -31.49,69.86 -79.66,133.09 -144.23,189.98 -46.32,40.23 -103.72,70.66 -171.46,90.77 -68,20.11 -170.69,30.17 -308.03,30.17l-263.55 0 0 -543.01 -63.51 0 0 -69.86 63.51 0zm139.72 -406.44l0 406.44 305.38 0 0 69.86 -305.38 0 0 469.98c15.08,0 32.03,1.06 51.08,3.17 58.46,6.35 96.32,9.52 114.03,9.52l31.77 -3.17c84.66,0 158.75,-15.86 222.27,-47.37 80.71,-40.21 140,-102.15 178.37,-186.01 33.6,-73.83 50.26,-163.29 50.26,-268.35 0,-165.38 -35.46,-283.41 -106.12,-354.32 -70.92,-70.66 -184.43,-106.12 -341.09,-106.12 -21.17,0 -58.2,1.06 -111.15,3.2 -52.92,2.12 -82.81,3.17 -89.43,3.17zm1467.06 -85.2l476.06 1110.86c-11.4,-1.06 -24.62,-2.37 -39.43,-3.97 -15.09,-1.57 -29.37,-2.37 -42.6,-2.37 -16.14,0 -32.03,0.8 -47.91,2.37 -15.6,1.6 -28.31,2.91 -38.37,3.97 -49.46,-149.49 -104.52,-293.46 -165.12,-431.84l-403.01 0c-44.46,109.01 -78.32,195.55 -101.61,259.84 -23.29,64.05 -42.34,121.46 -57.43,172 -14.29,-3.17 -24.88,-5.03 -31.23,-5.55 -6.63,-0.54 -15.09,-0.8 -25.94,-0.8 -10.32,0 -20.89,0.8 -31.49,2.37 -10.58,1.6 -19.06,2.91 -25.14,3.97l495.38 -1110.86 37.83 0zm117.23 612.33l-174.38 -406.21 -174.66 406.21 349.04 0zm41.8 -825.9l-250.32 155.86 -54.26 0 199.8 -200.04 38.11 -38.11c16.14,-10.86 32,-21.43 48.15,-31.75l12.43 0c24.08,0 40.23,11.63 47.91,34.92l3.17 25.68c0,8.2 -2.11,14.29 -6.34,18.52 -1.86,6.09 -7.68,12.71 -17.48,19.85 -9.52,6.86 -16.4,11.89 -21.17,15.06zm1463.63 956.36l165.12 -428.95 95.52 -266.49 12.43 -25.66c9.8,2.12 18.8,3.71 27,4.77 8.2,1.06 18.52,1.57 30.17,1.57 9.52,0 19.57,-0.8 30.69,-2.37 11.12,-1.6 20.11,-2.91 26.74,-3.97 -12.97,24.34 -55.86,120.92 -129.14,290.03 -73.03,168.81 -138.12,322.04 -194.75,459.64 -73.57,175.69 -118.03,288.95 -133.37,339.5l-31.77 -6.09c-6.34,0 -12.69,0.54 -19.03,2.12 -6.63,1.6 -11.91,2.91 -15.89,3.97 -46.57,-97.12 -109.55,-236.29 -189.2,-417.04 -59.54,-137.06 -117.49,-271.75 -174.12,-404.61 -56.63,-132.83 -96.6,-222.01 -119.6,-267.52 12.69,2.12 25.12,3.71 36.77,4.77 11.66,1.06 24.6,1.57 39.17,1.57 12.97,0 26.98,-0.8 42.06,-2.37 15.34,-1.6 27.8,-2.91 37.57,-3.97l57.43 155.86 107.71 276.01 193.95 482.93 15.34 0c30.17,-64.57 59.83,-129.14 89.2,-193.69zm561.79 368.07l0 -1089.17c10.31,2.12 20.89,3.71 31.49,4.77 10.57,1.06 23.29,1.57 38.37,1.57 17.98,0 32.8,-1.06 43.92,-3.17 11.11,-2.12 19.86,-3.17 25.94,-3.17l0 1089.17c-12.97,-2.12 -24.63,-3.69 -35.2,-4.75 -10.86,-1.06 -22.23,-1.6 -34.66,-1.6 -12.97,0 -25.94,0.8 -39.17,2.37 -13.23,1.6 -23.54,2.91 -30.69,3.97zm447.99 -1089.17l704.96 0 -3.17 47.89 3.17 46.86c-20.11,-3.97 -43.94,-7.68 -70.92,-10.86 -27.26,-2.91 -51.34,-4.51 -72.51,-4.51l-158.23 -3.17 -263.57 0 0 396.95 386.89 0c16.14,0 39.95,-1.08 71.69,-3.2 31.77,-2.12 55.57,-3.17 71.72,-3.17 -4.75,16.94 -6.86,30.97 -6.86,41.83l6.86 44.18c-16.14,0 -39.95,-1.57 -71.72,-4.75 -31.75,-2.91 -55.55,-4.51 -71.69,-4.51l-386.89 0 0 463.35 66.69 3.17c60.86,0 118.29,-0.8 171.74,-2.37 53.46,-1.6 116.95,-3.97 190.26,-6.89 28.57,0 55.83,-1.86 82.29,-5.03 26.2,-3.43 47.37,-6.09 63.51,-8.2l-3.17 47.89 3.17 47.37 -714.22 0 0 -1082.83zm170.15 -88.92l-54.23 0 196.86 -266.75 86 0 196.89 266.75 -54.26 0 -183.64 -169.09 -187.63 169.09zm187.89 1411.49c-19.31,0 -36.26,-7.4 -50.8,-22.23 -14.83,-14.54 -22.23,-31.75 -22.23,-50.8 0,-19.06 7.4,-36.26 22.23,-50.8 14.55,-14.83 31.49,-22.23 50.8,-22.23 20.11,0 37.31,7.14 51.34,21.43 14.29,14.29 21.43,31.49 21.43,51.6 0,19.06 -7.4,36.26 -22.23,50.8 -14.54,14.83 -31.49,22.23 -50.54,22.23zm1019.85 -1246.37l0 1016.14c-12.97,-2.11 -24.63,-3.69 -35.2,-4.75 -10.86,-1.06 -22.23,-1.6 -34.66,-1.6 -12.97,0 -25.94,0.8 -39.17,2.37 -13.23,1.6 -23.54,2.91 -30.69,3.97l0 -1016.14c-82.57,0 -141.32,1.06 -175.72,3.17 -34.14,2.11 -92.35,7.14 -173.86,15.37 1.06,-7.17 2.37,-14.57 3.71,-21.97 1.57,-7.4 2.37,-15.88 2.37,-25.14 0,-7.68 -0.8,-15.89 -2.37,-24.6 -1.34,-8.74 -2.66,-16.43 -3.71,-23.03l819.53 0 -3.17 47.63 3.17 47.11c-40.23,-5.03 -89.43,-9.54 -147.66,-12.97 -58.2,-3.71 -119.09,-5.57 -182.58,-5.57z"/>
  </g>
 </g>
</svg>
