<svg width="370" height="69" viewBox="0 0 370 69" fill="none" xmlns="http://www.w3.org/2000/svg">
<path d="M43.2796 9.06782V26.9866H42.4727C42.1691 26.519 41.7093 25.9791 41.0933 25.3669L29.5765 12.8812H29.3032V26.9866C29.095 26.9526 28.9431 26.9271 28.8477 26.9101C28.7609 26.8931 28.6655 26.8846 28.5614 26.8846C28.44 26.8846 28.3055 26.8974 28.158 26.9229C28.0192 26.9484 27.9064 26.9696 27.8196 26.9866V9.06782H28.8867L41.5097 22.5484H41.783V9.06782C41.9999 9.10183 42.1517 9.12734 42.2385 9.14434C42.3253 9.16135 42.4207 9.16985 42.5248 9.16985C42.6549 9.16985 42.7894 9.1571 42.9282 9.13159C43.067 9.10608 43.1841 9.08482 43.2796 9.06782Z" fill="#490912"/>
<path d="M63.098 16.5925V9.06782C63.2715 9.10183 63.445 9.12734 63.6185 9.14434C63.8007 9.16135 64.0176 9.16985 64.2692 9.16985C64.5728 9.16985 64.8157 9.15284 64.9979 9.11883C65.1888 9.08482 65.3363 9.06782 65.4404 9.06782V26.9866C65.2235 26.9526 65.024 26.9271 64.8418 26.9101C64.6683 26.8931 64.4774 26.8846 64.2692 26.8846C64.0523 26.8846 63.8311 26.8974 63.6055 26.9229C63.3886 26.9484 63.2194 26.9696 63.098 26.9866V17.9571C62.4386 17.9571 61.3629 17.9401 59.8707 17.9061C58.3784 17.8636 57.589 17.8423 57.5022 17.8423C56.8602 17.8423 55.7931 17.8636 54.3009 17.9061C52.8087 17.9401 51.9932 17.9571 51.8544 17.9571V26.9866C51.6375 26.9526 51.438 26.9271 51.2558 26.9101C51.0823 26.8931 50.8871 26.8846 50.6702 26.8846C50.4793 26.8846 50.3188 26.8889 50.1887 26.8974C50.0672 26.9059 49.8373 26.9356 49.499 26.9866V9.06782C49.82 9.10183 50.0369 9.12734 50.1496 9.14434C50.2711 9.16135 50.4446 9.16985 50.6702 9.16985C50.9738 9.16985 51.2167 9.15284 51.3989 9.11883C51.5898 9.08482 51.7416 9.06782 51.8544 9.06782V16.5925C52.5051 16.5925 53.5895 16.6095 55.1077 16.6435C56.6347 16.6775 57.4328 16.6945 57.5022 16.6945C58.1355 16.6945 59.194 16.6775 60.6775 16.6435C62.161 16.6095 62.9678 16.5925 63.098 16.5925Z" fill="#490912"/>
<path d="M78.4398 8.71072L86.43 26.9866C86.2391 26.9696 86.0179 26.9484 85.7663 26.9229C85.5147 26.8974 85.2761 26.8846 85.0506 26.8846C84.7816 26.8846 84.5127 26.8974 84.2438 26.9229C83.9835 26.9484 83.7709 26.9696 83.6061 26.9866C82.7732 24.5295 81.8493 22.1615 80.8342 19.8829H74.0673C73.3212 21.6769 72.7529 23.101 72.3625 24.1553C71.9721 25.2096 71.6511 26.1534 71.3995 26.9866C71.1566 26.9356 70.9788 26.9059 70.866 26.8974C70.7619 26.8889 70.6187 26.8846 70.4365 26.8846C70.263 26.8846 70.0852 26.8974 69.903 26.9229C69.7295 26.9484 69.5907 26.9696 69.4865 26.9866L77.8021 8.71072H78.4398ZM80.4048 18.7861L77.4768 12.1032L74.5488 18.7861H80.4048ZM80.2486 7.76695H79.3507L75.1344 5.20347C74.9175 5.01642 74.7049 4.82512 74.4967 4.62956C74.462 4.56154 74.4447 4.42125 74.4447 4.20869V3.90261C74.5661 3.55401 74.8654 3.37971 75.3426 3.37971H75.5638C75.6679 3.43072 75.772 3.48174 75.8761 3.53275C76.0583 3.65179 76.2448 3.81333 76.4357 4.01739C76.6352 4.22145 76.7871 4.37449 76.8912 4.47652L80.2486 7.76695Z" fill="#490912"/>
<path d="M105.18 10.3304V27.0377C104.963 27.0037 104.764 26.9781 104.582 26.9611C104.408 26.9441 104.217 26.9356 104.009 26.9356C103.792 26.9356 103.571 26.9484 103.345 26.9739C103.129 26.9994 102.959 27.0207 102.838 27.0377V10.3304C101.45 10.3304 100.465 10.3474 99.8839 10.3814C99.3113 10.4155 98.3396 10.5005 96.9688 10.6365C96.9862 10.5175 97.0079 10.3984 97.0339 10.2794C97.0599 10.1519 97.073 10.0116 97.073 9.85854C97.073 9.73101 97.0599 9.59497 97.0339 9.45043C97.0079 9.30589 96.9862 9.17835 96.9688 9.06782H110.724L110.672 9.85854L110.724 10.6365C110.047 10.5515 109.219 10.4792 108.238 10.4197C107.267 10.3602 106.247 10.3304 105.18 10.3304Z" fill="#490912"/>
<path d="M121.81 8.71072L129.801 26.9866C129.61 26.9696 129.389 26.9484 129.137 26.9229C128.885 26.8974 128.647 26.8846 128.421 26.8846C128.152 26.8846 127.883 26.8974 127.614 26.9229C127.354 26.9484 127.142 26.9696 126.977 26.9866C126.144 24.5295 125.22 22.1615 124.205 19.8829H117.438C116.692 21.6769 116.124 23.101 115.733 24.1553C115.343 25.2096 115.022 26.1534 114.77 26.9866C114.527 26.9356 114.349 26.9059 114.237 26.8974C114.133 26.8889 113.989 26.8846 113.807 26.8846C113.634 26.8846 113.456 26.8974 113.274 26.9229C113.1 26.9484 112.961 26.9696 112.857 26.9866L121.173 8.71072H121.81ZM123.775 18.7861L120.847 12.1032L117.919 18.7861H123.775ZM125.207 4.74434C125.007 5.70512 124.6 6.46183 123.984 7.01449C123.376 7.55864 122.539 7.83072 121.472 7.83072C120.535 7.83072 119.75 7.53739 119.117 6.95072C118.483 6.35555 118.097 5.62009 117.958 4.74434H118.974C119.216 5.25449 119.568 5.6541 120.028 5.94318C120.496 6.22376 121.03 6.36405 121.628 6.36405C122.912 6.36405 123.801 5.82415 124.296 4.74434H125.207ZM124.764 1.87478L120.561 4.43826H119.65L123.645 0.522898C123.914 0.344348 124.183 0.170048 124.452 0H124.66C125.068 0 125.337 0.191304 125.467 0.573913L125.519 0.994782C125.519 1.13082 125.485 1.23285 125.415 1.30087C125.38 1.4029 125.281 1.51343 125.116 1.63246C124.96 1.74299 124.843 1.82377 124.764 1.87478Z" fill="#490912"/>
<path d="M150.894 9.06782H151.428C151.801 12.5708 152.035 14.7049 152.131 15.4701C152.287 16.8645 152.534 18.8924 152.872 21.5536C153.124 23.4496 153.371 25.2607 153.614 26.9866C153.241 26.9526 152.972 26.9271 152.807 26.9101C152.651 26.8931 152.495 26.8846 152.339 26.8846C151.966 26.8846 151.701 26.8931 151.545 26.9101C151.346 26.9611 151.202 26.9866 151.116 26.9866C150.951 25.2266 150.79 23.4667 150.634 21.7067C150.478 19.9382 150.317 18.3482 150.153 16.9368C149.996 15.5254 149.853 14.3648 149.723 13.4551C148.734 15.1981 147.793 16.8815 146.899 18.5055C146.084 19.9849 145.307 21.4431 144.57 22.88C143.832 24.3169 143.225 25.5838 142.748 26.6806H142.475L140.991 23.6962C140.349 22.3953 139.777 21.2688 139.273 20.3165C138.779 19.3642 138.167 18.2122 137.439 16.8603C136.823 15.721 136.211 14.5859 135.604 13.4551C134.944 19.2537 134.597 22.3103 134.563 22.6249C134.406 24.3509 134.328 25.8048 134.328 26.9866C134.077 26.9356 133.895 26.9059 133.782 26.8974C133.678 26.8889 133.539 26.8846 133.365 26.8846C133.2 26.8846 133.023 26.8974 132.832 26.9229C132.65 26.9484 132.506 26.9696 132.402 26.9866C132.775 24.657 133.261 21.4176 133.86 17.2684C134.467 13.1107 134.836 10.3772 134.966 9.06782H135.656C136.367 10.4622 137.122 11.9161 137.92 13.4296C138.822 15.1385 139.668 16.6902 140.458 18.0846C141.412 19.7936 142.336 21.3496 143.229 22.7524C144.271 20.9074 145.103 19.4195 145.728 18.2887C146.561 16.7753 147.385 15.2831 148.201 13.8122C149.025 12.3412 149.923 10.7598 150.894 9.06782Z" fill="#490912"/>
<path d="M166.3 23.4411H166.574C167.155 24.3594 167.74 25.0183 168.33 25.418C169.042 25.9111 169.892 26.1577 170.881 26.1577C171.965 26.1577 172.859 25.7878 173.562 25.0481C174.264 24.3084 174.616 23.4071 174.616 22.3443C174.616 21.001 173.896 19.9722 172.456 19.258C171.111 18.6798 169.77 18.0974 168.434 17.5107C166.977 16.635 166.248 15.3724 166.248 13.7229C166.248 12.0989 166.834 10.8363 168.005 9.93507C169.072 9.11883 170.46 8.71072 172.169 8.71072C172.863 8.71072 173.553 8.817 174.238 9.02956C174.932 9.23362 175.522 9.54396 176.008 9.96057C175.895 10.2071 175.761 10.543 175.605 10.9681C175.457 11.3932 175.34 11.7716 175.253 12.1032H174.993C174.724 11.389 174.299 10.8278 173.718 10.4197C173.145 10.0116 172.469 9.80753 171.688 9.80753C170.76 9.80753 169.966 10.0966 169.306 10.6748C168.656 11.2444 168.33 11.9799 168.33 12.8812C168.33 14.2075 169.059 15.2363 170.517 15.9675C171.861 16.5627 173.21 17.1451 174.564 17.7148C176.021 18.548 176.75 19.7426 176.75 21.2985C176.75 23.1266 176.099 24.5975 174.798 25.7113C173.575 26.7741 172.022 27.3055 170.139 27.3055C169.41 27.3055 168.617 27.1652 167.758 26.8846C166.908 26.604 166.261 26.2214 165.819 25.7368C165.923 25.4562 166.01 25.1246 166.079 24.742C166.157 24.3594 166.231 23.9258 166.3 23.4411Z" fill="#490912"/>
<path d="M188.253 8.71072L196.243 26.9866C196.052 26.9696 195.831 26.9484 195.579 26.9229C195.328 26.8974 195.089 26.8846 194.864 26.8846C194.595 26.8846 194.326 26.8974 194.057 26.9229C193.797 26.9484 193.584 26.9696 193.419 26.9866C192.586 24.5295 191.662 22.1615 190.647 19.8829H183.88C183.134 21.6769 182.566 23.101 182.176 24.1553C181.785 25.2096 181.464 26.1534 181.213 26.9866C180.97 26.9356 180.792 26.9059 180.679 26.8974C180.575 26.8889 180.432 26.8846 180.25 26.8846C180.076 26.8846 179.898 26.8974 179.716 26.9229C179.543 26.9484 179.404 26.9696 179.3 26.9866L187.615 8.71072H188.253ZM190.218 18.7861L187.29 12.1032L184.362 18.7861H190.218Z" fill="#490912"/>
<path d="M215.801 9.06782V26.9866H214.994C214.691 26.519 214.231 25.9791 213.615 25.3669L202.098 12.8812H201.825V26.9866C201.617 26.9526 201.465 26.9271 201.369 26.9101C201.283 26.8931 201.187 26.8846 201.083 26.8846C200.962 26.8846 200.827 26.8974 200.68 26.9229C200.541 26.9484 200.428 26.9696 200.341 26.9866V9.06782H201.408L214.031 22.5484H214.305V9.06782C214.522 9.10183 214.673 9.12734 214.76 9.14434C214.847 9.16135 214.942 9.16985 215.046 9.16985C215.177 9.16985 215.311 9.1571 215.45 9.13159C215.589 9.10608 215.706 9.08482 215.801 9.06782Z" fill="#490912"/>
<path d="M237.91 12.2052H237.637C236.908 11.389 236.019 10.7683 234.969 10.3432C233.928 9.90956 232.813 9.69275 231.625 9.69275C229.291 9.69275 227.426 10.4112 226.029 11.8481C224.641 13.285 223.947 15.3001 223.947 17.8933C223.947 20.5291 224.623 22.5824 225.977 24.0533C227.339 25.5242 229.325 26.2597 231.937 26.2597C232.683 26.2597 233.416 26.1874 234.136 26.0429C234.856 25.8898 235.511 25.6645 236.101 25.3669V18.684L237.272 18.7351L238.444 18.684V26.0429C237.272 26.451 236.066 26.7613 234.826 26.9739C233.594 27.195 232.384 27.3055 231.195 27.3055C227.942 27.3055 225.452 26.4255 223.725 24.6655C222.129 23.0245 221.331 20.8054 221.331 18.0081C221.331 15.0238 222.316 12.7069 224.285 11.0574C226.15 9.49294 228.631 8.71072 231.729 8.71072C233.117 8.71072 234.401 8.84251 235.581 9.10608C236.76 9.36115 237.749 9.73101 238.548 10.2156C238.426 10.4962 238.309 10.8151 238.196 11.1722C238.092 11.5293 237.997 11.8736 237.91 12.2052Z" fill="#490912"/>
<path d="M258.899 10.3304V27.0377C258.682 27.0037 258.482 26.9781 258.3 26.9611C258.126 26.9441 257.936 26.9356 257.727 26.9356C257.51 26.9356 257.289 26.9484 257.064 26.9739C256.847 26.9994 256.678 27.0207 256.556 27.0377V10.3304C255.168 10.3304 254.183 10.3474 253.602 10.3814C253.03 10.4155 252.058 10.5005 250.687 10.6365C250.704 10.5175 250.726 10.3984 250.752 10.2794C250.778 10.1519 250.791 10.0116 250.791 9.85854C250.791 9.73101 250.778 9.59497 250.752 9.45043C250.726 9.30589 250.704 9.17835 250.687 9.06782H264.442L264.39 9.85854L264.442 10.6365C263.766 10.5515 262.937 10.4792 261.957 10.4197C260.985 10.3602 259.966 10.3304 258.899 10.3304Z" fill="#490912"/>
<path d="M270.896 10.0626V17.2174C270.913 17.2174 271.069 17.2344 271.364 17.2684C271.668 17.3024 271.954 17.3194 272.223 17.3194C272.596 17.3194 272.891 17.3067 273.108 17.2811C273.334 17.2556 273.75 17.2004 274.358 17.1154C275.373 16.8858 276.192 16.4522 276.817 15.8145C277.45 15.1683 277.767 14.3478 277.767 13.353C277.767 11.474 276.791 10.3772 274.839 10.0626C274.674 10.0456 274.514 10.0328 274.358 10.0243C274.21 10.0158 274.006 10.0116 273.746 10.0116H273.342L270.896 10.0626ZM268.541 26.9866V9.06782H274.188C276.236 9.06782 277.732 9.39516 278.678 10.0498C279.632 10.7045 280.109 11.7036 280.109 13.0469C280.109 14.4498 279.541 15.5977 278.405 16.4904C277.468 17.2216 276.223 17.7275 274.67 18.0081L280.161 24.844L281.45 26.3107L281.918 26.9866C281.658 26.9526 281.415 26.9271 281.19 26.9101C280.964 26.8931 280.695 26.8846 280.383 26.8846C280.131 26.8846 279.927 26.8889 279.771 26.8974C279.624 26.9059 279.329 26.9356 278.886 26.9866C278.6 26.587 278.244 26.1024 277.819 25.5327C277.533 25.1416 277.32 24.861 277.181 24.691L274.032 20.6736L271.898 18.2122H270.896V26.9866C270.679 26.9526 270.48 26.9271 270.297 26.9101C270.124 26.8931 269.929 26.8846 269.712 26.8846C269.521 26.8846 269.36 26.8889 269.23 26.8974C269.109 26.9059 268.879 26.9356 268.541 26.9866Z" fill="#490912"/>
<path d="M298.6 17.8423C298.6 16.5925 298.501 15.5339 298.301 14.6667C298.11 13.7909 297.733 12.9407 297.169 12.1159C296.614 11.2912 295.928 10.6578 295.113 10.2156C294.297 9.76502 293.434 9.5397 292.523 9.5397C290.554 9.5397 289.005 10.3389 287.877 11.9374C286.75 13.5273 286.186 15.6529 286.186 18.3142C286.186 20.8734 286.78 22.8842 287.969 24.3467C289.088 25.724 290.537 26.4127 292.315 26.4127C294.354 26.4127 295.967 25.4222 297.156 23.4411C298.119 21.8512 298.6 20.1252 298.6 18.2632V17.8423ZM292.211 27.3055C289.738 27.3055 287.743 26.4552 286.225 24.7548C284.707 23.0543 283.947 20.8054 283.947 18.0081C283.947 15.2023 284.733 12.9534 286.303 11.2614C287.873 9.56096 289.86 8.71072 292.263 8.71072C294.623 8.71072 296.583 9.41217 298.145 10.8151C299.941 12.439 300.839 14.7134 300.839 17.6382C300.839 20.5291 300.036 22.863 298.431 24.64C296.835 26.417 294.762 27.3055 292.211 27.3055ZM292.172 30.8255C291.851 30.8255 291.565 30.7022 291.313 30.4556C291.07 30.2176 290.949 29.9412 290.949 29.6266C290.949 29.3121 291.07 29.0315 291.313 28.7849C291.565 28.5468 291.851 28.4278 292.172 28.4278C292.51 28.4278 292.796 28.5426 293.031 28.7722C293.274 29.0102 293.395 29.2951 293.395 29.6266C293.395 29.9412 293.269 30.2176 293.018 30.4556C292.775 30.7022 292.493 30.8255 292.172 30.8255Z" fill="#490912"/>
<path d="M320.501 9.06782V26.9866H319.694C319.391 26.519 318.931 25.9791 318.315 25.3669L306.798 12.8812H306.525V26.9866C306.316 26.9526 306.165 26.9271 306.069 26.9101C305.982 26.8931 305.887 26.8846 305.783 26.8846C305.661 26.8846 305.527 26.8974 305.379 26.9229C305.241 26.9484 305.128 26.9696 305.041 26.9866V9.06782H306.108L318.731 22.5484H319.004V9.06782C319.221 9.10183 319.373 9.12734 319.46 9.14434C319.547 9.16135 319.642 9.16985 319.746 9.16985C319.876 9.16985 320.011 9.1571 320.15 9.13159C320.288 9.10608 320.406 9.08482 320.501 9.06782Z" fill="#490912"/>
<path d="M342.61 12.2052H342.337C341.608 11.389 340.719 10.7683 339.669 10.3432C338.628 9.90956 337.513 9.69275 336.324 9.69275C333.991 9.69275 332.125 10.4112 330.729 11.8481C329.34 13.285 328.646 15.3001 328.646 17.8933C328.646 20.5291 329.323 22.5824 330.677 24.0533C332.039 25.5242 334.025 26.2597 336.637 26.2597C337.383 26.2597 338.116 26.1874 338.836 26.0429C339.556 25.8898 340.211 25.6645 340.801 25.3669V18.684L341.972 18.7351L343.143 18.684V26.0429C341.972 26.451 340.766 26.7613 339.526 26.9739C338.294 27.195 337.083 27.3055 335.895 27.3055C332.642 27.3055 330.152 26.4255 328.425 24.6655C326.829 23.0245 326.031 20.8054 326.031 18.0081C326.031 15.0238 327.015 12.7069 328.985 11.0574C330.85 9.49294 333.331 8.71072 336.428 8.71072C337.817 8.71072 339.101 8.84251 340.28 9.10608C341.46 9.36115 342.449 9.73101 343.247 10.2156C343.126 10.4962 343.009 10.8151 342.896 11.1722C342.792 11.5293 342.697 11.8736 342.61 12.2052Z" fill="#490912"/>
<path d="M13.599 54.767V47.2423C13.7725 47.2763 13.946 47.3019 14.1195 47.3189C14.3017 47.3359 14.5186 47.3444 14.7702 47.3444C15.0739 47.3444 15.3168 47.3274 15.499 47.2933C15.6898 47.2593 15.8373 47.2423 15.9414 47.2423V65.1612C15.7245 65.1272 15.525 65.1016 15.3428 65.0846C15.1693 65.0676 14.9784 65.0591 14.7702 65.0591C14.5533 65.0591 14.3321 65.0719 14.1065 65.0974C13.8896 65.1229 13.7205 65.1442 13.599 65.1612V56.1316C12.9397 56.1316 11.8639 56.1146 10.3717 56.0806C8.87948 56.0381 8.09 56.0168 8.00324 56.0168C7.36125 56.0168 6.29415 56.0381 4.80194 56.0806C3.30974 56.1146 2.49423 56.1316 2.35543 56.1316V65.1612C2.13854 65.1272 1.939 65.1016 1.75681 65.0846C1.5833 65.0676 1.3881 65.0591 1.17121 65.0591C0.980343 65.0591 0.819844 65.0634 0.68971 65.0719C0.568252 65.0804 0.338348 65.1101 0 65.1612V47.2423C0.320997 47.2763 0.537887 47.3019 0.65067 47.3189C0.772128 47.3359 0.94564 47.3444 1.17121 47.3444C1.47485 47.3444 1.71777 47.3274 1.89996 47.2933C2.09082 47.2593 2.24264 47.2423 2.35543 47.2423V54.767C3.0061 54.767 4.09055 54.784 5.60878 54.818C7.13568 54.852 7.93384 54.869 8.00324 54.869C8.63656 54.869 9.69498 54.852 11.1785 54.818C12.662 54.784 13.4689 54.767 13.599 54.767Z" fill="#490912"/>
<path d="M22.1218 65.1612V47.2423C22.2953 47.2763 22.4688 47.3019 22.6423 47.3189C22.8245 47.3359 23.0414 47.3444 23.293 47.3444C23.5966 47.3444 23.8395 47.3274 24.0217 47.2933C24.2126 47.2593 24.3601 47.2423 24.4642 47.2423V65.1612C24.2473 65.1272 24.0478 65.1016 23.8656 65.0846C23.6921 65.0676 23.5012 65.0591 23.293 65.0591C23.0761 65.0591 22.8549 65.0719 22.6293 65.0974C22.4124 65.1229 22.2432 65.1442 22.1218 65.1612Z" fill="#490912"/>
<path d="M30.5274 47.2423H42.3696L42.3176 48.0331L42.3696 48.811C42.0313 48.743 41.6322 48.6835 41.1724 48.6325C40.7213 48.5815 40.3179 48.556 39.9622 48.556L37.3074 48.5049H32.8829V55.0348H39.3765C39.6455 55.0348 40.0446 55.0178 40.5738 54.9838C41.1117 54.9413 41.5151 54.92 41.784 54.92C41.7059 55.2006 41.6669 55.4302 41.6669 55.6087L41.784 56.3357C41.5151 56.3357 41.1117 56.3102 40.5738 56.2591C40.0446 56.2081 39.6455 56.1826 39.3765 56.1826H32.8829V63.8093L34.002 63.8603C35.0257 63.8603 35.9844 63.8475 36.878 63.822C37.7802 63.7965 38.8473 63.7583 40.0793 63.7072C40.5564 63.7072 41.0162 63.6817 41.4587 63.6307C41.9011 63.5712 42.2568 63.5244 42.5258 63.4904L42.4737 64.2812L42.5258 65.0591H30.5274V47.2423ZM33.3904 45.7884H32.4794L35.7848 41.4012H37.2293L40.5347 45.7884H39.6238L36.5396 43.0081L33.3904 45.7884ZM36.5396 69C36.2186 69 35.9323 68.8767 35.6807 68.6301C35.4378 68.3921 35.3164 68.1157 35.3164 67.8012C35.3164 67.4866 35.4378 67.206 35.6807 66.9594C35.9323 66.7214 36.2186 66.6023 36.5396 66.6023C36.878 66.6023 37.1643 66.7171 37.3985 66.9467C37.6414 67.1847 37.7629 67.4696 37.7629 67.8012C37.7629 68.1157 37.6371 68.3921 37.3855 68.6301C37.1426 68.8767 36.8606 69 36.5396 69Z" fill="#490912"/>
<path d="M63.9448 47.2423V65.1612H63.138C62.8344 64.6935 62.3746 64.1536 61.7586 63.5415L50.2417 51.0557H49.9685V65.1612C49.7602 65.1272 49.6084 65.1016 49.513 65.0846C49.4262 65.0676 49.3308 65.0591 49.2267 65.0591C49.1052 65.0591 48.9708 65.0719 48.8233 65.0974C48.6845 65.1229 48.5717 65.1442 48.4849 65.1612V47.2423H49.552L62.175 60.7229H62.4483V47.2423C62.6652 47.2763 62.817 47.3019 62.9038 47.3189C62.9905 47.3359 63.086 47.3444 63.1901 47.3444C63.3202 47.3444 63.4547 47.3316 63.5935 47.3061C63.7323 47.2806 63.8494 47.2593 63.9448 47.2423Z" fill="#490912"/>
<path d="M79.8062 54.971V47.2423H86.8985C88.2172 47.2423 89.2409 47.3231 89.9696 47.4846C91.0281 47.7057 91.9607 48.1478 92.7675 48.811C93.7218 49.5762 94.4376 50.5413 94.9147 51.7061C95.4006 52.8624 95.6435 54.074 95.6435 55.3409C95.6435 57.0839 95.3312 58.6186 94.7065 59.9449C94.1773 61.0928 93.3705 62.1343 92.286 63.0696C91.5052 63.7328 90.5422 64.2301 89.3971 64.5617C88.2606 64.8933 86.5384 65.0591 84.2307 65.0591H79.8062V56.1316H78.7391V54.971H79.8062ZM82.1486 48.2881V54.971H87.2759V56.1316H82.1486V63.8603C82.4002 63.8603 82.6865 63.8773 83.0075 63.9113C83.9878 64.0133 84.6255 64.0643 84.9204 64.0643L85.454 64.0133C86.8768 64.0133 88.1217 63.754 89.1888 63.2354C90.5422 62.5722 91.5399 61.5519 92.1819 60.1745C92.7458 58.9587 93.0278 57.4877 93.0278 55.7617C93.0278 53.041 92.4335 51.0982 91.245 49.9333C90.0564 48.7685 88.1478 48.1861 85.5191 48.1861C85.1634 48.1861 84.5387 48.2031 83.6451 48.2371C82.7602 48.2711 82.2614 48.2881 82.1486 48.2881Z" fill="#490912"/>
<path d="M107.68 46.8852L115.67 65.1612C115.479 65.1442 115.258 65.1229 115.006 65.0974C114.755 65.0719 114.516 65.0591 114.291 65.0591C114.022 65.0591 113.753 65.0719 113.484 65.0974C113.224 65.1229 113.011 65.1442 112.846 65.1612C112.013 62.704 111.089 60.336 110.074 58.0574H103.307C102.561 59.8514 101.993 61.2756 101.603 62.3299C101.212 63.3842 100.891 64.3279 100.64 65.1612C100.397 65.1101 100.219 65.0804 100.106 65.0719C100.002 65.0634 99.8588 65.0591 99.6766 65.0591C99.5031 65.0591 99.3253 65.0719 99.1431 65.0974C98.9696 65.1229 98.8308 65.1442 98.7267 65.1612L107.042 46.8852H107.68ZM109.645 56.9606L106.717 50.2777L103.789 56.9606H109.645ZM106.704 69C106.383 69 106.097 68.8767 105.845 68.6301C105.602 68.3921 105.481 68.1157 105.481 67.8012C105.481 67.4866 105.602 67.206 105.845 66.9594C106.097 66.7214 106.383 66.6023 106.704 66.6023C107.042 66.6023 107.329 66.7171 107.563 66.9467C107.806 67.1847 107.927 67.4696 107.927 67.8012C107.927 68.1157 107.801 68.3921 107.55 68.6301C107.307 68.8767 107.025 69 106.704 69Z" fill="#490912"/>
<path d="M119.664 65.1612V47.2423C119.838 47.2763 120.011 47.3019 120.185 47.3189C120.367 47.3359 120.584 47.3444 120.835 47.3444C121.139 47.3444 121.382 47.3274 121.564 47.2933C121.755 47.2593 121.903 47.2423 122.007 47.2423V65.1612C121.79 65.1272 121.59 65.1016 121.408 65.0846C121.235 65.0676 121.044 65.0591 120.835 65.0591C120.619 65.0591 120.397 65.0719 120.172 65.0974C119.955 65.1229 119.786 65.1442 119.664 65.1612Z" fill="#490912"/>
<path d="M145.286 59.1032L148.057 52.0504L149.658 47.6632L149.866 47.2423C150.031 47.2763 150.183 47.3019 150.322 47.3189C150.461 47.3359 150.63 47.3444 150.829 47.3444C150.985 47.3444 151.155 47.3316 151.337 47.3061C151.528 47.2806 151.68 47.2593 151.792 47.2423C151.575 47.6419 150.851 49.2319 149.619 52.0122C148.396 54.7925 147.307 57.3134 146.353 59.5751C145.121 62.4659 144.375 64.3279 144.114 65.1612L143.581 65.0591C143.477 65.0591 143.368 65.0719 143.256 65.0974C143.151 65.1229 143.065 65.1442 142.995 65.1612C142.214 63.5627 141.156 61.2756 139.82 58.2997C138.822 56.0466 137.846 53.8274 136.892 51.6423C135.946 49.4572 135.278 47.9905 134.888 47.2423C135.105 47.2763 135.309 47.3019 135.5 47.3189C135.699 47.3359 135.92 47.3444 136.163 47.3444C136.38 47.3444 136.614 47.3316 136.866 47.3061C137.126 47.2806 137.339 47.2593 137.504 47.2423L138.467 49.8058L140.275 54.3461L143.529 62.2916H143.789C144.292 61.2288 144.791 60.166 145.286 59.1032Z" fill="#490912"/>
<path d="M167.29 48.76C167.498 48.76 167.733 48.7132 167.993 48.6197C168.253 48.5262 168.444 48.3944 168.566 48.2244C168.687 48.0458 168.748 47.8077 168.748 47.5102C168.748 47.1786 168.644 46.8725 168.435 46.5919C168.383 46.5069 168.223 46.4559 167.954 46.4389C167.685 46.4218 167.542 46.3878 167.525 46.3368V44.7681L168.266 44.8702L169.607 44.8191H170.244L170.192 45.1762V46.5409C170.192 46.9235 170.127 47.3359 169.997 47.778C169.876 48.2201 169.745 48.5219 169.607 48.6835C169.251 49.0831 168.726 49.3339 168.032 49.436C168.743 50.1842 169.303 51.0982 169.711 52.178C170.119 53.2578 170.322 54.4694 170.322 55.8128C170.322 58.7036 169.52 61.0375 167.915 62.8145C166.319 64.5915 164.245 65.48 161.695 65.48C159.222 65.48 157.227 64.6298 155.708 62.9293C154.19 61.2288 153.431 58.9799 153.431 56.1826C153.431 53.3768 154.216 51.1279 155.786 49.436C157.357 47.7355 159.343 46.8852 161.747 46.8852C162.718 46.8852 163.69 47.0468 164.662 47.3699C165.633 47.6845 166.509 48.1478 167.29 48.76ZM168.084 56.0168C168.084 54.767 167.984 53.7084 167.785 52.8412C167.594 51.9654 167.217 51.1152 166.653 50.2904C166.097 49.4657 165.412 48.8323 164.596 48.3902C163.781 47.9395 162.918 47.7142 162.007 47.7142C160.037 47.7142 158.489 48.5134 157.361 50.1119C156.233 51.7018 155.669 53.8274 155.669 56.4887C155.669 59.0479 156.264 61.0587 157.452 62.5212C158.571 63.8986 160.02 64.5872 161.799 64.5872C163.837 64.5872 165.451 63.5967 166.64 61.6157C167.603 60.0257 168.084 58.2997 168.084 56.4377V56.0168ZM164.323 43.378L160.12 45.9415H159.209L163.204 42.0261C163.473 41.8476 163.742 41.6733 164.011 41.5032H164.219C164.627 41.5032 164.896 41.6945 165.026 42.0771L165.078 42.498C165.078 42.634 165.043 42.7361 164.974 42.8041C164.939 42.9061 164.839 43.0166 164.675 43.1357C164.518 43.2462 164.401 43.327 164.323 43.378Z" fill="#490912"/>
<path d="M174.421 65.1612V47.2423C174.594 47.2763 174.768 47.3019 174.941 47.3189C175.123 47.3359 175.34 47.3444 175.592 47.3444C175.895 47.3444 176.138 47.3274 176.321 47.2933C176.511 47.2593 176.659 47.2423 176.763 47.2423V65.1612C176.546 65.1272 176.347 65.1016 176.164 65.0846C175.991 65.0676 175.8 65.0591 175.592 65.0591C175.375 65.0591 175.154 65.0719 174.928 65.0974C174.711 65.1229 174.542 65.1442 174.421 65.1612Z" fill="#490912"/>
<path d="M192.468 54.971V47.2423H199.56C200.879 47.2423 201.903 47.3231 202.632 47.4846C203.69 47.7057 204.623 48.1478 205.43 48.811C206.384 49.5762 207.1 50.5413 207.577 51.7061C208.063 52.8624 208.305 54.074 208.305 55.3409C208.305 57.0839 207.993 58.6186 207.369 59.9449C206.839 61.0928 206.032 62.1343 204.948 63.0696C204.167 63.7328 203.204 64.2301 202.059 64.5617C200.923 64.8933 199.2 65.0591 196.893 65.0591H192.468V56.1316H191.401V54.971H192.468ZM194.811 48.2881V54.971H199.938V56.1316H194.811V63.8603C195.062 63.8603 195.348 63.8773 195.669 63.9113C196.65 64.0133 197.287 64.0643 197.582 64.0643L198.116 64.0133C199.539 64.0133 200.784 63.754 201.851 63.2354C203.204 62.5722 204.202 61.5519 204.844 60.1745C205.408 58.9587 205.69 57.4877 205.69 55.7617C205.69 53.041 205.096 51.0982 203.907 49.9333C202.718 48.7685 200.81 48.1861 198.181 48.1861C197.825 48.1861 197.201 48.2031 196.307 48.2371C195.422 48.2711 194.923 48.2881 194.811 48.2881Z" fill="#490912"/>
<path d="M220.342 46.8852L228.332 65.1612C228.141 65.1442 227.92 65.1229 227.668 65.0974C227.417 65.0719 227.178 65.0591 226.953 65.0591C226.684 65.0591 226.415 65.0719 226.146 65.0974C225.886 65.1229 225.673 65.1442 225.508 65.1612C224.675 62.704 223.751 60.336 222.736 58.0574H215.969C215.223 59.8514 214.655 61.2756 214.265 62.3299C213.874 63.3842 213.553 64.3279 213.302 65.1612C213.059 65.1101 212.881 65.0804 212.768 65.0719C212.664 65.0634 212.521 65.0591 212.339 65.0591C212.165 65.0591 211.987 65.0719 211.805 65.0974C211.632 65.1229 211.493 65.1442 211.389 65.1612L219.704 46.8852H220.342ZM222.307 56.9606L219.379 50.2777L216.451 56.9606H222.307ZM223.01 43.378L218.806 45.9415H217.895L221.89 42.0261C222.159 41.8476 222.428 41.6733 222.697 41.5032H222.906C223.313 41.5032 223.582 41.6945 223.712 42.0771L223.764 42.498C223.764 42.634 223.73 42.7361 223.66 42.8041C223.626 42.9061 223.526 43.0166 223.361 43.1357C223.205 43.2462 223.088 43.327 223.01 43.378Z" fill="#490912"/>
<path d="M247.082 48.5049V65.2122C246.866 65.1782 246.666 65.1527 246.484 65.1357C246.31 65.1186 246.119 65.1101 245.911 65.1101C245.694 65.1101 245.473 65.1229 245.248 65.1484C245.031 65.1739 244.861 65.1952 244.74 65.2122V48.5049C243.352 48.5049 242.367 48.5219 241.786 48.556C241.213 48.59 240.242 48.675 238.871 48.811C238.888 48.692 238.91 48.573 238.936 48.4539C238.962 48.3264 238.975 48.1861 238.975 48.0331C238.975 47.9055 238.962 47.7695 238.936 47.6249C238.91 47.4804 238.888 47.3529 238.871 47.2423H252.626L252.574 48.0331L252.626 48.811C251.949 48.726 251.121 48.6537 250.141 48.5942C249.169 48.5347 248.15 48.5049 247.082 48.5049Z" fill="#490912"/>
<path d="M270.753 47.8162C270.892 47.8162 271.069 47.812 271.286 47.8035C271.512 47.795 271.698 47.6887 271.846 47.4846C271.898 47.3911 271.959 47.2933 272.028 47.1913C272.098 47.0893 272.132 46.966 272.132 46.8215C272.132 46.6344 272.054 46.4346 271.898 46.222C271.837 46.137 271.672 46.086 271.403 46.069C271.143 46.052 271.004 46.018 270.987 45.967V44.3983L271.729 44.5003L272.9 44.4493H273.551L273.499 44.8191V46.171C273.499 46.5706 273.464 46.8512 273.395 47.0128C273.334 47.1658 273.134 47.4336 272.796 47.8162C272.57 48.0798 272.314 48.2626 272.028 48.3647C271.742 48.4582 271.317 48.5049 270.753 48.5049V57.6365C270.753 60.1617 270.054 62.1003 268.658 63.4522C267.261 64.8041 265.365 65.48 262.971 65.48C261.652 65.48 260.529 65.327 259.6 65.0209C258.681 64.7148 257.857 64.2344 257.128 63.5797C256.399 62.925 255.883 62.0238 255.579 60.8759C255.354 60.0087 255.241 58.9459 255.241 57.6875V47.2423C255.553 47.2763 255.766 47.3019 255.878 47.3189C256 47.3359 256.178 47.3444 256.412 47.3444C256.716 47.3444 256.959 47.3274 257.141 47.2933C257.332 47.2593 257.479 47.2423 257.583 47.2423V57.2794C257.583 59.6941 257.991 61.4243 258.806 62.4701C259.717 63.635 261.283 64.2174 263.504 64.2174C265.508 64.2174 266.992 63.55 267.955 62.2151C268.822 61.0077 269.256 59.2732 269.256 57.0116V47.2423C269.543 47.3104 269.79 47.3444 269.998 47.3444L270.753 47.2423V47.8162ZM262.932 69C262.611 69 262.324 68.8767 262.073 68.6301C261.83 68.3921 261.708 68.1157 261.708 67.8012C261.708 67.4866 261.83 67.206 262.073 66.9594C262.324 66.7214 262.611 66.6023 262.932 66.6023C263.27 66.6023 263.556 66.7171 263.791 66.9467C264.034 67.1847 264.155 67.4696 264.155 67.8012C264.155 68.1157 264.029 68.3921 263.778 68.6301C263.535 68.8767 263.253 69 262.932 69Z" fill="#490912"/>
<path d="M299.836 47.2423V65.1612H299.029C298.725 64.6935 298.265 64.1536 297.65 63.5415L286.133 51.0557H285.859V65.1612C285.651 65.1272 285.499 65.1016 285.404 65.0846C285.317 65.0676 285.222 65.0591 285.118 65.0591C284.996 65.0591 284.862 65.0719 284.714 65.0974C284.575 65.1229 284.463 65.1442 284.376 65.1612V47.2423H285.443L298.066 60.7229H298.339V47.2423C298.556 47.2763 298.708 47.3019 298.795 47.3189C298.881 47.3359 298.977 47.3444 299.081 47.3444C299.211 47.3444 299.346 47.3316 299.484 47.3061C299.623 47.2806 299.74 47.2593 299.836 47.2423Z" fill="#490912"/>
<path d="M319.654 54.767V47.2423C319.828 47.2763 320.001 47.3019 320.175 47.3189C320.357 47.3359 320.574 47.3444 320.825 47.3444C321.129 47.3444 321.372 47.3274 321.554 47.2933C321.745 47.2593 321.892 47.2423 321.997 47.2423V65.1612C321.78 65.1272 321.58 65.1016 321.398 65.0846C321.224 65.0676 321.034 65.0591 320.825 65.0591C320.608 65.0591 320.387 65.0719 320.162 65.0974C319.945 65.1229 319.776 65.1442 319.654 65.1612V56.1316C318.995 56.1316 317.919 56.1146 316.427 56.0806C314.935 56.0381 314.145 56.0168 314.058 56.0168C313.416 56.0168 312.349 56.0381 310.857 56.0806C309.365 56.1146 308.549 56.1316 308.411 56.1316V65.1612C308.194 65.1272 307.994 65.1016 307.812 65.0846C307.638 65.0676 307.443 65.0591 307.226 65.0591C307.035 65.0591 306.875 65.0634 306.745 65.0719C306.623 65.0804 306.393 65.1101 306.055 65.1612V47.2423C306.376 47.2763 306.593 47.3019 306.706 47.3189C306.827 47.3359 307.001 47.3444 307.226 47.3444C307.53 47.3444 307.773 47.3274 307.955 47.2933C308.146 47.2593 308.298 47.2423 308.411 47.2423V54.767C309.061 54.767 310.146 54.784 311.664 54.818C313.191 54.852 313.989 54.869 314.058 54.869C314.692 54.869 315.75 54.852 317.234 54.818C318.717 54.784 319.524 54.767 319.654 54.767Z" fill="#490912"/>
<path d="M328.177 65.1612V47.2423C328.35 47.2763 328.524 47.3019 328.697 47.3189C328.88 47.3359 329.097 47.3444 329.348 47.3444C329.652 47.3444 329.895 47.3274 330.077 47.2933C330.268 47.2593 330.415 47.2423 330.519 47.2423V65.1612C330.302 65.1272 330.103 65.1016 329.921 65.0846C329.747 65.0676 329.556 65.0591 329.348 65.0591C329.131 65.0591 328.91 65.0719 328.684 65.0974C328.468 65.1229 328.298 65.1442 328.177 65.1612Z" fill="#490912"/>
<path d="M336.583 47.2423H348.425L348.373 48.0331L348.425 48.811C348.086 48.743 347.687 48.6835 347.228 48.6325C346.776 48.5815 346.373 48.556 346.017 48.556L343.363 48.5049H338.938V55.0348H345.432C345.701 55.0348 346.1 55.0178 346.629 54.9838C347.167 54.9413 347.57 54.92 347.839 54.92C347.761 55.2006 347.722 55.4302 347.722 55.6087L347.839 56.3357C347.57 56.3357 347.167 56.3102 346.629 56.2591C346.1 56.2081 345.701 56.1826 345.432 56.1826H338.938V63.8093L340.057 63.8603C341.081 63.8603 342.04 63.8475 342.933 63.822C343.835 63.7965 344.902 63.7583 346.134 63.7072C346.612 63.7072 347.071 63.6817 347.514 63.6307C347.956 63.5712 348.312 63.5244 348.581 63.4904L348.529 64.2812L348.581 65.0591H336.583V47.2423ZM339.446 45.7884H338.535L341.84 41.4012H343.284L346.59 45.7884H345.679L342.595 43.0081L339.446 45.7884Z" fill="#490912"/>
<path d="M370 47.2423V65.1612H369.193C368.89 64.6935 368.43 64.1536 367.814 63.5415L356.297 51.0557H356.024V65.1612C355.815 65.1272 355.664 65.1016 355.568 65.0846C355.481 65.0676 355.386 65.0591 355.282 65.0591C355.16 65.0591 355.026 65.0719 354.878 65.0974C354.74 65.1229 354.627 65.1442 354.54 65.1612V47.2423H355.607L368.23 60.7229H368.503V47.2423C368.72 47.2763 368.872 47.3019 368.959 47.3189C369.046 47.3359 369.141 47.3444 369.245 47.3444C369.375 47.3444 369.51 47.3316 369.649 47.3061C369.787 47.2806 369.905 47.2593 370 47.2423Z" fill="#490912"/>
</svg>
