<svg width="19" height="18" viewBox="0 0 19 18" fill="none" xmlns="http://www.w3.org/2000/svg">
<path d="M18.5018 13.2102L15.8447 10.6982C14.8957 9.80109 13.2825 10.16 12.9029 11.3262C12.6182 12.1337 11.6693 12.5822 10.8152 12.4028C8.91728 11.9542 6.35509 9.62167 5.88061 7.73771C5.59592 6.93026 6.1653 6.03313 7.01936 5.76403C8.25301 5.40518 8.63259 3.88007 7.68363 2.98294L5.02655 0.470991C4.26738 -0.156997 3.12863 -0.156997 2.46436 0.470991L0.661336 2.17553C-1.14169 3.96978 0.851128 8.72454 5.31124 12.941C9.77134 17.1575 14.8008 19.1312 16.6987 17.3369L18.5018 15.6324C19.1661 14.9147 19.1661 13.8382 18.5018 13.2102Z" fill="white"/>
</svg>
