<?xml version="1.0" encoding="UTF-8"?>
<!DOCTYPE svg PUBLIC "-//W3C//DTD SVG 1.1//EN" "http://www.w3.org/Graphics/SVG/1.1/DTD/svg11.dtd">
<!-- Creator: CorelDRAW 2020 (64-Bit) -->
<svg xmlns="http://www.w3.org/2000/svg" xml:space="preserve" width="2.88947in" height="0.442087in" version="1.1" style="shape-rendering:geometricPrecision; text-rendering:geometricPrecision; image-rendering:optimizeQuality; fill-rule:evenodd; clip-rule:evenodd"
viewBox="0 0 833.85 127.58"
 xmlns:xlink="http://www.w3.org/1999/xlink"
 xmlns:xodm="http://www.corel.com/coreldraw/odm/2003">
 <defs>
  <style type="text/css">
   <![CDATA[
    .fil0 {fill:#DEBB91;fill-rule:nonzero}
   ]]>
  </style>
 </defs>
 <g id="Layer_x0020_1">
  <metadata id="CorelCorpID_0Corel-Layer"/>
  <path class="fil0" d="M13.28 92.82c-0.03,-0.24 -0.5,-0.5 -1.05,-0.59l-0.46 -0.13c-0.41,-0.12 -0.6,-0.54 -1.27,-0.15 -0.53,0.31 -0.94,0.51 -0.1,0.88 0.69,0.31 -0.61,1.3 1.08,1.22 0.61,-0.03 1.15,-0.72 1.67,-1.13l0.14 -0.11zm819.59 -33.36c0.4,0.25 -0.85,-0.2 -2.78,-0.99l-2.32 0.27c-0.36,0.04 -1.03,-0.28 -1.3,-0.52l-0.55 -0.5c-0.52,-0.68 -0.06,-1.08 1.02,-0.89l0.82 -0.01 1.99 -0.03c-0.95,-0.42 -0.73,-0.72 0.5,-0.68l0.84 0.7 0.63 0.52c1.5,0.39 2.41,0.77 2.03,0.84 -0.39,0.07 -1.29,1.05 -0.89,1.3zm-808.32 22.78c0.67,0.1 1.06,-0.16 0.86,-0.59l-0.16 -0.01c-1.29,-0.05 -1.6,-0.42 -1.48,-1.07l0.05 -0.3c-0.2,-0.43 -0.77,-0.32 -1.26,0.25 -0.49,0.57 1.32,1.62 1.99,1.72zm249.65 40.58c-0.16,-0.62 -0.25,-0.69 -0.2,-0.15 0.05,0.54 -0.23,2 0.47,1.96 0.7,-0.04 -0.1,-1.19 -0.26,-1.81zm290.51 -1.21c0.56,-0.15 0.67,-0.48 0.26,-0.72 -0.41,-0.24 -1.59,-0.89 -1.83,-1.1 -0.24,-0.21 -1.53,0.02 -1.27,0.56 0.27,0.53 2.28,1.42 2.83,1.27zm-264.28 0.1c-0.39,-0.05 -0.19,0.62 0.45,1.48l0.88 0.28 1.08 0.35c1.04,0.45 2.34,0.71 2.88,0.57l0.16 -0.21 0.2 -0.25c-0.08,-0.41 -1.11,-0.67 -2.28,-0.58l-0.65 -0.2 -0.73 -0.23c-0.53,-0.52 -1.6,-1.16 -1.99,-1.2zm-80.06 -2.26c-1.84,0.3 -2.78,0.55 -2.1,0.55 0.69,0 2.78,0.77 3.32,0.97 0.54,0.21 2.18,0.52 2.18,0.15 0,-0.36 -0.76,-1.04 -1.68,-0.77l-0.2 -0.1 -1.52 -0.8zm589.52 -61.44c-0.59,-0.61 -0.9,-0.62 -0.7,-0.01 0.2,0.61 2.88,1.28 3.66,1.33l0.07 -0.61 0.03 -0.28c0.65,-0.58 -0.11,-0.62 -1.69,-0.09l-0.55 -0.14 -0.83 -0.21zm-392.3 62.31c-1.12,0.02 -2.2,0.17 -2.39,0.35l0.07 0.1 0.31 0.41c-0.32,0.4 -0.23,0.84 0.19,0.99 0.42,0.15 2.01,-0.38 2.79,-0.51 0.79,-0.13 0.15,-1.35 -0.97,-1.33zm378.41 -61.68c0.91,0.2 1.3,0.01 0.88,-0.42 -0.42,-0.43 -1.88,-1.99 -2.62,-2.8l-1.33 1.04 -0.99 0.77c-1.08,-0.26 -1.39,-0.37 -0.67,-0.24 0.72,0.13 3.82,1.44 4.72,1.64zm-568.37 61.42c-1.11,0.24 -1.67,0.73 -1.24,1.09 0.43,0.36 2.46,-0.38 2.94,-0.58 0.49,-0.19 2.82,-0.31 3.68,-0.3 0.86,0 3.26,-0.29 2.88,-0.65 -0.37,-0.36 -2.68,-0.04 -3.23,0.06 -0.55,0.11 -2.12,-0.07 -3.17,-0.19l-0.96 0.29 -0.9 0.27zm23.63 -0.95c-0.8,-0.17 -1.5,-0.26 -1.57,-0.2 -0.06,0.07 0.15,0.44 0.62,0.68 0.46,0.24 2.92,0.38 4.23,0.03l1.24 0.66c0.06,0.03 0.52,-0.09 0.68,-0.2l0.42 -0.28c0.55,-0.44 0.35,-0.88 -0.44,-0.97 -0.79,-0.09 -4.38,0.46 -5.18,0.28zm-10.58 4.93c-1.04,0.33 -2.3,1.05 -2.8,1.61 -0.49,0.55 -3.02,1.06 -2.63,0.71 0.39,-0.36 1.66,-1.43 1.9,-1.66 0.23,-0.23 -1.17,-0.85 -1.42,-1.24l-0.38 -0.18 -0.91 -0.44c-0.58,-0.6 -1.24,-1.27 -1.48,-1.5 -0.24,-0.22 -1.44,0.51 -1.78,0.87l0.01 0.33 0.01 0.21c0.1,0.27 -0.16,0.97 -0.58,1.54 -0.42,0.58 -0.54,2.3 -0.7,2.34 -0.17,0.04 -0.74,-0.02 -0.92,-0.21 -0.17,-0.19 -1.11,-0.84 -1.53,-1.12 -0.41,-0.27 1.5,-0.92 1.73,-1.15 0.22,-0.22 0.21,-0.6 -0.52,-0.31 -0.73,0.3 -2.84,-0.56 -3.3,-0.48 -0.46,0.08 0.05,1.06 0.24,1.38l0.07 0.3 0.07 0.3c-0.03,0.32 -1.05,0.47 -2.28,0.35l-1 0.03 -0.17 0.01c-0.16,0.69 -0.52,1.17 -0.8,1.06 -0.28,-0.11 -1.74,-0.07 -2.63,0.1l-0.03 -0.03 -0.54 -0.64c0.93,-0.1 1.59,-0.38 1.46,-0.63 -0.13,-0.25 -1.02,-0.81 -1.58,-0.43 -0.56,0.38 -2.59,1.31 -3.42,1.31 -0.83,0 -3.09,-0.04 -3.1,-0.08 -0.01,-0.05 0.43,-0.2 1,-0.24 0.56,-0.04 2.18,-0.49 2.19,-0.91 0,-0.42 2.34,-0.9 2.78,-0.96 0.44,-0.06 1.72,-0.38 1.9,-0.54l-0.07 -0.11c-0.08,-0.14 -0.48,-0.36 -0.61,-0.33 -2.24,0.4 -4.44,0.89 -6.86,0.83l-1.62 -0.04c-0.79,0.69 -1.76,1.36 -2.16,1.49 -0.4,0.14 -1.26,-0.58 -1.46,-0.67 -0.2,-0.09 -1.15,-0.38 -1.58,-0.5 -0.43,-0.11 -1.48,-0.55 -1.22,-0.69 0.25,-0.14 1.22,-0.42 1.58,-0.32l0.1 0.15 0.57 0.8c1.25,-0.13 2.48,-0.32 2.74,-0.43 0.26,-0.11 0.73,-0.7 0.72,-0.98 -0.01,-0.28 -1.77,-0.79 -2.36,-0.86l-0.04 -0.1c-0.52,-1.62 -2.07,-0.7 -2.37,-0.15 -0.52,0.99 -2.23,1.08 -3.27,1.61l-0.93 0.47c-0.61,0.62 -1.23,0.86 -1.38,0.54l-0.07 -0.29 -0.14 -0.53c-1.1,-0.29 -2.74,-0.79 -3.64,-1.1l-0.16 -0.38c-0.4,-0.94 -1.45,-0.97 -2.82,-0.96 -0.59,0 -1.28,-0.41 -1.75,-0.33 -0.46,0.08 -0.67,0.56 -1.07,0.83l-0.14 0.1c-0.52,0.04 -0.53,0.21 -0.04,0.39 0.49,0.18 1.41,0.81 0.99,1.05 -0.42,0.23 -3.5,-0.61 -3.13,-0.88l0.17 -0.27c0.52,-0.8 -0.18,-1.27 -1.67,-0.95 -1.17,0.25 -1.49,-0.32 -2.21,-0.36l-0.91 -0.05c-1.08,0.05 -3.11,0.3 -4.52,0.54l-0.77 -0.25 -0.97 -0.31c-0.89,0.07 -2.21,0.25 -2.96,0.4 -0.75,0.16 -3.36,-0.33 -3.93,-0.41 -0.58,-0.08 -2.04,0.06 -2.77,0.02 -0.72,-0.04 -2.97,-0.13 -3.61,0.21 -0.64,0.35 -3.23,0.73 -4.32,0.05l-1.63 0.27 -1.13 0.19c-1.17,-0.1 -3.05,-0.17 -4.16,-0.15 -1.11,0.02 -4.23,0.46 -5.54,0.69 -1.32,0.22 -5.38,-0.3 -6.97,-0.16l-1.59 -0.49 -1.17 -0.36c-2.09,0.32 -4.13,0.64 -4.53,0.72 -0.4,0.07 -2.14,0.01 -3.16,0.01 -1.02,0 -3.67,0.29 -3.77,0.13 -0.11,-0.16 -0.69,-0.46 -1.04,-0.28 -0.35,0.18 -1.63,0.42 -2.08,0.14l-0.46 -0.19 -0.31 -0.13c-0.43,-0.06 -0.98,0.01 -1.23,0.16 -0.25,0.15 -1.12,0.43 -1.4,0.27 -0.29,-0.15 -1.52,0.14 -1.79,0.24 -0.27,0.1 -1.67,0.27 -3.04,0.42l-1.21 -0.27c-0.63,-0.14 -1.23,-0.31 -1.84,-0.48 -0.8,-0.21 -1.45,-0.9 -2.53,-0.2 -0.09,0.05 -0.71,-0.02 -0.89,-0.13 -1.18,-0.72 -1.73,-0.95 -2.94,0.18l-0.82 0.76c-0.58,-0.9 -1.26,-1.46 -1.52,-1.24 -0.26,0.21 -1.2,0.66 -1.42,0.42 -0.22,-0.23 -1.13,-0.81 -1.66,-0.9 -0.52,-0.09 -1.83,0.73 -2.14,0.94 -0.3,0.2 -1.41,-0.15 -1.57,0.02 -0.16,0.17 -0.48,0.24 -0.37,-0.2 0.1,-0.45 -1.94,0.3 -2.07,0.34l-0.13 0.02c-1.34,0.25 -1.36,-1.15 -3.02,-0.69l-0.88 0.25c-1.23,-0.01 -2.54,-0.05 -2.91,-0.08 -0.36,-0.03 -1.66,0.13 -2.5,0.16 -0.85,0.03 -3.33,-0.39 -3.78,-0.02l-0.57 0.21 -0.33 0.12c-0.61,-0.1 -1.65,-0.41 -2.3,-0.69 -0.65,-0.29 -3.94,0.47 -4.27,0.21 -0.33,-0.27 -1.63,-0.69 -2.04,-0.42 -0.4,0.27 -1.88,-0.29 -2.11,-0.15l-0.2 0.13c-0.24,0.16 -0.49,0.47 -0.68,0.46 -0.73,-0.03 -1.99,0.32 -1.89,-0.49l0.02 -0.22c0.86,-0.26 1.25,-0.57 0.85,-0.7 -0.39,-0.12 -1.66,-0.24 -1.96,0.02 -0.3,0.26 -1.62,0.88 -1.6,0.26l-0.05 -0.3c-0.02,-0.14 -0.23,-0.4 -0.29,-0.4l-0.72 0.06c-0.78,0.1 -1.26,-0.2 -1.07,-0.66l-1.28 0.19 -0.24 0.04c-0.22,0.14 -1.05,0.13 -1.86,-0.04 -0.81,-0.17 -3.92,-0.17 -4.81,-0.14 -0.9,0.02 -3.74,-0.73 -4.49,-0.67 -0.74,0.05 -2.72,0.29 -3.01,-0.19 -0.3,-0.48 -3.7,-0.77 -4.01,-0.72l-0.05 -0.03 -1.59 -1.33c-2.81,-0.2 -5.33,-0.41 -5.59,-0.46 -0.27,-0.05 -1.53,-0.02 -2.53,-0.07 -1,-0.05 -5.13,0.11 -6.93,0.2l-0.36 -1.25c-0.04,-0.14 -0.75,-0.37 -0.9,-0.32l-1.03 0.33c-1.05,-0.26 -2.13,-0.65 -2.41,-0.86 -0.28,-0.22 -2.08,-0.62 -2.61,-0.77 -0.53,-0.15 -2.17,-0.44 -2.39,-0.39 -0.22,0.05 -0.97,-0.09 -1.14,-0.42l-0.34 -0.21c-0.19,-0.11 -0.85,-0.13 -1.14,-0.04 -1.17,0.34 -2.46,0.4 -3.3,0.43 -1.8,0.06 -0.92,-0.36 -0.82,-0.84 0.05,-0.25 -1.07,-0.55 0.36,-0.65 0.66,-0.05 1.31,-0.21 1.91,-0.38 0.68,-0.19 0.56,-0.39 0.04,-0.69l-0.56 -0.32c0.57,-0.3 1.69,-0.88 2.49,-1.31 0.8,-0.43 1.76,-2.07 0.88,-2.16l-0.64 0.05 -0.75 0.05c-0.8,0.17 -2.04,0.13 -2.75,-0.1 -0.71,-0.22 -0.54,-2.14 -0.27,-2.9 0.27,-0.76 0.88,-2.8 0.77,-2.82 -0.11,-0.03 -0.98,0.3 -1.61,0.75l-0.85 -0.73 -0.43 -0.37c0.16,-0.35 0.66,-0.98 1.12,-1.39l-0.79 -0.2 -0.42 -0.11c-0.98,0.29 -1.56,0.22 -1.29,-0.16l0.05 -0.32 0.15 -0.88c-0.69,-0.86 -1.32,-1.88 -1.4,-2.27 -0.07,-0.38 0.81,-1.65 2.13,-2 1.31,-0.35 1.3,-2.36 0.35,-2.2l-0.56 0.25 -0.59 0.27c-0.68,0.25 -2,-0.16 -2.92,-0.92l0.48 -0.64c0.16,-0.21 0.14,-0.46 0.34,-0.65 0.47,-0.46 1.03,-0.9 1.54,-1.34 0.58,-0.51 1.25,0.65 1.92,-0.05l0.19 -0.2c0.8,-0.1 0.72,-0.32 -0.2,-0.49l-0.04 -0.19c-0.07,-0.31 0.38,-0.69 0.76,-0.98 0.2,-0.15 0.77,-0.14 1.1,-0.26 0.79,-0.3 1.02,-1.22 0.24,-1.35 -0.96,-0.17 -1.22,-0.38 -1.58,-0.86l-0.19 -0.25c-1.36,-0.08 -1.23,-0.41 0.29,-0.72 1.53,-0.31 5.64,-1.62 7.55,-0.91l2.32 -0.22c0.46,-0.04 1.44,0.53 1.63,0.9l0.48 0.92c1.11,-0.26 1.71,-0.85 1.33,-1.3l0.07 -0.38c0.21,-1.14 0.56,-2.28 1,-3.4l0.1 -0.25c0.61,-0.21 1.38,-0.45 1.71,-0.53 0.34,-0.08 1.17,-0.76 1.78,-0.77 0.6,-0 2.36,-0.17 2.57,-0.25 0.22,-0.08 0.92,-0.47 1.17,-0.64 0.26,-0.16 1.47,0.46 1.66,0.56 0.19,0.1 1.21,0.23 1.29,-0.22 0.09,-0.45 0.89,-1.23 1.62,-0.95 0.73,0.28 2.75,-0.32 2.6,-0.42 -0.15,-0.09 -0.17,-0.46 0.27,-0.62l0.25 0.06c1.03,0.25 2.21,1.17 2.54,-0.31l0.01 -0.03c0.32,-0.01 1.09,0.08 1.72,0.2 0.63,0.12 2.68,-0.35 3.27,-0.37 0.59,-0.02 2.44,0.08 3.34,0.08 0.91,-0 2.45,-0.93 1.81,-1.11 -0.65,-0.18 -2.04,-1.15 -1.69,-1.76 0.35,-0.61 -3.21,-2.35 -2.9,-2.41 0.31,-0.05 0.64,-0.6 -0.29,-1.01l0.02 -0.35 0.05 -0.79c-0.94,-0.02 -2.05,-0.24 -2.49,-0.49l-0.3 -0.26 -0.66 -0.59c0.42,-0.67 0.44,-1.8 0.04,-2.5l-0.25 -0.66 -0.08 -0.21c0.14,-0.28 1.04,-0.22 1.98,0.11 0.95,0.34 3.89,-0.27 3.97,-0.38 0.08,-0.11 -0.22,-0.56 -0.83,-0.73l-0.29 0.09 -0.65 0.21c-0.85,0.28 -1.4,0.28 -1.23,-0l0.13 -0.26 0.14 -0.27c0.13,-0.3 0.05,-0.51 -0.18,-0.46 -0.23,0.05 -1.23,0.11 -1.72,0.02 -0.49,-0.09 0.48,-1.42 0.86,-2.07l1.34 -0.16c0.26,-0.03 0.74,-0.11 0.74,-0.14l-0.21 -1.49c2.12,-0.58 3.4,-1.21 2.85,-1.41 -0.55,-0.2 -2.7,0.06 -3.04,-0 -0.34,-0.06 -2.92,-0.57 -4.9,-1.06l-2.07 0.23c-0.93,0.1 -1.04,-0.21 -1.29,-0.66l-0.37 -0.67c-0.59,0.43 -1.76,0.64 -2.61,0.49 -0.85,-0.15 -3.49,-0.85 -4.02,-1.13l0.07 -0.05 0.73 -0.56c-0.46,-0.56 -1.01,-1.12 -1.21,-1.24 -0.21,-0.13 -0.91,-0.31 -1.09,-0.12l-0.25 0.12 -0.37 0.17c-0.46,0.15 -1.41,0.39 -2.1,0.54 -0.69,0.15 -2.86,0.41 -3.21,0.22 -0.34,-0.19 -1.05,-1.02 -0.7,-1.36 0.36,-0.34 2.94,0.22 3.97,0.23l0.16 -0.36c0.17,-0.39 -0.38,-1.26 -0.67,-1.27l-4.57 -0.11c0.6,-1.75 0.55,-3.22 -0.11,-3.27 -0.66,-0.06 -1.79,0.75 -1.96,0.65 -0.17,-0.1 -0.66,-0.37 -0.72,-0.4 -0.05,-0.03 -0.42,-0.41 -0.69,-0.77 -0.27,-0.36 0.64,-1.59 0.94,-1.88l0.09 -0.29 0.08 -0.26c-0.12,-0.31 -0.57,-0.53 -1.01,-0.49l-0.39 0.05 -0.32 0.04c-0.34,0.07 -0.72,-0.04 -0.84,-0.23l0.11 -0.09 0.61 -0.5c1.05,-0.75 0.93,-1.14 -0.27,-0.86l-0.68 0.03 -1.28 0.06c-1.46,-0.02 -2.74,-0.3 -2.83,-0.61l0.03 -0.22 0.27 -2.31c-1.75,-0.96 -3.41,-1.81 -3.7,-1.9l-0.09 -0.12 -0.35 -0.49c0.12,-0.57 -0.21,-1.53 -0.72,-2.13l-0.74 -0.17c-1.87,-0.42 -1.83,-1.17 -1.73,-2.02l0.03 -0.32c-0.01,-0.6 -0.98,-0.84 -2.13,-0.55l0.76 -0.77c0.7,-0.72 -0.56,-0.7 -0.94,-0.99 -0.1,-0.08 -0.82,0.92 -1.18,-0.01l-0.05 -0.12c0.59,-0.21 1.17,-0.42 1.3,-0.47 0.12,-0.05 -0.23,-0.79 -1.07,-1.54l0.3 -0.85c0.08,-0.22 0.35,-0.44 0.31,-0.65l-0.04 -0.24c-0.26,-0.25 -0.2,-0.41 0.15,-0.36 0.35,0.05 1.81,-0.09 2.43,-0.42 0.62,-0.33 -0.29,-1.61 0.16,-1.71l0.11 0.06c1.16,0.57 2.18,0.68 3.18,-0.12l0.87 -0.69c0.93,0.49 1.77,0.68 1.86,0.41 0.09,-0.26 1.55,-1.18 3.04,-1.44l1.02 1.19 0.53 0.62c1.44,-0.69 2.38,-1.3 2.09,-1.36 -0.29,-0.05 -1.01,-0.35 -0.92,-0.53l0.06 0c0.69,0.02 1.39,0.06 2.07,0.12l0.32 0.03c0.34,0.07 0.76,-0.05 0.92,-0.27 0.17,-0.21 1.35,-0.1 1.46,-0.25 0.12,-0.15 0.78,-0.57 1,-0.31 0.22,0.26 1.52,0.58 2.17,-0.13l0.51 -0.34 0.28 -0.18c0.58,-0.05 1.68,0.08 2.43,0.29 0.76,0.21 3.51,-0.28 4.06,-0.05 0.55,0.22 2.16,0.73 2.76,0.09l0.52 -0.44 0.51 -0.44c0.94,-0.04 2.15,0.07 2.67,0.25 0.52,0.18 1.58,-0.7 2.2,-0.69 0.63,0.01 2.41,0.26 2.65,0.38 0.23,0.12 1.32,0.3 1.59,-0.07 0.26,-0.36 1.46,-1.26 2.07,-1.12 0.61,0.14 2.07,-0.06 2.54,-0.18 0.48,-0.12 1.84,0.24 2.08,0.13l0.03 -0.12 0.12 -0.42c0.56,0.06 2.04,0.4 3.29,0.77l0.16 -1.15 0.01 -0.09c0.27,-0.08 1.51,-0.29 2.77,-0.49 1.25,-0.19 5.44,0.24 6.53,0.21l0.78 0.13c0.81,0.13 1.34,0.74 1.39,-0.26 0,-0.1 0.94,-0.3 0.96,-0.27 0.98,0.78 2.46,0.15 2.73,-0.06 0.89,-0.67 2.14,0.24 3.09,-0.39l0.36 -0.24c1.54,0.3 2.98,0.58 3.2,0.61 0.23,0.03 1.43,-0.38 2.28,-0.82 0.85,-0.44 3.75,0.33 3.91,0.28l0 -0.04 -0.07 -1.18c1.41,0.24 3.52,0.13 4.69,-0.26l1.01 0.91 0.5 0.45c1.05,-0.31 2.43,-0.71 3.08,-0.89l0.67 -0.09 0.21 -0.03c0.22,-0.04 0.96,-0.05 1.65,-0.02 0.69,0.04 3.13,-0.1 3.85,-0.01 0.72,0.09 2.53,-0.41 2.71,-0.29 0.18,0.13 0.94,0.43 1.1,0.27l0.17 -0.13 0.18 -0.15c0.22,-0.15 0.47,-0.18 0.54,-0.07 0.07,0.12 0.44,0.52 0.62,0.58l0.17 -0.03 1.3 -0.21c1.47,-0.17 2.89,-0.38 3.15,-0.47l0.19 -0.12 1.32 -0.84c1,0.78 2.03,1.21 2.29,0.98 0.26,-0.24 1.11,-0.72 1.36,-0.59 0.26,0.13 0.81,-0.36 0.86,-1.27l1.89 1.16 0.33 0.2c0.98,-0.11 2.24,-0.18 2.82,-0.15 0.57,0.02 1.91,0.21 1.95,-0.08 0.04,-0.29 2.01,-0.33 2.32,-0.12 0.3,0.2 0.84,-0.16 0.79,-1.02l2.08 1.09c0.21,0.11 1.36,-0.32 2.06,-0.5l0.37 -0.1c0.36,-0.13 1.88,-0.45 3.37,-0.73 1.49,-0.27 5.34,0.94 5.65,0.95 0.31,0.01 2.14,-0.2 3.42,-0.36 1.27,-0.16 5.94,-0.06 6.88,0.01l0.4 -0.2 0.96 -0.49c0.86,0.27 2.07,0.52 2.67,0.56l0.57 0 1.04 0c1.05,-0.3 2.37,-0.62 2.92,-0.71 0.55,-0.09 3.26,-0.24 4.72,-0.24l1.32 -0.03 0.39 -0.01c0.42,-0.12 0.82,-0.04 0.9,0.17 0.07,0.21 1.64,0.1 1.86,-0.07 0.22,-0.17 1.18,-0.53 1.53,-0.34 0.35,0.19 1.57,0.51 2.07,0.35 0.49,-0.16 2.62,-0.61 3.63,-0.66l0.33 0.28c0.72,0.62 1.57,-0.61 2.36,0.17l0.33 0.33c1.24,-0.36 2.54,-0.52 2.88,-0.36 0.35,0.17 1.41,0.5 1.51,0.35 0.1,-0.15 0.54,-0.52 0.77,-0.47 0.23,0.05 0.98,-0.02 1.16,-0.27 0.18,-0.25 3.08,-0.17 4.81,-0.39l1.89 0.34c1.52,0.27 3.57,0.38 5.39,-0.33l0.87 -0.34c1.65,0.18 3.17,0.44 3.37,0.59 0.21,0.15 1.2,0.2 1.71,-0.27 0.5,-0.47 2.8,0.33 2.97,0.15 0.15,-0.18 0.81,-0.62 0.9,-0.32 0.09,0.3 0.61,0.65 0.98,0.25 0.37,-0.4 3.08,0.19 4.2,0.01l1.32 0.13 1.74 0.17c2.11,-0.47 3.95,-0.72 4.09,-0.55 0.14,0.17 0.71,0.51 0.87,0.32 0.17,-0.19 0.93,-0.69 1.35,-0.71l0.15 0.08 1.24 0.69c1.66,-0.11 3.91,-0.15 5,-0.1 1.09,0.05 4.5,-0.27 5.29,0.13l0.94 -0.73c0.16,-0.12 1.33,0.22 2.03,0.2l2.05 -0.04c2.25,-0.1 5.4,-0.33 6.99,-0.51l1.19 0.78 0.24 0.16c0.78,-0.09 1.96,-0.16 2.63,-0.16 0.66,0.01 2.29,0.23 2.36,-0.03 0.07,-0.25 2.24,-0.11 3,0.39l1.18 -0.63 0.38 -0.21c1.06,0.13 2.32,0.27 2.8,0.31 0.48,0.04 2.24,0.17 2.88,0.18l0.59 0c0.44,0 0.9,0.05 1.32,-0.01 0.46,-0.07 0.85,-0.27 1.31,-0.33l0.27 -0.03c0.36,0.11 1.06,0.1 1.56,-0.01 0.51,-0.11 2.06,0.25 2.83,0.6l-0.03 -0.92 0 -0.01c0.47,-0.01 2.14,0.27 3.71,0.61l1.45 0.04 1.14 0.03c1.28,-0.35 2.57,-0.7 2.86,-0.79 0.29,-0.09 1.34,0.33 1.8,0.86l1.38 -0.29c0.72,-0.15 2.02,-0.29 2.29,-0.1 1.14,0.8 1.51,-0.51 2.55,-0.18l0.91 0.29c1.3,0.04 2.96,0.19 3.7,0.33l0.23 -0.13 1.39 -0.76c1.48,0.38 2.94,0.57 3.22,0.41 0.29,-0.16 1.41,-0.44 1.7,-0.2 0.3,0.24 1.18,0.91 1.24,0.91 0.06,-0 0.94,-0.25 1.74,-0.49 0.8,-0.24 4.14,-0.27 5.2,-0.17 1.07,0.1 3.93,-0.08 4.75,0.12 0.83,0.2 2.94,-0.54 3.67,-0.28l0.02 -0.02 2.01 -1.53c2.67,0.65 5.39,1.17 6.04,1.16 0.65,-0.01 1.88,-0.15 1.8,0.27 -0.08,0.43 2.47,-0.4 3.13,-0.57 0.66,-0.17 2.08,-0.04 2.56,0.02 0.49,0.06 1.74,-0.16 1.85,-0.01 0.11,0.15 0.7,0.53 0.93,0.35 0.23,-0.19 1.72,-0.64 2.86,-0.64l0.94 0.3 2.8 0.57 0.64 -0.27c0.84,-0.35 1.64,-0.54 1.79,-0.4 0.14,0.14 1.28,0.64 1.98,0.9l1.49 -0.81 0.17 -0.09c0.37,0.01 1.01,0.15 1.43,0.31 0.42,0.17 2.99,0.1 4.57,-0.29l0.13 -0.07 0.59 -0.35c0.74,0.18 1.17,0.9 0.96,1.6l1.91 -0.68 1.45 -0.52c-0.1,0.66 -0.07,0.81 0.07,0.35 0.14,-0.46 2.24,0.24 2.35,0.22 0.11,-0.02 1.05,-0.12 1.84,-0.23 0.79,-0.11 3.73,0.43 4.51,0.55 0.79,0.12 2.74,-0.5 3.03,-0.34 0.29,0.16 1.11,0.59 1.17,0.6 0.07,0.01 0.46,-0.16 0.81,-0.34 0.34,-0.19 1.88,-0.41 2.49,-0.27l0.58 0.03c0.34,0.02 0.94,-0.33 1.04,-0.28l0.99 0.5c1.01,-0.25 2.86,-0.25 4.09,0.01l1.15 0.22 0.46 0.09c0.57,-0 1.31,-0.14 1.65,-0.29 0.34,-0.16 1.75,-0.2 2.2,-0.39 0.45,-0.19 3.28,0.22 4.67,0.28l1.3 0.06 1.1 0.05c1.16,0.2 2.29,0.26 2.52,0.11 0.23,-0.14 1.58,-0.43 2.49,-0.33l0.7 0.19c0.74,0.2 1.35,0.84 1.39,-0.21 0,-0.03 0.54,-0.09 0.82,-0.07 1.7,0.07 3.45,0.34 5.08,0.19l1.26 -0.11c0.99,0.26 2.03,0.48 2.3,0.51 0.27,0.02 1.51,-0.13 2.2,-0.24 0.68,-0.11 4.92,0.09 6.1,0.31 1.17,0.23 4.43,-0.87 5.18,-0.85 0.76,0.02 3.54,-0.21 4.49,-0.47 0.95,-0.27 3.16,0.87 3.42,0.85 0.25,-0.02 1.67,-0.6 2.27,-0.16l0.62 0.08c0.65,0.08 1.57,-0.4 2.16,-0.29l1.22 0.23c0.64,-0.41 1.57,-0.72 2.05,-0.7l0.3 0.12 0.56 0.23c0.51,0.31 1.19,0.43 1.5,0.26 0.3,-0.17 1.13,-0.38 1.19,-0.11 0.05,0.26 1.93,0.31 2.23,0.1 0.3,-0.21 1.65,-0.49 1.94,-0.24 0.28,0.24 1.25,0.91 1.44,0.9l0.07 -0.08c0.93,-1.09 2.34,-0.19 3.5,-0.24l0.56 -0.02c0.82,-0.17 1.78,-0.27 2.14,-0.22 0.36,0.05 1.36,0.11 2,0.27 0.65,0.16 3.42,-0.31 4.6,-0.11l1.3 -0.18c0.72,-0.1 1.71,0.33 2.39,0.21l1.17 -0.21c1.15,0.14 2.93,0.3 3.94,0.36l0.95 -0.1 1.66 -0.17c1.87,-0.09 3.64,-0.18 3.94,-0.2 0.3,-0.02 1.28,0.39 1.74,0.75 0.46,0.36 2.53,-0.2 2.88,-0.04 0.35,0.16 1.44,0.48 1.67,0.33l-0.04 -0.11c-0.13,-0.33 -0.63,-0.9 -0.56,-0.92l1.09 -0.32c0.24,0.5 0.68,0.96 0.97,1.01 0.29,0.06 1.12,-0.12 1.41,-0.27 0.29,-0.15 1.33,-0.42 1.66,-0.24 0.34,0.17 1.28,0.02 1.35,-0.7l1.7 0.48 0.05 0.01c-0.27,0.37 0.42,0.58 1.53,0.47 1.11,-0.11 3.77,0.74 4.02,0.61l-0.01 -0.12 -0.04 -0.83c1.02,0.15 2.06,0.4 2.32,0.56 0.25,0.16 1.12,0.47 1.19,0.2 0.07,-0.27 0.83,-0.68 1.54,-0.35 0.7,0.32 3.58,-0.19 4.36,-0.2 0.78,-0.01 2.84,0.59 3,0.79 0.16,0.21 2.29,-0.18 2.57,-0.39 0.29,-0.21 1.82,-0.42 2.32,0.34l1.52 -0.24c1.6,-0.25 -0.99,-0.82 0.17,-0.91l1.18 -0.1c1.36,0.02 4.58,0.04 7.17,0.04l2.35 0c1.18,0 2.35,-0.03 3.53,0.01l0.98 0.03c1.05,0.11 2.71,-0.17 3.7,-0.62l1.06 0.82 0.63 0.49c0.09,-0.44 0.64,-1.07 1.22,-1.4l0.49 0.35 0.8 0.56c0.96,-0.17 2.35,-0.39 3.1,-0.5 0.75,-0.1 3.22,-0.39 3.81,-0.61 0.6,-0.23 2.79,0.41 3.57,0.44 0.77,0.03 3.06,0.25 3.45,0.12 0.4,-0.13 2,-0.42 3.04,-0.57l0.79 -0.27 1.48 -0.51c0.63,0.61 1.2,0.91 1.27,0.66 0.07,-0.25 0.98,-0.87 1.85,-0.67 0.86,0.2 3.77,0.7 4.65,0.7 0.88,0 3.99,-0.88 5.67,-0.9l1.4 0.04c1.43,0.05 2.76,-0.13 4.13,-0.1l0.94 0.02c0.76,-0.26 2.1,-0.33 2.97,-0.15l0.44 -0.15c1.37,-0.46 1.77,-0.25 1.92,0.52l0.01 0.07c0.76,0.02 2.51,-0.46 3.88,-1.06l2.06 0.91 0.21 0.09c0.23,0.1 0.43,-0.14 0.45,-0.54 0.02,-0.4 2.67,0.06 3.28,0.17 0.62,0.12 2.83,-0 3.48,-0.1 0.66,-0.1 2.7,-0.41 3.23,-0.33 0.53,0.08 2.58,-0.37 3.75,-0.29 1.16,0.08 4.6,-0.06 5.08,0.07 0.49,0.13 1.53,0.67 1.63,0.5 0.11,-0.17 0.74,-0.45 0.98,0.04l0.36 0.08 0.59 0.14c0.77,-0.06 2.5,-0.16 3.83,-0.22l0.78 -0.32 1.04 -0.43c0.76,0.25 1.66,0.46 1.99,0.46 0.33,0 1.23,-0.25 1.51,-0.35 0.29,-0.1 2.2,0.18 3.23,0.33 1.03,0.15 4,-0.38 4.26,-0.43 0.27,-0.05 1.61,0.93 1.7,0.65 0.09,-0.29 1.02,-0.94 1.93,-0.94l0.8 0.03 1.03 0.04c1.09,0.3 2.63,0.48 3.42,0.39 0.79,-0.09 3.24,-0.56 3.84,-0.63 0.6,-0.08 2.15,0.32 2.24,0.06 0.09,-0.27 0.54,-0.94 0.81,-0.93l0.13 0.07c1.04,0.56 1.92,1.22 3.69,0.54l0.51 -0.2c1,0.13 2.21,0.2 2.69,0.16 0.48,-0.04 1.94,0.27 2.26,0.29l0.28 -0.04 1.06 -0.14c1.16,-0.17 2.86,-0.25 3.78,-0.17l0.85 0.05 0.65 0.03c0.89,-0.45 1.85,-0.6 2.15,-0.34 0.3,0.26 1.26,0.58 1.69,0.34 0.44,-0.24 2.18,-0.74 2.63,-0.44 0.46,0.3 2.05,0.57 3.42,0.64l1.1 0.12 1.09 0.12c0.8,-0.21 2.11,-0.41 2.9,-0.45l0.7 -0.21 0.34 -0.1c0.51,0.06 2.24,-0.13 3.84,-0.42l1.57 0.7 0.83 0.37c1.58,-0.05 2.95,-0.4 3.04,-0.77 0.08,-0.37 2.03,-0.12 2.51,0.03 0.48,0.14 2.43,0.24 3.07,0.32 0.65,0.08 2.24,-0.43 2.37,-0.39 0.13,0.04 0.71,0.32 1.05,0.5 0.34,0.17 2.84,0.52 2.46,0.27 -0.38,-0.25 -0.3,-0.52 0.82,-0.19l1.22 -0.76c0.51,-0.32 2.25,-0.09 3.42,-0.04l0.86 0.03c0.66,0.36 1.36,0.68 1.56,0.7 0.2,0.02 1.83,0.04 3.44,0.14l1.1 -0.81 0.17 -0.13c1.55,0.36 2.67,0.46 2.49,0.21 -0.18,-0.24 -0.47,-0.86 -0.34,-0.95 0.13,-0.09 1.27,-0.23 2.3,-0.33 1.03,-0.1 3.9,0.5 4.37,0.34l0.22 0.07 1.01 0.31c1.21,-0.04 2.66,0.1 3.23,0.29 0.57,0.19 2.63,-0.92 3.93,-1.46l1.27 0.3 1.48 0.35c0.87,-0.46 1.7,-0.84 1.84,-0.85 0.14,-0.01 0.67,-0.1 1.07,-0.28 0.41,-0.18 2.12,0.32 2.56,0.47 0.45,0.15 2.2,0.46 1.85,-0 -0.35,-0.46 1.66,-0.07 2.04,-0.11 0.38,-0.04 1.86,0.05 2.42,0.32 0.57,0.27 2.72,0.23 2.57,0.11 -0.15,-0.12 1.73,-0.4 4.49,-0.35l1.02 0.42 1.89 0.79c0.17,-0.84 0.99,-1.1 1.84,-0.59l1.76 -0.35c1.85,-0.37 4.15,-0.21 6.23,0.34 0.78,0.21 1.91,0.64 3.28,0.13 0.62,-0.23 2.29,0.28 3.38,0.58 0.53,0.15 -1.33,0.49 -0.13,0.77 0.34,0.08 0.99,-0.35 1.45,-0.31 0.73,0.05 1.85,0.18 2.06,0.45l0.67 0.87c1.49,0.26 3.5,0.64 4.46,0.84 0.97,0.21 4.08,0.54 4.66,0.48 0.58,-0.06 2.36,0.27 2.78,0.18 0.41,-0.09 1.27,-0.17 1.18,0.23 -0.09,0.39 2.06,-0.17 2.43,-0.25 0.36,-0.08 1.87,-0 3.04,0 1.17,0.01 4.09,0.85 4.4,0.79 0.31,-0.06 1.35,-0.1 1.38,0.12 0.02,0.22 1.09,0.85 2.29,0.69 1.2,-0.16 4.88,0.74 6.29,0.98l0.44 1c0.22,0.49 2.32,0.56 2.72,1.52l0.18 0.44c1.35,0.33 2.68,0.65 2.95,0.72 0.27,0.07 0.77,0.53 0.49,0.89l0.02 0.01 1.19 0.32c-0.46,0.53 -0.81,1.37 -0.77,1.86l0.12 0.47 0.25 0.99c0.36,1.08 0.89,1.99 1.19,2.03l0.29 0.01 0.3 0.01c0.33,-0 0.63,0.09 0.65,0.19 0.03,0.11 -0.62,0.42 -1.26,0.61l-0.53 0.21c-0.12,0.05 -0.03,0.31 0.08,0.44 0.05,0.06 0.39,0.07 0.59,0.05 0.12,-0.01 0.2,-0.14 0.32,-0.16l0.69 -0.07c0.76,-0.06 1.35,0.02 1.32,0.18 -0.04,0.16 0.55,0.9 1.39,1.31l0.55 0.45 0.36 0.29c0.06,0.58 -0.71,0.84 -1.71,0.58 -1,-0.25 -3.41,-0.05 -2.59,1.17 0.82,1.22 0.99,4.54 0.18,4.69 -0.82,0.15 -3.04,0.66 -2.75,0.71 0.28,0.05 1.36,0.47 2.1,0.79l0.28 0.38c0.82,1.12 1.34,-0.59 2.18,-0.02l0.48 0.33c1.01,0.25 1.55,0.75 1.2,1.1 -0.35,0.35 0.67,2.2 0.88,3.07l-0.65 0.81c-0.71,0.87 0.6,2.35 2.26,2.44l1.41 0.08c1.57,0.18 2.24,0.35 1.49,0.38 -0.75,0.03 -2.88,0.36 -2.88,0.66 0,0.3 0.76,1.22 1.69,1.12l0.88 -0.08 0.49 -0.04c0.54,-0 1.4,0.06 1.92,0.14 0.52,0.08 3.13,-0.09 4.35,-0.07 1.23,0.02 2.69,1.85 2.54,2.01l-0.65 -0.06c-1.29,-0.11 -1.98,0.46 -1.48,1.06 0.34,0.41 0.65,0.93 1.27,1.15l1.35 0.46c0.08,0.8 0.43,1.27 0.78,1.05l0.34 -0.05c0.35,-0.05 0.93,-0.01 1.14,0.12 0.2,0.12 0.22,0.47 0.05,0.62 -0.59,0.49 -1.4,0.77 -2.57,0.68 -0.22,-0.02 -0.71,0.26 -0.73,0.41 -0.03,0.17 0.27,0.43 0.57,0.52l0.95 0.27c1.11,0.24 1.07,0.73 -0.08,1.1l-1.02 0.04 -0.82 0.03c-1.19,-0.4 -2.15,-0.18 -2.14,0.48l-0.18 0.44 -0.26 0.64c-1.13,0.19 -2.59,0.38 -3.24,0.42 -0.66,0.03 -0.49,1.41 -0.07,2.15 0.42,0.74 1.2,3.18 0.53,3.37 -0.68,0.19 -0.08,1.48 0.33,1.7 0.4,0.23 1.07,0.99 0.53,1.2l-0.67 0.16c-0.57,0.14 -1.27,-0.58 -1.9,0.06l-0.08 0.08c-0.56,-0.06 -1.6,-0.28 -2.3,-0.47 -0.7,-0.2 -3.46,0.15 -4.62,0.32 -1.16,0.17 -5.01,-0.55 -5.95,-0.81 -0.94,-0.26 -4.42,-0.11 -5.15,-0.2 -0.73,-0.09 -2.58,-0.73 -2.81,-0.46 -0.23,0.26 -0.7,1.18 -0.6,1.55 0.09,0.37 2.33,0.56 2.86,0.56l0.24 0.13c0.5,0.28 0.08,0.99 1.53,0.88l0.23 -0.02c0.39,0.51 1.27,0.57 1.95,0.12l0.15 1 0.03 0.2c0.86,0.18 2.32,0.31 3.25,0.29l0.17 0.61 0.14 0.5c0.22,0.57 0.01,0.88 -0.47,0.68 -0.48,-0.2 -2.25,-0.33 -2.53,-0.17 -0.29,0.16 -1.67,0.34 -2.41,0.04 -0.74,-0.3 -2.46,-1.23 -2.72,-1.02l0.07 0.1c0.41,0.66 1.4,1.34 1.23,1.93l-0.18 0.69c-1.17,0.78 -1.82,1.58 -1.45,1.78 0.37,0.2 1.96,0.15 2.57,-0.17l0.42 -0.38 0.27 -0.24c0.07,-0.35 0.24,-0.61 0.38,-0.58l0.06 0.05 0.87 0.75c1.05,-0.39 2.19,-0.62 2.51,-0.53 0.32,0.1 0.22,0.74 -0.98,1.23l0.77 0.78 0.32 0.33c0.85,-0.15 1.95,0.31 2.43,1.01 0.48,0.71 1.1,1.5 0.88,1.63 -0.23,0.12 -1.4,0.17 -2.09,-0.17l-0.64 -0.31 -0.08 -0.04c-0.36,0.02 -0.83,0.21 -1.05,0.44 -0.23,0.22 -0.48,0.97 0.11,1 0.59,0.03 2.35,0.34 1.82,0.56 -0.52,0.21 -1.84,1.06 -1.63,1.33 0.22,0.27 1.1,0.94 1.38,0.74l0.25 -0.04c0.84,-0.13 2.09,0.43 3.02,1.47l0.38 0.43c-0.53,0.49 -1.11,0.99 -1.27,1.09 -0.17,0.11 -0.22,0.55 0.28,0.74l0.46 0c1.21,0.01 1.59,0.24 1.08,0.86 -0.14,0.17 -0.47,0.44 -0.38,0.5l0.54 0.32c-0.16,0.37 -0.87,0.61 -1.56,0.53l-0.31 -0.51 -0.13 -0.2c-1.72,-0.09 -1.67,0.2 0.12,0.65l-0.7 0.91 -0.37 0.48c-0.28,0.56 -0.25,1.16 0.07,1.34 0.33,0.18 0.97,1.12 0.51,1.46 -0.46,0.35 -2.65,0.83 -2.68,1.16l0.21 0.23 0.42 0.43c0.35,0.56 0.34,0.84 -0.03,0.63 -0.37,-0.21 -1.82,-0.4 -2.24,-0.3 -0.42,0.1 -1.96,0.09 -2.49,0.01 -0.53,-0.08 -2.03,0.11 -1.76,0.24 0.26,0.13 1.24,0.67 1.67,0.85 0.43,0.18 1.81,-0.28 1.96,-0.29 0.16,-0.01 0.45,0.23 0.37,0.61 -0.08,0.38 2.14,-0.02 2.56,-0.07 0.42,-0.05 1.1,0.29 0.36,0.49 -0.74,0.21 -2.76,0.59 -2.92,0.39 -0.16,-0.2 -0.98,-0.48 -1.22,-0.45 -0.25,0.02 -1.23,1.15 -1.64,1.12 -0.41,-0.02 -1.72,0.42 -2.05,1.04l0.39 0.62c0.36,0.58 0.88,0.96 2.04,1.02l0.23 0.01c0.29,0.16 0.2,0.6 -0.19,0.96 -0.39,0.36 -2.27,1.07 -2.49,1.22 -0.22,0.16 -0.17,0.78 -0.45,0.82 -0.27,0.04 -0.51,0.41 -0.6,0.46 -0.09,0.05 0.1,0.35 0.56,0.61 0.46,0.25 1.44,1.35 1.38,1.99l-0.5 0.36c-1.37,0.98 -1.05,1.49 0.9,2.08l1.51 0.46c-0.97,0.67 -2.09,1.55 -2.47,1.95 -0.39,0.41 -1.57,0.92 -0.5,0.97l-0.14 0.91 -0.06 0.38c0.11,0.54 0.28,1.36 0.37,1.82l0.57 0.31 0.68 0.37c-0.22,0.45 -0.67,1.24 -0.99,1.76l0.68 0.54 1.69 1.32c-1.43,0.55 -2.64,1.03 -2.7,1.06 -0.06,0.03 0.97,1.3 2.69,2.6l1.26 1.29 0.36 0.37c-0.7,-0.12 -1.37,-0.22 -1.48,-0.23 -0.11,-0.01 -0.74,0.11 -1.14,0.28 -0.4,0.17 -1.86,0.6 -2.21,0.62 -0.34,0.02 -1.95,0.19 -2.71,0.43l-0.73 0.2 -0.89 0.24c-1.02,-0.1 -3.56,0.12 -5.64,0.49 -2.08,0.37 -8.81,0.64 -9.96,0.83l-1.07 0.09 -1.1 0.09c-1.16,0.17 -4.07,0.36 -6.46,0.4l-2.2 0.01 -1.13 0c-1.12,0.26 -2.69,0.9 -3.49,1.42l-1.03 -0.85c-0.14,-0.11 -1.95,0.27 -1.96,0.24 -0.54,-0.9 -1.62,0.66 -2.39,-0.18l-0.27 -0.29c-1.16,0.46 -2.56,0.75 -3.1,0.65l-0.11 0.06 -1.07 0.54c-1.38,-0.09 -2.96,-0 -3.51,0.18 -0.55,0.18 -2.8,-0.21 -3.35,-0.14 -0.56,0.06 -3.22,0.31 -4.64,0.31 -1.42,-0 -5.2,0.63 -5.58,0.43 -0.37,-0.21 -2.7,0.41 -3.77,0.63l-0.85 -0.13 -1.45 -0.22c-1.48,0.15 -3.4,0.31 -4.28,0.37 -0.87,0.06 -2.87,0.43 -3.03,0.27 -0.16,-0.16 -1.68,0.09 -2.5,0.49 -0.82,0.4 -4.14,-0.19 -4.89,0.02l-0.26 -0.11 -1.18 -0.5c-0.99,0.4 -2.88,0.64 -4.21,0.54l-1.07 0.18 -1.09 0.19c-1.02,-0.2 -2.87,-0.33 -4.11,-0.31l-1.14 0.1 -1.07 0.09c-1.14,0.22 -2.85,0.13 -3.79,-0.21l-1.26 0.39 -0.91 0.28c-1.35,-0.04 -3.92,0.08 -5.7,0.28l-1.8 -0.3 -1.19 -0.2c-1.61,0.28 -3.34,0.55 -3.84,0.6 -0.51,0.05 -2.2,-0.27 -2.68,-0.13 -0.48,0.14 -2.16,0.09 -3.28,0.07 -1.12,-0.02 -4,0.36 -4.11,0.21 -0.11,-0.16 -0.42,-0.17 -0.45,0.29 -0.04,0.46 -2.3,-0.38 -2.76,-0.4 -0.47,-0.01 -2.52,0.05 -3.49,0.13 -0.97,0.08 -3.58,-0.15 -4.28,-0.06 -0.7,0.09 -3.23,-0.15 -4.14,-0.24 -0.91,-0.08 -4.15,0.04 -5.12,-0.08 -0.97,-0.12 -3.54,0.71 -3.97,0.74 -0.44,0.03 -1.8,-0.21 -2.33,-0.18 -0.52,0.03 -2.07,-0.04 -3.22,-0.09 -1.15,-0.06 -4.49,-0.24 -4.9,-0.24 -0.41,-0 -1.43,0.24 -1.76,-0.05 -0.33,-0.29 -3.09,0.04 -3.98,0.11 -0.9,0.07 -4.14,0.23 -5.38,0.64l-1.53 -0.63 -1.11 -0.46c-1.84,-0.03 -4.64,0.16 -6.22,0.42l-1.6 -0.4 -0.24 -0.06c-0.7,0.48 -1.97,0.57 -2.81,0.22 -0.85,-0.35 -5,0.31 -6.84,0.43 -1.83,0.12 -6.74,-0.63 -7.01,-0.67 -0.26,-0.04 -2.06,0.17 -3.75,0.32l-1.59 -0.34 -0.93 -0.2c-0.54,0.66 -1.58,0.99 -2.3,0.74 -0.72,-0.25 -2.72,-0.61 -3.17,-0.36 -0.45,0.25 -2.22,0.84 -2.6,0.57 -0.38,-0.27 -2.31,-0.65 -3.86,-0.56l-1.07 0.29c-1.21,0.33 -2.31,0.26 -3.24,-0.06l-1.05 -0.36c-0.82,0.31 -1.88,0.46 -2.36,0.35 -0.47,-0.11 -2.18,-0.37 -2.67,-0.43 -0.49,-0.06 -2.12,0.2 -2.69,0.43 -0.57,0.23 -2.44,-0 -2.95,0.09 -0.5,0.1 -2.52,-0.03 -3.15,-0.04 -0.62,-0.01 -2.32,-0.23 -2.37,-0.47 -0.05,-0.25 -0.4,-0.94 -0.64,-0.85 -0.24,0.09 -0.9,0.11 -1.06,-0.11 -0.16,-0.22 -1.19,-0.38 -1.71,-0.24l-0.28 0.4c-0.23,0.33 -1.35,0.45 -2.01,0.71 -1.9,0.74 -1.95,0.75 -3.95,-0.13l-0.32 -0.14c-0.45,-0.15 -1.15,-0.09 -1.57,0.11 -0.42,0.2 -2.19,0.6 -2.77,0.31 -0.58,-0.29 -2.31,-0.91 -2.39,-0.65 -0.09,0.26 -1.02,1 -1.89,1.06 -0.87,0.06 -5.35,-0.2 -8.27,0.17l-2.83 -0.61 -0.88 -0.19c-1.49,0.53 -2.95,0.75 -3.24,0.48 -0.29,-0.27 -1.64,0.24 -1.8,0.33 -0.15,0.09 -1.49,0.12 -2.83,0.1 -1.35,-0.01 -5.19,-0.42 -5.7,-0.5 -0.51,-0.07 -2.41,0.37 -3.03,0.61 -0.62,0.23 -3.7,0.15 -4.98,0.72l-1.5 -0.79 -0.89 -0.47c-1.05,0.2 -2.43,0.18 -3.05,-0.03 -0.62,-0.21 -2.47,0.66 -3.14,0.72 -0.66,0.06 -2.66,-0.33 -2.73,-0.57 -0.07,-0.24 -1.01,-0.71 -1.86,-0.26l-0.62 0.39 -0.72 0.44c-0.82,-0.19 -1.8,-0.26 -2.18,-0.14 -0.38,0.12 -1.61,0.3 -1.68,0.05 -0.07,-0.25 -0.43,-0.34 -0.66,0.35l-1.46 -0.37 -0.76 -0.19c-0.64,0.12 -1.55,0.25 -2.01,0.3 -0.46,0.05 -2.19,-0.38 -2.75,-0.31 -0.56,0.08 -2.51,-0.01 -3.12,-0.25 -0.6,-0.23 -2.76,-0.1 -3.72,-0.27l-0.84 -0.1c-0.36,-0.05 -1.12,0.29 -1.19,0.24 -0.72,-0.53 -1.06,-0.07 -1.64,0.08 -0.27,0.07 -0.88,-0.3 -1.37,-0.42 -0.09,-0.02 -0.53,0.22 -0.54,0.34l-0 0.11c0.32,0.13 0.48,0.29 0.36,0.36 -0.12,0.07 -0.73,0.03 -1.16,-0.08 -0.42,-0.1 -2.22,-0.02 -3.04,0.18l-0.74 -0c-1.16,-0 -2.76,-0.49 -3.38,-0.22l-1.19 0.52c-0.96,-0.31 -2.17,-0.53 -2.69,-0.5 -0.52,0.04 -2.22,0.42 -2.68,0.63 -0.45,0.21 -0.88,-0.73 -0.95,-0.78 -0.08,-0.05 -1.15,-0.01 -2.38,0.07 -1.23,0.08 -5.18,0.33 -6.08,0.39 -0.89,0.05 -3.39,-1.33 -3.72,-1.13 -0.32,0.2 -1.1,1.17 -2.47,1.26 -1.37,0.1 -6.58,-0.91 -8.79,-1.3l-1.94 1.03 -0.53 0.28c-1.34,-0.16 -2.72,-0.39 -3.07,-0.51 -0.35,-0.12 -1.78,0.08 -2.36,-0.1 -0.59,-0.19 -2.54,0.3 -2.84,0.33 -0.31,0.03 -2.03,-0.04 -3.12,-0.13 -1.1,-0.09 -5.58,0.15 -7.57,0.4l-1.67 -0.72c-0.04,-0.02 -4.06,0.56 -4.11,0.59 -0.21,0.11 -0.39,0.3 -0.63,0.33l-1.02 0.13c-0.94,-0.29 -1.64,-0.74 -1.55,-0.99 0.08,-0.25 -0.21,-0.97 -0.59,-0.97 -0.39,0 -1.21,0.19 -0.91,0.43l0.04 0.25 0.05 0.32c-0.02,0.48 -0.86,0.76 -1.87,0.62l-0.88 -0.01 -0.7 -0.01c-0.74,0.13 -2.21,0.27 -3.26,0.33 -1.05,0.05 -4.13,-0.33 -4.74,-0.17 -0.62,0.16 -2.67,-0.19 -3.26,-0 -0.58,0.19 -2.55,-0.14 -2.86,-0.04l-0.33 0.03c-1.53,0.13 -2.92,0.11 -4.52,-0.2l-1.39 -0.27c-1.96,0.02 -4.07,0.04 -4.68,0.03 -0.61,-0.01 -1.23,-0.86 -1.99,-0.3l-0.41 0.31 -0.22 0.17c-0.22,0.2 -1.26,0.49 -2.31,0.64 -1.06,0.15 -4.22,-0.6 -4.75,-0.66 -0.53,-0.07 -1.6,0 -1.95,-0.11 -0.36,-0.1 -1.84,0.02 -2.3,0.06 -0.45,0.04 -2.45,0.11 -3.44,0.04 -0.99,-0.07 -3.57,-0.49 -3.62,-0.6 -0.05,-0.11 -0.61,0.13 -1.16,0.78l-1.69 -0.56c-0.47,-0.15 -1.73,0.6 -2.69,0.67l-0.84 0.07c-0.99,-0.25 -2.56,0.01 -3.48,0.57l-1.41 -0.67 -0.8 -0.38c-1.32,-0.33 -2.6,-0.41 -2.84,-0.18 -0.24,0.22 -1.39,0.79 -1.74,0.51 -0.35,-0.28 -1.67,-0.55 -2.32,-0.13l-0.61 0.19c-0.35,0.11 -1.41,-0.03 -1.41,-0.09l-0.15 -1.08c-1.7,-0.31 -3.17,-0.28 -3.28,0.06 -0.11,0.34 -1.06,0.96 -1.96,0.86l-0.73 0.12c-0.56,0.09 -0.94,0.4 -1.01,-0.16 -0.07,-0.59 -0.85,-0.72 -1.41,-0.46 -1.57,0.75 -3.36,0.24 -5.01,0.4l-1.15 0.11c-1.27,0.11 -2.49,0.21 -2.71,0.22l-0.2 -0.02 -1.37 -0.14c-1.88,-0.2 -2.91,-0.48 -2.29,-0.61 0.62,-0.14 -0.64,-0.85 -0.75,-1.08 -0.11,-0.23 -0.86,-0.46 -0.91,0.03 -0.05,0.49 -0.68,1.7 -1.3,1.51l-0.41 -0.21 -0.49 -0.25c-0.49,-0.49 -1.58,-0.65 -2.44,-0.35 -0.86,0.3 -3.25,0.54 -3.56,0.16 -0.31,-0.37 -1.74,-1.04 -2.4,-0.55l-0.01 0.39 -0.02 1.17c-1.11,0.04 -2.93,-0.06 -4.02,-0.23 -1.09,-0.17 -4.27,0.1 -4.49,0.05 -0.22,-0.06 -1.31,-0.27 -1.89,-0.4 -0.58,-0.12 -3.13,-0.02 -4.36,0.25l-0.8 -0.18 -0.79 -0.17c-0.5,-0.68 -1.47,-1.06 -2.15,-0.85 -0.69,0.2 -2.22,0.88 -2.15,1.06l-0.03 0.17 -0.02 0.15c-0.15,0.16 -0.46,0.26 -0.69,0.22 -0.23,-0.03 -1.09,-0.47 -1.57,-0.79 -0.48,-0.32 -2.51,0.36 -2.83,0.38 -0.31,0.02 -1.68,-0.12 -2.33,-0.23l-0.07 -0.17 -0.24 -0.58c0.87,0 2.21,-0.04 2.98,-0.1 0.76,-0.05 1.11,-1.23 0.36,-1.32 -0.75,-0.08 -2.96,-0.01 -2.96,0.37l-0.32 0.35c-0.39,0.44 -1.05,1.1 -1.66,1.12 -1.67,0.06 -0.35,-0.9 -1.05,-1.26l-0.1 -0.05c-0.16,-0.06 -0.85,0.31 -1.52,0.83 -0.67,0.52 -4.21,0.5 -5.31,0.54 -1.1,0.04 -2.3,-1.2 -2.63,-0.74 -0.33,0.47 2.04,0.81 2.18,0.88 0.14,0.08 0.22,0.5 -0.15,0.75l-0.39 0.03 -0.49 0.04c-0.59,-0.15 -1.84,-0.7 -2.78,-1.23l-0.23 -1.87c-0.04,-0.25 -1.19,-0.7 -1.25,-0.68 -2.83,1.28 -1.88,-0.26 -2.19,-0.86l-0.03 -0.07c-0.3,-0.14 -0.6,0.1 -0.66,0.55 -0.07,0.44 -0.74,1.26 -1.38,0.9 -0.63,-0.36 -1.61,1.24 -1.82,1.55 -0.21,0.31 -1.2,1.25 -1.6,1.29 -0.39,0.04 -2.57,-0.04 -4.22,0.02l-1.49 0.05 -0.32 0.01c-0.34,0.09 -0.63,0.03 -0.64,-0.15 -0.01,-0.17 0.05,-0.58 0.02,-0.9 -0.02,-0.32 1.16,-1 1.83,-0.95l0.53 0.08 0.49 0.07c0.44,0.23 1.41,0.52 2.17,0.65l0.74 0.06c0.35,0.02 0.99,-0.09 1.09,-0.22l0.4 -0.55c0.34,-0.62 1.2,-1.14 1.9,-1.15l0.22 -0.19c0.51,-0.42 0.5,-1.09 1.12,-1.4l1.17 -0.61c-0.67,-0.52 -1.57,-0.99 -1.99,-1.04 -0.42,-0.05 -1.73,0.31 -1.73,0.96 0,0.65 -0.86,2.32 -1.82,2.34l-0.58 0.45c-0.72,0.55 -1.41,0.61 -2.48,0.11l-0.55 -0.25z"/>
 </g>
</svg>
