<svg width="58" height="48" viewBox="0 0 58 48" fill="none" xmlns="http://www.w3.org/2000/svg">
<g filter="url(#filter0_d)">
<path d="M53.9966 37.9944L53.963 37.2429C53.9458 36.8589 53.6114 36.5617 53.221 36.5782C52.8284 36.595 52.5241 36.9198 52.5413 37.3038L52.5752 38.0614C52.5755 38.066 52.5757 38.0706 52.576 38.0751C52.5852 38.2152 52.5362 38.3486 52.4381 38.4508C52.3407 38.5524 52.2086 38.6084 52.0664 38.6084H47.9035V25.7627L48.9768 26.1336C50.8263 26.7729 52.1026 28.4237 52.23 30.3408L52.348 32.9802C52.3652 33.3641 52.6968 33.6625 53.0899 33.6449C53.4825 33.6281 53.7868 33.3033 53.7697 32.9194L53.6514 30.273C53.6511 30.2684 53.6509 30.2639 53.6506 30.2593C53.4894 27.782 51.8409 25.6475 49.4509 24.8216L47.4636 24.1347C47.4519 24.1299 47.441 24.1238 47.429 24.1197L41.4939 22.0682C41.4929 22.0678 41.4918 22.0674 41.4908 22.0671C41.4688 22.0597 41.4469 22.0534 41.4246 22.0477C41.4134 22.0448 41.4021 22.0429 41.3908 22.0405C40.9981 21.941 40.5725 22.0516 40.283 22.3351L40.0995 22.5149L38.5334 21.746L38.5332 20.4034C39.0064 20.0848 39.4521 19.7047 39.8568 19.2807C39.8616 19.2756 39.8664 19.2707 39.8712 19.2656C40.8932 18.1892 41.6475 16.8342 41.9041 15.4879C41.9109 15.4524 41.9177 15.4167 41.9238 15.3812C41.9302 15.3443 41.9361 15.3076 41.9417 15.2708C41.9511 15.2093 41.9593 15.1479 41.9665 15.0866C41.9683 15.0719 41.9705 15.0571 41.9721 15.0423C41.9793 14.9757 41.9855 14.9091 41.99 14.8428H42.2854C43.2025 14.8428 43.9487 14.1131 43.9487 13.216V11.3927C43.9487 11.3065 43.941 11.221 43.9273 11.1366C44.0321 10.9502 44.0925 10.7361 44.0925 10.5079V9.7305C44.0925 9.13941 43.6908 8.63962 43.1438 8.48508V8.37535C43.1438 8.30897 43.1429 8.24268 43.1412 8.17678C43.0931 6.32117 42.3481 4.56335 41.0437 3.2273C39.8537 2.00852 38.2972 1.23701 36.6208 1.02642C36.5952 0.981531 36.5675 0.938171 36.5387 0.895575C36.5312 0.884687 36.5234 0.874181 36.5158 0.863388C36.4867 0.822129 36.456 0.782112 36.424 0.743335C36.4184 0.736554 36.413 0.729582 36.4073 0.722897C36.3677 0.676194 36.3261 0.631305 36.2823 0.588422C36.2809 0.586989 36.2793 0.585652 36.2777 0.584124C36.2351 0.542674 36.1906 0.503325 36.1445 0.465695C36.1393 0.461492 36.1343 0.457195 36.1291 0.452992C36.0342 0.376968 35.9323 0.309636 35.8248 0.25128C35.8151 0.246028 35.8056 0.240774 35.7958 0.235617C35.7424 0.207729 35.688 0.18156 35.632 0.158352C35.6292 0.157206 35.6262 0.15625 35.6232 0.155009C35.5716 0.133806 35.5186 0.115278 35.465 0.0982772C35.4505 0.0935973 35.4358 0.0891086 35.4212 0.0848108C35.3642 0.0681924 35.3068 0.0530067 35.2481 0.0411637C35.2448 0.0404952 35.2415 0.0401133 35.2382 0.0395403C35.182 0.0284614 35.125 0.0204386 35.0674 0.0139441C35.0516 0.0121295 35.0357 0.0106014 35.0198 0.00916879C34.9585 0.00372486 34.8968 0 34.8343 0H34.1627C34.1002 0 34.0385 0.00372486 33.9771 0.00916879C33.9611 0.0106014 33.9453 0.012225 33.9295 0.0139441C33.8721 0.0203431 33.8151 0.0284614 33.7591 0.0394448C33.7557 0.0401134 33.7522 0.0404952 33.7488 0.0411637C33.6902 0.0530067 33.6327 0.068097 33.5759 0.0847153C33.5611 0.0890131 33.5465 0.0935973 33.5318 0.0982772C33.4783 0.115278 33.4255 0.133806 33.3738 0.154913C33.3709 0.156155 33.3678 0.15711 33.3648 0.158352C33.3089 0.18156 33.2546 0.207729 33.2012 0.235522C33.1913 0.240679 33.1815 0.246028 33.1718 0.25128C33.1196 0.279551 33.0684 0.30954 33.019 0.342108C33.0189 0.342204 33.0187 0.342299 33.0186 0.342395C32.9665 0.376777 32.9164 0.41393 32.8677 0.452897C32.8624 0.457099 32.8572 0.461493 32.852 0.465791C32.806 0.503325 32.7616 0.542579 32.7191 0.583933C32.7176 0.585462 32.7159 0.586894 32.7143 0.588422C32.6707 0.631209 32.6291 0.676098 32.5895 0.722706C32.5838 0.729487 32.5783 0.736459 32.5726 0.743335C32.5406 0.782016 32.51 0.822034 32.4809 0.863198C32.4733 0.87399 32.4654 0.884495 32.458 0.895479C32.4292 0.93798 32.4014 0.981436 32.3759 1.02632C30.6996 1.23692 29.1429 2.00852 27.9531 3.2271C27.3175 3.87818 26.8159 4.62982 26.4618 5.44364L22.3404 1.66775C21.4945 0.892805 20.171 0.894524 19.3274 1.67186L14.8567 5.79072L14.8559 5.30917C14.8555 5.03315 14.7453 4.77385 14.5454 4.57901C14.3458 4.38447 14.0811 4.2774 13.7995 4.2774C13.799 4.2774 13.7984 4.2774 13.7979 4.2774L10.4463 4.28199C9.8639 4.28285 9.39056 4.74692 9.39125 5.31681L9.40042 10.8176L4.69153 15.1559C4.2637 15.5501 4.01848 16.0835 4.001 16.658C3.98352 17.2326 4.19582 17.7794 4.59875 18.1976C5.00169 18.616 5.5471 18.8559 6.1346 18.8731C6.15716 18.8737 6.17952 18.874 6.20188 18.874C6.76468 18.874 7.29759 18.6674 7.70892 18.2884L9.30355 16.8192L9.31048 21.6978C9.31107 22.0817 9.62943 22.3926 10.022 22.3926C10.0223 22.3926 10.0227 22.3926 10.023 22.3926C10.416 22.392 10.7341 22.0801 10.7335 21.6958L10.7246 15.51L20.8401 6.19042L24.904 9.91369V10.5078C24.904 10.5481 24.9064 10.5881 24.9101 10.6277C24.9108 10.6351 24.9114 10.6424 24.9123 10.6498C24.9312 10.8237 24.9843 10.9895 25.0688 11.1389C25.0553 11.2224 25.0478 11.3071 25.0478 11.3926V13.216C25.0478 14.113 25.794 14.8427 26.7113 14.8427H27.0056C27.0102 14.9115 27.0165 14.9805 27.0239 15.0497C27.0259 15.0692 27.0288 15.0888 27.0311 15.1082C27.038 15.1656 27.0456 15.2231 27.0543 15.2808C27.0594 15.3154 27.0649 15.3501 27.0708 15.3846C27.0778 15.4258 27.0857 15.4672 27.0936 15.5084C27.11 15.5939 27.1285 15.6795 27.1489 15.765C27.1526 15.7806 27.156 15.7963 27.1599 15.8119C27.1741 15.8693 27.1894 15.9267 27.2053 15.984C27.2086 15.9954 27.2118 16.007 27.2151 16.0184C27.3418 16.4654 27.5201 16.9092 27.742 17.3397C27.7443 17.3443 27.7467 17.3489 27.7491 17.3534C27.8378 17.5248 27.9333 17.6937 28.0352 17.86C28.0487 17.882 28.062 17.9039 28.0757 17.9258C28.1032 17.9698 28.1311 18.0137 28.1595 18.0572C28.181 18.0902 28.2029 18.1229 28.2249 18.1556C28.2496 18.1924 28.274 18.2293 28.2993 18.2658C28.3444 18.3309 28.3907 18.3952 28.4378 18.4592C28.4579 18.4865 28.4785 18.5134 28.4989 18.5405C28.534 18.587 28.5695 18.6332 28.6056 18.6791C28.6254 18.7041 28.645 18.7291 28.6649 18.7539C28.714 18.8149 28.764 18.8754 28.8149 18.9352C28.8222 18.9438 28.8293 18.9525 28.8366 18.961C28.8926 19.0263 28.9498 19.0903 29.0078 19.1539C29.0282 19.1764 29.0489 19.1985 29.0695 19.2206C29.1103 19.2644 29.1516 19.3079 29.1934 19.3509C29.2166 19.3747 29.2395 19.3985 29.2629 19.422C29.3131 19.4725 29.3639 19.5222 29.4153 19.5714C29.4523 19.6068 29.4899 19.6415 29.5276 19.6762C29.5592 19.7052 29.5907 19.7343 29.6227 19.7629C29.6615 19.7976 29.7007 19.8316 29.74 19.8654C29.7609 19.8833 29.782 19.9011 29.8031 19.9188C30.0159 20.098 30.2363 20.2649 30.4632 20.4177L30.463 21.7457L28.8973 22.5148L28.7135 22.3347C28.5376 22.1623 28.3113 22.0538 28.0727 22.0175C28.0463 22.0134 28.0196 22.0103 27.9928 22.008C27.9661 22.0058 27.9392 22.0044 27.9123 22.004C27.8854 22.0036 27.8584 22.0041 27.8315 22.0055C27.7577 22.0094 27.684 22.0208 27.6112 22.0388C27.5973 22.0417 27.5834 22.0444 27.5695 22.048C27.5478 22.0536 27.5218 22.0611 27.5027 22.0678L24.8311 22.9912L24.8241 18.0417C24.8232 17.4035 24.2921 16.8851 23.6398 16.8851C23.6392 16.8851 23.6387 16.8851 23.6381 16.8851L18.0727 16.8927C17.7564 16.8932 17.4591 17.014 17.2358 17.2331C17.0125 17.4521 16.8896 17.7432 16.8901 18.0526L16.9023 26.57C16.9013 26.5712 16.9003 26.5723 16.8993 26.5734C16.88 26.5948 16.8618 26.617 16.8428 26.6387C16.8125 26.6734 16.7821 26.7078 16.7526 26.7433C16.734 26.7655 16.7164 26.7884 16.6982 26.811C16.6694 26.8465 16.6404 26.8818 16.6125 26.918C16.5946 26.9412 16.5776 26.9649 16.56 26.9883C16.5328 27.0246 16.5051 27.0607 16.4787 27.0977C16.4616 27.1215 16.4455 27.1459 16.4288 27.1699C16.4029 27.207 16.3767 27.2441 16.3516 27.2818C16.3353 27.3064 16.3199 27.3316 16.304 27.3564C16.2795 27.3943 16.2548 27.4322 16.2313 27.4706C16.216 27.4957 16.2016 27.5213 16.1866 27.5465C16.1635 27.5854 16.1401 27.6242 16.1178 27.6637C16.1032 27.6897 16.0894 27.7163 16.0751 27.7427C16.0539 27.7819 16.0322 27.8209 16.0117 27.8606C15.9973 27.8884 15.984 27.9167 15.9701 27.9447C15.9507 27.9835 15.9311 28.0222 15.9125 28.0616C15.899 28.0903 15.8865 28.1195 15.8734 28.1486C15.8557 28.1878 15.8376 28.2268 15.8208 28.2664C15.8081 28.2962 15.7963 28.3266 15.7841 28.3567C15.7681 28.3959 15.7517 28.435 15.7366 28.4746C15.7247 28.5058 15.7138 28.5373 15.7024 28.5686C15.6881 28.6079 15.6734 28.6469 15.6598 28.6865C15.6489 28.7185 15.639 28.7509 15.6287 28.7831C15.616 28.8225 15.6028 28.8616 15.5909 28.9014C15.581 28.9343 15.5722 28.9676 15.5628 29.0008C15.5517 29.0403 15.5401 29.0797 15.5297 29.1195C15.521 29.1529 15.5134 29.1868 15.5053 29.2205C15.4957 29.2605 15.4855 29.3003 15.4766 29.3405C15.469 29.3751 15.4625 29.41 15.4555 29.4448C15.4475 29.4845 15.439 29.5241 15.4317 29.564C15.4251 29.6001 15.4198 29.6365 15.4139 29.6727C15.4076 29.7117 15.4006 29.7507 15.3951 29.79C15.3897 29.8272 15.3856 29.8647 15.381 29.9021C15.3762 29.9409 15.3708 29.9794 15.3667 30.0184C15.3627 30.0563 15.36 30.0945 15.3568 30.1326C15.3538 30.1682 15.3499 30.2036 15.3475 30.2392L10.7748 30.2454C10.7588 30.2454 10.7458 30.2327 10.7458 30.2171L10.7399 26.0195C10.7393 25.6355 10.4209 25.3246 10.0284 25.3246C10.0281 25.3246 10.0277 25.3246 10.0274 25.3246C9.63441 25.3252 9.31625 25.6371 9.31683 26.0214L9.32279 30.2191C9.32396 31.0015 9.97513 31.6372 10.7748 31.6372C10.7755 31.6372 10.7762 31.6372 10.7768 31.6372L15.2847 31.6311L15.0001 37.9944C14.9686 38.512 15.1582 39.0251 15.5209 39.4031C15.8849 39.7824 16.3987 40 16.9303 40H52.0664C52.5981 40 53.1117 39.7824 53.4757 39.4031C53.8385 39.0251 54.0282 38.512 53.9966 37.9944ZM42.5257 13.216C42.5257 13.3456 42.4179 13.451 42.2854 13.451H42.0012V11.8025H42.5257V13.216ZM33.5566 1.858C33.5573 1.85552 33.5585 1.85323 33.5592 1.85075C33.5853 1.75084 33.636 1.66221 33.7036 1.59001C33.7053 1.5882 33.7069 1.58638 33.7086 1.58466C33.73 1.56231 33.7531 1.54168 33.7776 1.52277C33.7805 1.52058 33.7835 1.51847 33.7864 1.51637C33.836 1.47951 33.8912 1.45009 33.9504 1.42898C33.9549 1.42736 33.9593 1.42564 33.9638 1.42421C33.9922 1.41485 34.0215 1.40749 34.0515 1.40215C34.0568 1.40119 34.0623 1.40052 34.0677 1.39976C34.0988 1.39508 34.1304 1.39193 34.1626 1.39193H34.8342C34.8664 1.39193 34.898 1.39508 34.9291 1.39976C34.9345 1.40052 34.9399 1.40119 34.9453 1.40215C34.9752 1.40749 35.0045 1.41475 35.0329 1.42421C35.0375 1.42574 35.042 1.42746 35.0466 1.42908C35.1056 1.45009 35.1606 1.47951 35.2101 1.51628C35.2132 1.51847 35.2163 1.52067 35.2192 1.52287C35.2436 1.54168 35.2666 1.56222 35.288 1.58447C35.2898 1.58638 35.2915 1.58829 35.2933 1.5902C35.3607 1.6624 35.4113 1.75084 35.4375 1.85065C35.4382 1.85313 35.4393 1.85533 35.44 1.85781C35.4517 1.90423 35.4585 1.95256 35.4585 2.00241V4.35046C35.4585 4.68713 35.1784 4.96105 34.8343 4.96105H34.1627C33.8184 4.96105 33.5384 4.68713 33.5384 4.35046V2.00241C33.5384 1.95256 33.5451 1.90442 33.5566 1.858ZM13.4334 5.66952L13.4358 7.09965L10.8212 9.50854L10.8149 5.67315L13.4334 5.66952ZM25.9843 6.99373C25.9708 7.06517 25.9575 7.13661 25.946 7.20862C25.9395 7.24893 25.9342 7.28923 25.9285 7.32963C25.9191 7.39525 25.9095 7.46076 25.9019 7.52676C25.8955 7.58206 25.891 7.63745 25.8858 7.69285C25.881 7.7449 25.8753 7.79666 25.8716 7.84891C25.8637 7.95817 25.8582 8.06743 25.8553 8.17678C25.8536 8.24278 25.8527 8.30906 25.8527 8.37544V8.48508C25.8512 8.48547 25.85 8.48613 25.8485 8.48652C25.8052 8.49893 25.7633 8.51412 25.7219 8.53064C25.7086 8.53599 25.6954 8.54153 25.6822 8.54726C25.6458 8.5633 25.61 8.58059 25.5755 8.59979C25.5704 8.60265 25.5648 8.60466 25.5597 8.60752L21.3252 4.72791C21.0509 4.47682 20.6243 4.4772 20.3508 4.72925L6.73313 17.2755C6.58206 17.4148 6.38567 17.4889 6.17698 17.4821C5.96946 17.476 5.77688 17.3913 5.6345 17.2435C5.49212 17.0958 5.41712 16.9026 5.42327 16.6997C5.42952 16.4967 5.51614 16.3083 5.66721 16.1691L20.3031 2.68481C20.4524 2.54728 20.6442 2.47842 20.836 2.47842C21.0271 2.47842 21.2183 2.54671 21.3674 2.68338L25.9967 6.92449C25.9921 6.9476 25.9887 6.97072 25.9843 6.99373ZM26.7113 13.4511C26.5787 13.4511 26.4709 13.3457 26.4709 13.216V11.8026H26.9953V13.4511H26.7113ZM26.3271 10.1944V9.82744H26.5643C26.9573 9.82744 27.2759 9.5159 27.2759 9.13157V8.37525C27.2759 8.32071 27.2765 8.26637 27.278 8.21203C27.2807 8.10601 27.287 7.99991 27.2955 7.89389C27.2976 7.86686 27.3008 7.84003 27.3033 7.813C27.3109 7.73134 27.3198 7.64977 27.3308 7.56831C27.3344 7.54175 27.3384 7.5153 27.3424 7.48875C27.3552 7.4026 27.3698 7.31674 27.3864 7.23116C27.3901 7.21197 27.3936 7.19277 27.3974 7.17357C27.4188 7.06871 27.4426 6.96422 27.4695 6.8604C27.4696 6.85983 27.4697 6.85926 27.4698 6.85868C27.73 5.86168 28.2462 4.94194 28.9821 4.1881C29.8398 3.30962 30.9311 2.71872 32.1151 2.47938V4.35008C32.1151 5.45415 33.0336 6.3523 34.1625 6.3523H34.8341C35.963 6.3523 36.8813 5.45405 36.8813 4.35008V2.47957C38.0652 2.71891 39.1567 3.30981 40.0145 4.18829C41.0742 5.27374 41.6795 6.70272 41.7187 8.21212C41.72 8.26637 41.7207 8.32071 41.7207 8.37525V9.13157C41.7207 9.5159 42.0393 9.82744 42.4322 9.82744H42.6695V10.1944H26.3271ZM28.4453 14.9578C28.444 14.9471 28.4428 14.9364 28.4416 14.9256C28.4351 14.8673 28.4301 14.8092 28.4262 14.7513C28.4257 14.7421 28.4249 14.7328 28.4243 14.7235C28.4205 14.6568 28.4183 14.5903 28.4183 14.5243V11.8026H40.5781V14.5098C40.5781 14.5765 40.576 14.6437 40.5721 14.7111C40.5716 14.7189 40.5709 14.7266 40.5704 14.7343C40.5666 14.7935 40.5614 14.853 40.5548 14.9127C40.5536 14.9232 40.5524 14.9338 40.5512 14.9443C40.5434 15.0097 40.5342 15.0753 40.523 15.1412C40.523 15.1416 40.523 15.1419 40.5229 15.1422C40.2706 16.6307 39.1815 18.2196 37.8468 19.1719C37.8372 19.1787 37.8276 19.1857 37.8181 19.1923C37.7758 19.2221 37.733 19.2507 37.6902 19.2792C37.6667 19.2947 37.6435 19.3109 37.6198 19.3261C37.6073 19.3341 37.5947 19.3415 37.5821 19.3495C37.5388 19.3769 37.4953 19.4042 37.4514 19.4303C37.4491 19.4317 37.4472 19.4334 37.4449 19.4347C37.0482 19.6706 36.636 19.8478 36.2224 19.9485L36.1479 19.9666C34.6302 20.3358 34.2817 20.3349 32.7584 19.9593C32.3486 19.8582 31.9403 19.6818 31.5472 19.4474C31.5464 19.4469 31.5456 19.4462 31.5447 19.4457C31.529 19.4364 31.5137 19.4263 31.4979 19.4168C31.4514 19.3884 31.4051 19.3599 31.3591 19.33C31.3476 19.3226 31.3364 19.3148 31.3251 19.3073C29.8517 18.333 28.6374 16.5648 28.4453 14.9578ZM31.1614 22.9603C31.5977 22.7983 31.8861 22.3936 31.8861 21.9318L31.8862 21.1499C32.0597 21.2121 32.2347 21.2653 32.4106 21.3088C33.2847 21.5243 33.8735 21.6318 34.4633 21.6318C35.0463 21.6318 35.6303 21.5267 36.4916 21.3173L36.566 21.2991C36.7487 21.2547 36.9303 21.1994 37.1103 21.1348L37.1104 21.9318C37.1104 22.3937 37.3987 22.7985 37.8352 22.9604L38.9753 23.5202C38.9616 23.5304 38.9482 23.5412 38.9346 23.5513C38.9032 23.5743 38.8714 23.5966 38.8396 23.6191C38.7798 23.6616 38.7195 23.7034 38.6585 23.7439C38.6244 23.7667 38.5902 23.789 38.5558 23.8112C38.4936 23.8511 38.4307 23.8899 38.3673 23.9279C38.335 23.9473 38.3028 23.9671 38.2703 23.986C38.1929 24.0309 38.1144 24.074 38.0353 24.116C38.0167 24.126 37.9984 24.1366 37.9797 24.1463C37.8817 24.1973 37.7825 24.2459 37.6822 24.2925C37.6554 24.3051 37.628 24.3164 37.601 24.3286C37.5269 24.362 37.4524 24.3945 37.3773 24.4254C37.3412 24.4403 37.3047 24.4543 37.2683 24.4687C37.2002 24.4953 37.1318 24.5211 37.063 24.5458C37.025 24.5595 36.9869 24.5729 36.9486 24.5859C36.8771 24.6102 36.8052 24.6331 36.7329 24.6553C36.6983 24.6659 36.6639 24.677 36.6291 24.6871C36.5339 24.7148 36.438 24.7406 36.3415 24.7644C36.3299 24.7673 36.3185 24.7707 36.3068 24.7735C36.1982 24.7999 36.0888 24.8235 35.9787 24.8451C35.9472 24.8513 35.9153 24.8563 35.8836 24.8621C35.8046 24.8766 35.7254 24.8902 35.6456 24.9022C35.6062 24.9081 35.5668 24.9133 35.5273 24.9186C35.4532 24.9285 35.3789 24.9374 35.3043 24.9452C35.2642 24.9494 35.2239 24.9535 35.1836 24.9572C35.1046 24.9641 35.0252 24.9696 34.9456 24.9742C34.911 24.9762 34.8766 24.9788 34.8418 24.9803C34.7276 24.9853 34.6132 24.9884 34.4981 24.9884C34.3831 24.9884 34.2686 24.9853 34.1545 24.9803C34.1198 24.9788 34.0854 24.9762 34.051 24.9742C33.9713 24.9696 33.8918 24.9641 33.8126 24.9572C33.7724 24.9536 33.7322 24.9494 33.6922 24.9453C33.6175 24.9375 33.5431 24.9286 33.4688 24.9187C33.4295 24.9134 33.39 24.9082 33.3508 24.9023C33.271 24.8903 33.1916 24.8767 33.1125 24.8621C33.0808 24.8563 33.049 24.8513 33.0176 24.8451C32.9074 24.8236 32.7979 24.8 32.6893 24.7735C32.678 24.7707 32.6669 24.7674 32.6556 24.7646C32.5588 24.7407 32.4626 24.7148 32.3671 24.687C32.3325 24.677 32.2983 24.6659 32.2639 24.6554C32.1914 24.6331 32.1191 24.6101 32.0473 24.5857C32.0095 24.5729 31.9717 24.5595 31.934 24.546C31.8647 24.5212 31.7959 24.4952 31.7274 24.4684C31.6914 24.4542 31.6554 24.4403 31.6196 24.4256C31.5435 24.3944 31.4683 24.3615 31.3934 24.3278C31.3673 24.316 31.3408 24.305 31.3148 24.2928C31.2142 24.2461 31.1147 24.1973 31.0163 24.1461C30.9987 24.137 30.9816 24.127 30.9641 24.1178C30.8839 24.0752 30.8043 24.0313 30.7257 23.9858C30.6937 23.9672 30.6623 23.9479 30.6306 23.9289C30.5665 23.8905 30.5027 23.8512 30.4397 23.8107C30.406 23.7891 30.3726 23.7672 30.3393 23.745C30.2774 23.7038 30.2162 23.6614 30.1554 23.6183C30.1245 23.5963 30.0934 23.5746 30.0629 23.5522C30.0489 23.5419 30.0353 23.5309 30.0215 23.5206L31.1614 22.9603ZM16.9303 38.6083C16.7881 38.6083 16.6561 38.5523 16.5585 38.4507C16.4605 38.3485 16.4115 38.2151 16.4207 38.075C16.4209 38.0705 16.4212 38.0659 16.4214 38.0613L16.7666 30.341C16.8428 29.1948 17.33 28.1439 18.1045 27.3473C18.112 27.3404 18.1198 27.334 18.1269 27.3267C18.5825 26.8637 19.1352 26.4925 19.7387 26.2412C19.7513 26.2359 19.764 26.2308 19.7767 26.2257C19.857 26.193 19.9379 26.162 20.0198 26.1336L21.0931 25.7627V38.6083H16.9303ZM21.5332 24.1346L19.5458 24.8216C19.4711 24.8473 19.3973 24.8744 19.3243 24.9026C19.301 24.9116 19.2784 24.9216 19.2553 24.9307C19.2373 24.938 19.2193 24.9453 19.2013 24.9528C19.17 24.9657 19.1382 24.9779 19.1072 24.9913C19.0729 25.006 19.0394 25.0219 19.0054 25.0372C18.9685 25.0538 18.9312 25.0699 18.8948 25.0872C18.8604 25.1035 18.8267 25.1209 18.7927 25.1377C18.7575 25.1552 18.7217 25.1721 18.6869 25.1902C18.6548 25.2068 18.6235 25.2246 18.5918 25.2417C18.5558 25.2612 18.5195 25.2801 18.4839 25.3001C18.4527 25.3178 18.4222 25.3366 18.3913 25.3548C18.3687 25.3681 18.346 25.3811 18.3237 25.3946L18.3135 18.2843L23.4015 18.2774L23.4089 23.4832L21.5676 24.1196C21.5556 24.1237 21.5448 24.1298 21.5332 24.1346ZM22.5162 38.6083V25.2708L27.2232 23.6439L27.7678 26.2581C27.9716 27.2359 28.5838 28.1015 29.4473 28.6329L33.7867 31.3033V38.6083H22.5162ZM30.2053 27.455C29.6689 27.125 29.2888 26.5874 29.1623 25.9803L28.8261 24.3661C28.8526 24.388 28.8782 24.4113 28.905 24.4327C30.4741 25.694 32.4298 26.38 34.4984 26.38C35.0716 26.38 35.6357 26.3262 36.1857 26.2232C37.6547 25.9483 39.0194 25.3139 40.1707 24.3661L39.8344 25.9803C39.708 26.5874 39.3279 27.1249 38.7916 27.4549L34.4984 30.0968L30.2053 27.455ZM46.4805 38.6083H35.2099V31.3034L39.5493 28.633C40.4131 28.1015 41.0252 27.2359 41.2287 26.2582L41.7734 23.6439L46.4805 25.2708V38.6083Z" fill="white"/>
</g>
<defs>
<filter id="filter0_d" x="0" y="0" width="58" height="48" filterUnits="userSpaceOnUse" color-interpolation-filters="sRGB">
<feFlood flood-opacity="0" result="BackgroundImageFix"/>
<feColorMatrix in="SourceAlpha" type="matrix" values="0 0 0 0 0 0 0 0 0 0 0 0 0 0 0 0 0 0 127 0" result="hardAlpha"/>
<feOffset dy="4"/>
<feGaussianBlur stdDeviation="2"/>
<feComposite in2="hardAlpha" operator="out"/>
<feColorMatrix type="matrix" values="0 0 0 0 0 0 0 0 0 0 0 0 0 0 0 0 0 0 0.25 0"/>
<feBlend mode="normal" in2="BackgroundImageFix" result="effect1_dropShadow"/>
<feBlend mode="normal" in="SourceGraphic" in2="effect1_dropShadow" result="shape"/>
</filter>
</defs>
</svg>
