<svg width="48" height="48" viewBox="0 0 48 48" fill="none" xmlns="http://www.w3.org/2000/svg">
<g filter="url(#filter0_d)">
<path d="M40.9184 25.1023C40.3681 25.1023 39.9222 25.5505 39.9222 26.1035V34.9934C39.9202 36.6517 38.5835 37.9956 36.9336 37.9971H8.98103C7.33106 37.9956 5.99436 36.6517 5.99241 34.9934V8.90213C5.99436 7.24422 7.33106 5.90037 8.98103 5.89841H17.8262C18.3765 5.89841 18.8225 5.4502 18.8225 4.89718C18.8225 4.34454 18.3765 3.89594 17.8262 3.89594H8.98103C6.23135 3.89906 4.00311 6.13856 4 8.90213V34.9938C4.00311 37.7574 6.23135 39.9969 8.98103 40H36.9336C39.6832 39.9969 41.9115 37.7574 41.9146 34.9938V26.1035C41.9146 25.5505 41.4686 25.1023 40.9184 25.1023Z" fill="white"/>
<path d="M41.52 1.3197C39.7692 -0.4399 36.9308 -0.4399 35.1801 1.3197L17.4071 19.1824C17.2853 19.3049 17.1974 19.4566 17.1515 19.6232L14.8143 28.1036C14.7182 28.4513 14.8158 28.8237 15.0696 29.0791C15.3237 29.3341 15.6941 29.4322 16.0401 29.336L24.4779 26.9866C24.6436 26.9405 24.7946 26.8521 24.9164 26.7297L42.689 8.86654C44.437 7.10577 44.437 4.25536 42.689 2.49459L41.52 1.3197ZM19.5778 19.8332L34.1236 5.21358L38.8147 9.9284L24.2685 24.5481L19.5778 19.8332ZM18.6407 21.7231L22.3886 25.4902L17.2044 26.9338L18.6407 21.7231ZM41.2803 7.45073L40.2238 8.51259L35.5323 3.79738L36.5892 2.73551C37.5616 1.75813 39.1384 1.75813 40.1109 2.73551L41.2803 3.91041C42.2512 4.88896 42.2512 6.47256 41.2803 7.45073Z" fill="white"/>
</g>
<defs>
<filter id="filter0_d" x="0" y="0" width="48" height="48" filterUnits="userSpaceOnUse" color-interpolation-filters="sRGB">
<feFlood flood-opacity="0" result="BackgroundImageFix"/>
<feColorMatrix in="SourceAlpha" type="matrix" values="0 0 0 0 0 0 0 0 0 0 0 0 0 0 0 0 0 0 127 0" result="hardAlpha"/>
<feOffset dy="4"/>
<feGaussianBlur stdDeviation="2"/>
<feComposite in2="hardAlpha" operator="out"/>
<feColorMatrix type="matrix" values="0 0 0 0 0 0 0 0 0 0 0 0 0 0 0 0 0 0 0.25 0"/>
<feBlend mode="normal" in2="BackgroundImageFix" result="effect1_dropShadow"/>
<feBlend mode="normal" in="SourceGraphic" in2="effect1_dropShadow" result="shape"/>
</filter>
</defs>
</svg>
