<svg width="126" height="111" viewBox="0 0 126 111" fill="none" xmlns="http://www.w3.org/2000/svg">
<g filter="url(#filter0_d)">
<path d="M69.2035 75.4157V41.8984L80.1513 37.3139V21.0283L87.1087 26.7187V40.8794L75.5469 45.7072L75.6496 75.4157H69.2035Z" fill="#A48579"/>
<path d="M48.827 75.413H67.8578V41.0049L78.9084 36.3942V20.0213L72.7693 15L38.9024 35.681L71.7461 18.7696V33.3379L60.4912 38.0291L60.6063 73.1591L48.827 75.413Z" fill="#0D113B"/>
<path d="M38.9024 47.0238L48.9934 42.8179V48.7813L38.9024 47.0238Z" fill="#0D113B"/>
<path d="M23.4681 87.1308V85.7273H15V87.1308H23.4681ZM20.1421 95.7578V87.9537H18.3259V95.7578H20.1421ZM26.9214 95.7578V85.7273H25.1049V95.7578H26.9214ZM37.0206 87.1308V85.7273H28.5525V87.1308H37.0206ZM33.6947 95.7578V87.9537H31.8785V95.7578H33.6947ZM41.84 85.4849L35.8013 95.7578H37.7621L38.9826 93.6136L41.8227 88.6623L44.6571 93.6136L45.8833 95.7578H47.8383L41.84 85.4849V85.4849ZM49.5563 95.7578H51.3725V90.1117L49.5563 88.6761V95.7577V95.7578ZM58.331 85.7273V92.5987L49.5563 85.4849V87.4692L60.1471 96.0002V85.7273H58.3309H58.331Z" fill="#0D113B"/>
<path d="M70.0846 95.2933C69.6723 95.2933 69.2734 95.2354 68.8878 95.1193C68.5025 95.0033 68.1395 94.8382 67.7989 94.6241H67.8123C67.5703 94.4723 67.3552 94.3072 67.1669 94.1287C66.9788 93.9502 66.8487 93.8207 66.7771 93.7405L68.1754 92.4554C68.2383 92.5356 68.339 92.6315 68.4778 92.7431C68.6169 92.8548 68.7761 92.9618 68.9553 93.0645C69.1345 93.1671 69.3227 93.2541 69.5198 93.3254C69.717 93.397 69.9054 93.4325 70.0846 93.4325C70.2369 93.4325 70.3893 93.4147 70.5416 93.3791C70.6942 93.3433 70.8331 93.2875 70.9585 93.2116C71.0841 93.1358 71.1872 93.0354 71.2678 92.9104C71.3486 92.7854 71.3889 92.6293 71.3889 92.4419C71.3889 92.3704 71.3642 92.2923 71.315 92.2076C71.2655 92.1228 71.1805 92.0313 71.0595 91.9332C70.9384 91.835 70.7704 91.7302 70.5551 91.6185C70.3401 91.507 70.0712 91.3887 69.7486 91.2637C69.3721 91.121 69.0225 90.9669 68.6998 90.8019C68.3771 90.6367 68.097 90.4427 67.8595 90.2195C67.622 89.9965 67.4382 89.7421 67.3083 89.4565C67.1783 89.171 67.1134 88.8408 67.1134 88.4657C67.1134 88.082 67.1851 87.7228 67.3285 87.3882C67.4718 87.0534 67.6758 86.7634 67.9403 86.5178C68.2046 86.2725 68.5228 86.0807 68.8948 85.9423C69.2668 85.804 69.6769 85.7349 70.1251 85.7349C70.3671 85.7349 70.6249 85.7661 70.8982 85.8285C71.1715 85.8909 71.4382 85.9712 71.6982 86.0695C71.9582 86.1677 72.2024 86.2815 72.4309 86.4107C72.6595 86.5402 72.8498 86.6718 73.0024 86.8058L71.846 88.2515C71.6757 88.1355 71.5009 88.0285 71.3218 87.9304C71.1692 87.8499 70.9945 87.7741 70.7974 87.7026C70.6001 87.6312 70.3985 87.5956 70.1923 87.5956C69.8157 87.5956 69.5222 87.6692 69.3116 87.8164C69.1009 87.9636 68.9956 88.1756 68.9956 88.4525C68.9956 88.5772 69.0337 88.6911 69.1098 88.7937C69.1862 88.8964 69.2892 88.99 69.4192 89.0748C69.5492 89.1596 69.6993 89.2377 69.8697 89.3091C70.0399 89.3806 70.2192 89.4474 70.4075 89.5098C70.9452 89.7152 71.3979 89.9227 71.7654 90.1324C72.133 90.3422 72.4286 90.5653 72.6527 90.8018C72.8769 91.0382 73.0359 91.2927 73.1301 91.5649C73.2242 91.8372 73.2713 92.1339 73.2713 92.4552C73.2713 92.8479 73.1906 93.2182 73.0292 93.5663C72.868 93.9142 72.646 94.2157 72.3638 94.47C72.0815 94.7244 71.7453 94.9252 71.3554 95.0723C70.9654 95.2196 70.5418 95.2933 70.0848 95.2933L70.0846 95.2933ZM81.5399 87.6893H78.9584V95.1996H77.0895V87.6893H74.4811V85.8285H81.5399V87.6893V87.6893ZM94.3263 85.7349H95.1463L100.229 91.3574V85.8286H102.084V95.2934H101.251L96.1818 89.6841V95.1996H94.3263V85.7349H94.3263ZM106.817 87.6893V89.577H111V91.4511H106.817V93.3388H110.998V95.1996H104.948V85.8285H110.998V87.6893H106.817Z" fill="#A48579"/>
<path d="M87.2785 95.2933C86.678 95.2933 86.0908 95.1817 85.5172 94.9585C84.9435 94.7355 84.4303 94.4165 83.9777 94.0015C83.525 93.5865 83.162 93.0845 82.8886 92.4953C82.6152 91.9063 82.4785 91.2503 82.4785 90.5274C82.4785 89.9027 82.5996 89.3002 82.8416 88.7201C83.0836 88.1401 83.4174 87.6291 83.8432 87.1873C84.2691 86.7456 84.7755 86.3931 85.3625 86.1297C85.9497 85.8665 86.5883 85.7349 87.2785 85.7349C87.8969 85.7349 88.4953 85.8531 89.0734 86.0895C89.6515 86.3261 90.1624 86.6563 90.6061 87.0802C91.0498 87.5043 91.4061 88.0107 91.6749 88.5997C91.9439 89.1887 92.0784 89.8313 92.0784 90.5275C92.0784 91.1433 91.9597 91.7391 91.7221 92.3147C91.4845 92.8902 91.1528 93.3989 90.7272 93.8408C90.3013 94.2827 89.7949 94.6351 89.2078 94.8985C88.6207 95.1616 87.9776 95.2934 87.2784 95.2934L87.2785 95.2933ZM87.2785 87.5956C86.8751 87.5956 86.4965 87.6714 86.1424 87.8232C85.7883 87.975 85.4768 88.1847 85.2079 88.4526C84.9391 88.7202 84.7285 89.0326 84.576 89.3895C84.4237 89.7465 84.3474 90.1259 84.3474 90.5275C84.3474 90.929 84.4259 91.3062 84.5827 91.6587C84.7396 92.0112 84.9501 92.3192 85.2147 92.5824C85.4789 92.8457 85.7883 93.0533 86.1424 93.2049C86.4965 93.3566 86.8751 93.4325 87.2785 93.4325C87.6818 93.4325 88.0605 93.3567 88.4145 93.2049C88.7687 93.0532 89.078 92.8457 89.3423 92.5824C89.6067 92.3192 89.8151 92.0112 89.9674 91.6587C90.1198 91.3062 90.1962 90.929 90.1962 90.5275C90.1962 90.1259 90.1177 89.7466 89.9607 89.3895C89.804 89.0325 89.5933 88.7201 89.3288 88.4526C89.0645 88.1847 88.7552 87.975 88.401 87.8232C88.0471 87.6715 87.6727 87.5956 87.2784 87.5956H87.2785Z" fill="#A48579"/>
<path d="M87.2903 93.5791C85.9138 93.5791 84.7443 92.6799 84.3431 91.4403L86.1282 89.9228L86.2186 90.4522L86.5542 90.6024L86.6484 91.4602L86.3657 92.4964L88.9899 89.9228L88.956 90.6718L89.2613 90.8351L89.6581 92.4803C89.0898 93.1519 88.2394 93.5791 87.2904 93.5791H87.2903ZM87.2903 87.4143C88.9974 87.4143 90.3861 88.797 90.3861 90.4966C90.3861 90.5589 90.3842 90.6206 90.3807 90.682L89.0833 89.2557L87.5394 90.5629L86.3007 89.1204L84.204 90.7359C84.1977 90.6569 84.1947 90.5772 84.1947 90.4967C84.1947 88.797 85.5833 87.4143 87.2904 87.4143L87.2903 87.4143ZM90.6493 89.0837C90.4658 88.6513 90.2029 88.2632 89.8683 87.9298C89.5334 87.5966 89.1437 87.3349 88.7095 87.1521C88.2598 86.9626 87.7824 86.8667 87.2903 86.8667C86.7985 86.8667 86.3209 86.9626 85.8713 87.1521C85.4371 87.3349 85.0473 87.5966 84.7126 87.9298C84.3778 88.2632 84.1151 88.6513 83.9314 89.0837C83.7411 89.5314 83.6449 90.0068 83.6449 90.4966C83.6449 90.9865 83.7411 91.462 83.9314 91.9096C84.1151 92.3419 84.3778 92.7301 84.7126 93.0635C85.0473 93.3967 85.4371 93.6583 85.8713 93.8412C86.3209 94.0305 86.7985 94.1265 87.2903 94.1265C87.7824 94.1265 88.2599 94.0305 88.7095 93.8412C89.1437 93.6583 89.5334 93.3967 89.8683 93.0635C90.2029 92.7301 90.4658 92.3419 90.6493 91.9096C90.8397 91.4619 90.9359 90.9865 90.9359 90.4966C90.9359 90.0068 90.8397 89.5313 90.6493 89.0837Z" fill="#A48579"/>
</g>
<defs>
<filter id="filter0_d" x="0" y="0" width="126" height="111" filterUnits="userSpaceOnUse" color-interpolation-filters="sRGB">
<feFlood flood-opacity="0" result="BackgroundImageFix"/>
<feColorMatrix in="SourceAlpha" type="matrix" values="0 0 0 0 0 0 0 0 0 0 0 0 0 0 0 0 0 0 127 0" result="hardAlpha"/>
<feOffset/>
<feGaussianBlur stdDeviation="7.5"/>
<feComposite in2="hardAlpha" operator="out"/>
<feColorMatrix type="matrix" values="0 0 0 0 1 0 0 0 0 1 0 0 0 0 1 0 0 0 1 0"/>
<feBlend mode="normal" in2="BackgroundImageFix" result="effect1_dropShadow"/>
<feBlend mode="normal" in="SourceGraphic" in2="effect1_dropShadow" result="shape"/>
</filter>
</defs>
</svg>
