<svg width="15" height="22" viewBox="0 0 15 22" fill="none" xmlns="http://www.w3.org/2000/svg">
<path d="M13.9581 3.76739C12.6342 1.46324 10.2827 0.0555371 7.66782 0.00174023C7.55619 -0.000580078 7.44384 -0.000580078 7.33217 0.00174023C4.71728 0.0555371 2.36579 1.46324 1.04186 3.76739C-0.311388 6.12259 -0.348412 8.95165 0.942798 11.3352L6.35215 21.3205C6.35458 21.325 6.35701 21.3294 6.35952 21.3338C6.59752 21.751 7.02388 22 7.50008 22C7.97624 22 8.4026 21.7509 8.64055 21.3338C8.64306 21.3294 8.64549 21.325 8.64792 21.3205L14.0573 11.3352C15.3484 8.95165 15.3114 6.12259 13.9581 3.76739ZM7.49999 9.96876C5.8085 9.96876 4.43238 8.58092 4.43238 6.87502C4.43238 5.16911 5.8085 3.78127 7.49999 3.78127C9.19149 3.78127 10.5676 5.16911 10.5676 6.87502C10.5676 8.58092 9.19153 9.96876 7.49999 9.96876Z" fill="white"/>
</svg>
