<svg width="49" height="49" viewBox="0 0 49 49" fill="none" xmlns="http://www.w3.org/2000/svg">
<path d="M24.6473 48.1553C37.8881 48.1553 48.6218 37.4216 48.6218 24.1808C48.6218 10.9401 37.8881 0.206299 24.6473 0.206299C11.4066 0.206299 0.672798 10.9401 0.672798 24.1808C0.672798 37.4216 11.4066 48.1553 24.6473 48.1553Z" fill="#FD0000"/>
<path d="M39.9628 16.4871C39.5934 15.1126 38.5137 14.0293 37.1356 13.6599C34.6422 12.9922 24.6475 12.9922 24.6475 12.9922C24.6475 12.9922 14.6528 12.9922 12.1595 13.6599C10.7849 14.0293 9.70164 15.109 9.33226 16.4871C8.66452 18.9805 8.66452 24.1803 8.66452 24.1803C8.66452 24.1803 8.66452 29.3801 9.33226 31.8734C9.70164 33.248 10.7814 34.3312 12.1595 34.7006C14.6528 35.3684 24.6475 35.3684 24.6475 35.3684C24.6475 35.3684 34.6422 35.3684 37.1356 34.7006C38.5101 34.3312 39.5934 33.2515 39.9628 31.8734C40.6305 29.3801 40.6305 24.1803 40.6305 24.1803C40.6305 24.1803 40.6305 18.9805 39.9628 16.4871ZM21.4509 28.9752V19.3854L29.755 24.1803L21.4509 28.9752Z" fill="white"/>
</svg>
