<svg width="86" height="87" viewBox="0 0 86 87" fill="none" xmlns="http://www.w3.org/2000/svg">
<ellipse cx="43" cy="43.5" rx="43" ry="43.5" fill="#F9EFE5"/>
<g filter="url(#filter0_d)">
<path d="M61.9943 54.4977L58.9355 24.0289C58.8769 23.4448 58.3834 23 57.7941 23H27.2059C26.6166 23 26.1231 23.4448 26.0645 24.0289L23.0057 54.4977C23.0018 54.5354 23 54.5734 23 54.6113V60.8574C23 61.4884 23.5136 62 24.1471 62H60.8529C61.4864 62 62 61.4884 62 60.8574V54.6113C62 54.5734 61.9982 54.5354 61.9943 54.4977ZM59.5854 53.4688H44.1856C44.0527 52.9781 43.846 52.343 43.5337 51.6526C46.0708 51.076 50.75 49.4318 52.0147 45.0229C52.5166 43.2731 53.7812 42.2659 55.8806 41.9437C56.8525 41.7946 57.7888 41.8357 58.4242 41.9008L59.5854 53.4688ZM38.8945 38.0278C40.5958 37.8361 43.6858 37.7894 44.4938 39.8013C45.689 42.7775 48.0967 44.4917 49.4701 45.2667C47.9829 48.2696 43.8864 49.2823 42.2967 49.5679C41.3845 48.3786 40.0935 47.2758 38.2745 46.6719C37.7472 46.4967 37.2286 46.2626 36.7258 45.9894C38.2592 44.1519 39.0431 42.1045 39.0587 39.8867C39.0631 39.2493 39.003 38.6277 38.8945 38.0278ZM58.1919 39.5877C57.4702 39.5389 56.5586 39.5345 55.6009 39.6748C53.0957 40.0418 51.2937 41.2215 50.3154 43.1127C49.3665 42.5366 47.9654 41.4739 47.0396 39.8205C49.5055 38.1945 51.1167 35.8563 51.7947 32.9368C52.8096 33.0009 54.2322 33.1675 54.9871 33.5435C55.9959 34.0459 57.1872 34.9396 57.7713 35.3971L58.1919 39.5877ZM56.756 25.2852L57.4656 32.353C56.9947 32.0422 56.4933 31.7387 56.013 31.4996C54.9175 30.9539 53.2689 30.7456 52.1245 30.6662C52.1374 30.4724 52.148 30.2773 52.1539 30.0796C52.2105 28.1648 51.9252 26.4461 51.6564 25.2852L56.756 25.2852ZM43.1169 27.5303C43.3722 26.7163 43.5044 25.9084 43.573 25.2852H49.2931C49.5481 26.2438 49.9199 28.0121 49.8608 30.0123C49.759 33.4586 48.4468 36.0692 45.9585 37.7902C44.0387 35.336 40.1193 35.5377 38.2542 35.798C37.5948 34.112 36.6568 32.7177 35.939 31.7976C36.6936 31.5376 37.5828 31.3789 38.6765 31.3789C40.7614 31.3789 42.3383 30.0122 43.1169 27.5303ZM28.244 25.2852H41.2569C41.0607 26.7481 40.4667 29.0938 38.6765 29.0938C34.6522 29.0938 32.617 30.921 31.131 32.2551C30.1287 33.1549 29.5233 33.6641 28.7353 33.6641H27.4028L28.244 25.2852ZM27.1734 35.9492H28.7353C30.443 35.9492 31.5735 34.9342 32.6669 33.9525C33.0607 33.5989 33.4584 33.2421 33.8955 32.9112C34.9028 34.138 36.7859 36.8397 36.7646 39.8707C36.7522 41.6129 36.0915 43.2398 34.7985 44.7178C33.9345 44.0506 33.1669 43.332 32.5501 42.7003C31.0169 41.1297 28.9647 40.1221 26.7828 39.8395L27.1734 35.9492ZM26.5544 42.1146C28.2023 42.3422 29.7481 43.108 30.9055 44.2934C32.4481 45.8733 34.8528 47.9446 37.5491 48.8399C40.0929 49.6845 41.273 51.9928 41.782 53.4688H25.4146L26.5544 42.1146ZM59.7059 59.7148H25.2941V55.7539H59.7059V59.7148Z" fill="#0D113B"/>
</g>
<defs>
<filter id="filter0_d" x="19" y="23" width="47" height="47" filterUnits="userSpaceOnUse" color-interpolation-filters="sRGB">
<feFlood flood-opacity="0" result="BackgroundImageFix"/>
<feColorMatrix in="SourceAlpha" type="matrix" values="0 0 0 0 0 0 0 0 0 0 0 0 0 0 0 0 0 0 127 0" result="hardAlpha"/>
<feOffset dy="4"/>
<feGaussianBlur stdDeviation="2"/>
<feComposite in2="hardAlpha" operator="out"/>
<feColorMatrix type="matrix" values="0 0 0 0 0 0 0 0 0 0 0 0 0 0 0 0 0 0 0.25 0"/>
<feBlend mode="normal" in2="BackgroundImageFix" result="effect1_dropShadow"/>
<feBlend mode="normal" in="SourceGraphic" in2="effect1_dropShadow" result="shape"/>
</filter>
</defs>
</svg>
