<svg width="87" height="87" viewBox="0 0 87 87" fill="none" xmlns="http://www.w3.org/2000/svg">
<circle cx="43.5" cy="43.5" r="43.5" fill="#F9EFE5"/>
<g filter="url(#filter0_d)">
<path d="M67.1864 27H20.8136C20.3643 27 20 27.3604 20 27.8049V59.1951C20 59.6396 20.3643 60 20.8136 60H67.1864C67.6357 60 68 59.6396 68 59.1951V27.8049C68 27.3604 67.6357 27 67.1864 27ZM66.3729 58.3902H21.6271V28.6098H66.3729V58.3902Z" fill="#0D113B"/>
<path d="M63.9322 30.2195H24.0678C23.6185 30.2195 23.2542 30.5799 23.2542 31.0244V55.9756C23.2542 56.4201 23.6185 56.7805 24.0678 56.7805H63.9322C64.3815 56.7805 64.7458 56.4201 64.7458 55.9756V31.0244C64.7458 30.5799 64.3815 30.2195 63.9322 30.2195ZM63.1186 55.1707H24.8814V31.8293H63.1186V55.1707Z" fill="#0D113B"/>
<path d="M29.3559 33.439C27.7833 33.439 26.5085 34.7003 26.5085 36.2561C26.5085 37.8119 27.7833 39.0732 29.3559 39.0732C30.9285 39.0732 32.2034 37.8119 32.2034 36.2561C32.2034 34.7003 30.9285 33.439 29.3559 33.439ZM29.3559 37.4634C28.682 37.4634 28.1356 36.9228 28.1356 36.2561C28.1356 35.5894 28.682 35.0488 29.3559 35.0488C30.0299 35.0488 30.5763 35.5894 30.5763 36.2561C30.5763 36.9228 30.0299 37.4634 29.3559 37.4634Z" fill="#0D113B"/>
<path d="M36.678 33.439C35.1054 33.439 33.8305 34.7003 33.8305 36.2561C33.8305 37.8119 35.1054 39.0732 36.678 39.0732C38.2506 39.0732 39.5254 37.8119 39.5254 36.2561C39.5254 34.7003 38.2506 33.439 36.678 33.439ZM36.678 37.4634C36.004 37.4634 35.4576 36.9228 35.4576 36.2561C35.4576 35.5894 36.004 35.0488 36.678 35.0488C37.3519 35.0488 37.8983 35.5894 37.8983 36.2561C37.8983 36.9228 37.3519 37.4634 36.678 37.4634Z" fill="#0D113B"/>
<path d="M44 33.439C42.4274 33.439 41.1525 34.7003 41.1525 36.2561C41.1525 37.8119 42.4274 39.0732 44 39.0732C45.5726 39.0732 46.8475 37.8119 46.8475 36.2561C46.8475 34.7003 45.5726 33.439 44 33.439ZM44 37.4634C43.3261 37.4634 42.7797 36.9228 42.7797 36.2561C42.7797 35.5894 43.3261 35.0488 44 35.0488C44.6739 35.0488 45.2203 35.5894 45.2203 36.2561C45.2203 36.9228 44.6739 37.4634 44 37.4634Z" fill="#0D113B"/>
<path d="M51.322 33.439C49.7494 33.439 48.4746 34.7003 48.4746 36.2561C48.4746 37.8119 49.7494 39.0732 51.322 39.0732C52.8946 39.0732 54.1695 37.8119 54.1695 36.2561C54.1695 34.7003 52.8946 33.439 51.322 33.439ZM51.322 37.4634C50.6481 37.4634 50.1017 36.9228 50.1017 36.2561C50.1017 35.5894 50.6481 35.0488 51.322 35.0488C51.996 35.0488 52.5424 35.5894 52.5424 36.2561C52.5424 36.9228 51.996 37.4634 51.322 37.4634Z" fill="#0D113B"/>
<path d="M58.6441 33.439C57.0715 33.439 55.7966 34.7003 55.7966 36.2561C55.7966 37.8119 57.0715 39.0732 58.6441 39.0732C60.2167 39.0732 61.4915 37.8119 61.4915 36.2561C61.4915 34.7003 60.2167 33.439 58.6441 33.439ZM58.6441 37.4634C57.9701 37.4634 57.4237 36.9228 57.4237 36.2561C57.4237 35.5894 57.9701 35.0488 58.6441 35.0488C59.318 35.0488 59.8644 35.5894 59.8644 36.2561C59.8644 36.9228 59.318 37.4634 58.6441 37.4634Z" fill="#0D113B"/>
<path d="M29.3559 40.6829C27.7833 40.6829 26.5085 41.9442 26.5085 43.5C26.5085 45.0558 27.7833 46.3171 29.3559 46.3171C30.9285 46.3171 32.2034 45.0558 32.2034 43.5C32.2034 41.9442 30.9285 40.6829 29.3559 40.6829ZM29.3559 44.7073C28.682 44.7073 28.1356 44.1667 28.1356 43.5C28.1356 42.8333 28.682 42.2927 29.3559 42.2927C30.0299 42.2927 30.5763 42.8333 30.5763 43.5C30.5763 44.1667 30.0299 44.7073 29.3559 44.7073Z" fill="#0D113B"/>
<path d="M36.678 40.6829C35.1054 40.6829 33.8305 41.9442 33.8305 43.5C33.8305 45.0558 35.1054 46.3171 36.678 46.3171C38.2506 46.3171 39.5254 45.0558 39.5254 43.5C39.5254 41.9442 38.2506 40.6829 36.678 40.6829ZM36.678 44.7073C36.004 44.7073 35.4576 44.1667 35.4576 43.5C35.4576 42.8333 36.004 42.2927 36.678 42.2927C37.3519 42.2927 37.8983 42.8333 37.8983 43.5C37.8983 44.1667 37.3519 44.7073 36.678 44.7073Z" fill="#0D113B"/>
<path d="M44 40.6829C42.4274 40.6829 41.1525 41.9442 41.1525 43.5C41.1525 45.0558 42.4274 46.3171 44 46.3171C45.5726 46.3171 46.8475 45.0558 46.8475 43.5C46.8475 41.9442 45.5726 40.6829 44 40.6829ZM44 44.7073C43.3261 44.7073 42.7797 44.1667 42.7797 43.5C42.7797 42.8333 43.3261 42.2927 44 42.2927C44.6739 42.2927 45.2203 42.8333 45.2203 43.5C45.2203 44.1667 44.6739 44.7073 44 44.7073Z" fill="#0D113B"/>
<path d="M51.322 40.6829C49.7494 40.6829 48.4746 41.9442 48.4746 43.5C48.4746 45.0558 49.7494 46.3171 51.322 46.3171C52.8946 46.3171 54.1695 45.0558 54.1695 43.5C54.1695 41.9442 52.8946 40.6829 51.322 40.6829ZM51.322 44.7073C50.6481 44.7073 50.1017 44.1667 50.1017 43.5C50.1017 42.8333 50.6481 42.2927 51.322 42.2927C51.996 42.2927 52.5424 42.8333 52.5424 43.5C52.5424 44.1667 51.996 44.7073 51.322 44.7073Z" fill="#0D113B"/>
<path d="M58.6441 40.6829C57.0715 40.6829 55.7966 41.9442 55.7966 43.5C55.7966 45.0558 57.0715 46.3171 58.6441 46.3171C60.2167 46.3171 61.4915 45.0558 61.4915 43.5C61.4915 41.9442 60.2167 40.6829 58.6441 40.6829ZM58.6441 44.7073C57.9701 44.7073 57.4237 44.1667 57.4237 43.5C57.4237 42.8333 57.9701 42.2927 58.6441 42.2927C59.318 42.2927 59.8644 42.8333 59.8644 43.5C59.8644 44.1667 59.318 44.7073 58.6441 44.7073Z" fill="#0D113B"/>
<path d="M29.3559 47.9268C27.7833 47.9268 26.5085 49.1881 26.5085 50.7439C26.5085 52.2997 27.7833 53.561 29.3559 53.561C30.9285 53.561 32.2034 52.2997 32.2034 50.7439C32.2034 49.1881 30.9285 47.9268 29.3559 47.9268ZM29.3559 51.9512C28.682 51.9512 28.1356 51.4106 28.1356 50.7439C28.1356 50.0772 28.682 49.5366 29.3559 49.5366C30.0299 49.5366 30.5763 50.0772 30.5763 50.7439C30.5763 51.4106 30.0299 51.9512 29.3559 51.9512Z" fill="#0D113B"/>
<path d="M36.678 47.9268C35.1054 47.9268 33.8305 49.1881 33.8305 50.7439C33.8305 52.2997 35.1054 53.561 36.678 53.561C38.2506 53.561 39.5254 52.2997 39.5254 50.7439C39.5254 49.1881 38.2506 47.9268 36.678 47.9268ZM36.678 51.9512C36.004 51.9512 35.4576 51.4106 35.4576 50.7439C35.4576 50.0772 36.004 49.5366 36.678 49.5366C37.3519 49.5366 37.8983 50.0772 37.8983 50.7439C37.8983 51.4106 37.3519 51.9512 36.678 51.9512Z" fill="#0D113B"/>
<path d="M44 47.9268C42.4274 47.9268 41.1525 49.1881 41.1525 50.7439C41.1525 52.2997 42.4274 53.561 44 53.561C45.5726 53.561 46.8475 52.2997 46.8475 50.7439C46.8475 49.1881 45.5726 47.9268 44 47.9268ZM44 51.9512C43.3261 51.9512 42.7797 51.4106 42.7797 50.7439C42.7797 50.0772 43.3261 49.5366 44 49.5366C44.6739 49.5366 45.2203 50.0772 45.2203 50.7439C45.2203 51.4106 44.6739 51.9512 44 51.9512Z" fill="#0D113B"/>
<path d="M51.322 47.9268C49.7494 47.9268 48.4746 49.1881 48.4746 50.7439C48.4746 52.2997 49.7494 53.561 51.322 53.561C52.8946 53.561 54.1695 52.2997 54.1695 50.7439C54.1695 49.1881 52.8946 47.9268 51.322 47.9268ZM51.322 51.9512C50.6481 51.9512 50.1017 51.4106 50.1017 50.7439C50.1017 50.0772 50.6481 49.5366 51.322 49.5366C51.996 49.5366 52.5424 50.0772 52.5424 50.7439C52.5424 51.4106 51.996 51.9512 51.322 51.9512Z" fill="#0D113B"/>
<path d="M58.6441 47.9268C57.0715 47.9268 55.7966 49.1881 55.7966 50.7439C55.7966 52.2997 57.0715 53.561 58.6441 53.561C60.2167 53.561 61.4915 52.2997 61.4915 50.7439C61.4915 49.1881 60.2167 47.9268 58.6441 47.9268ZM58.6441 51.9512C57.9701 51.9512 57.4237 51.4106 57.4237 50.7439C57.4237 50.0772 57.9701 49.5366 58.6441 49.5366C59.318 49.5366 59.8644 50.0772 59.8644 50.7439C59.8644 51.4106 59.318 51.9512 58.6441 51.9512Z" fill="#0D113B"/>
</g>
<defs>
<filter id="filter0_d" x="16" y="27" width="56" height="41" filterUnits="userSpaceOnUse" color-interpolation-filters="sRGB">
<feFlood flood-opacity="0" result="BackgroundImageFix"/>
<feColorMatrix in="SourceAlpha" type="matrix" values="0 0 0 0 0 0 0 0 0 0 0 0 0 0 0 0 0 0 127 0" result="hardAlpha"/>
<feOffset dy="4"/>
<feGaussianBlur stdDeviation="2"/>
<feComposite in2="hardAlpha" operator="out"/>
<feColorMatrix type="matrix" values="0 0 0 0 0 0 0 0 0 0 0 0 0 0 0 0 0 0 0.25 0"/>
<feBlend mode="normal" in2="BackgroundImageFix" result="effect1_dropShadow"/>
<feBlend mode="normal" in="SourceGraphic" in2="effect1_dropShadow" result="shape"/>
</filter>
</defs>
</svg>
