<svg width="32" height="26" viewBox="0 0 32 26" fill="none" xmlns="http://www.w3.org/2000/svg">
<g filter="url(#filter0_b)">
<path fill-rule="evenodd" clip-rule="evenodd" d="M31.2041 2C31.2041 1.17157 30.5325 0.5 29.7041 0.5H2.00038C1.17196 0.5 0.500383 1.17157 0.500383 2C0.500383 2.82843 1.17196 3.5 2.00038 3.5H29.7041C30.5325 3.5 31.2041 2.82843 31.2041 2ZM31.2041 13C31.2041 12.1716 30.5325 11.5 29.7041 11.5H2.00038C1.17196 11.5 0.500383 12.1716 0.500383 13C0.500383 13.8284 1.17196 14.5 2.00038 14.5H29.7041C30.5325 14.5 31.2041 13.8284 31.2041 13ZM15.6208 24C15.6208 23.1716 14.9492 22.5 14.1208 22.5H2.00038C1.17196 22.5 0.500383 23.1716 0.500383 24C0.500383 24.8284 1.17196 25.5 2.00038 25.5H14.1208C14.9492 25.5 15.6208 24.8284 15.6208 24Z" fill="#191313"/>
</g>
<defs>
<filter id="filter0_b" x="-3.49963" y="-3.5" width="38.7037" height="33" filterUnits="userSpaceOnUse" color-interpolation-filters="sRGB">
<feFlood flood-opacity="0" result="BackgroundImageFix"/>
<feGaussianBlur in="BackgroundImage" stdDeviation="2"/>
<feComposite in2="SourceAlpha" operator="in" result="effect1_backgroundBlur"/>
<feBlend mode="normal" in="SourceGraphic" in2="effect1_backgroundBlur" result="shape"/>
</filter>
</defs>
</svg>
