<svg width="86" height="84" viewBox="0 0 86 84" fill="none" xmlns="http://www.w3.org/2000/svg">
<ellipse cx="43" cy="42" rx="43" ry="42" fill="#F9EFE5"/>
<g filter="url(#filter0_d)">
<path d="M59.9184 47.1023C59.3681 47.1023 58.9222 47.5505 58.9222 48.1035V56.9934C58.9202 58.6517 57.5835 59.9956 55.9336 59.9971H27.981C26.3311 59.9956 24.9944 58.6517 24.9924 56.9934V30.9021C24.9944 29.2442 26.3311 27.9004 27.981 27.8984H36.8262C37.3765 27.8984 37.8225 27.4502 37.8225 26.8972C37.8225 26.3445 37.3765 25.8959 36.8262 25.8959H27.981C25.2313 25.8991 23.0031 28.1386 23 30.9021V56.9938C23.0031 59.7574 25.2313 61.9969 27.981 62H55.9336C58.6832 61.9969 60.9115 59.7574 60.9146 56.9938V48.1035C60.9146 47.5505 60.4686 47.1023 59.9184 47.1023Z" fill="#0D113B"/>
<path d="M60.52 23.3197C58.7692 21.5601 55.9308 21.5601 54.1801 23.3197L36.4071 41.1824C36.2853 41.3049 36.1974 41.4566 36.1515 41.6232L33.8143 50.1036C33.7182 50.4513 33.8158 50.8237 34.0696 51.0791C34.3237 51.3341 34.6941 51.4322 35.0401 51.336L43.4779 48.9866C43.6436 48.9405 43.7946 48.8521 43.9164 48.7297L61.689 30.8665C63.437 29.1058 63.437 26.2554 61.689 24.4946L60.52 23.3197ZM38.5778 41.8332L53.1236 27.2136L57.8147 31.9284L43.2685 46.5481L38.5778 41.8332ZM37.6407 43.7231L41.3886 47.4902L36.2044 48.9338L37.6407 43.7231ZM60.2803 29.4507L59.2238 30.5126L54.5323 25.7974L55.5892 24.7355C56.5616 23.7581 58.1384 23.7581 59.1109 24.7355L60.2803 25.9104C61.2512 26.889 61.2512 28.4726 60.2803 29.4507Z" fill="#0D113B"/>
</g>
<defs>
<filter id="filter0_d" x="19" y="22" width="48" height="48" filterUnits="userSpaceOnUse" color-interpolation-filters="sRGB">
<feFlood flood-opacity="0" result="BackgroundImageFix"/>
<feColorMatrix in="SourceAlpha" type="matrix" values="0 0 0 0 0 0 0 0 0 0 0 0 0 0 0 0 0 0 127 0" result="hardAlpha"/>
<feOffset dy="4"/>
<feGaussianBlur stdDeviation="2"/>
<feComposite in2="hardAlpha" operator="out"/>
<feColorMatrix type="matrix" values="0 0 0 0 0 0 0 0 0 0 0 0 0 0 0 0 0 0 0.25 0"/>
<feBlend mode="normal" in2="BackgroundImageFix" result="effect1_dropShadow"/>
<feBlend mode="normal" in="SourceGraphic" in2="effect1_dropShadow" result="shape"/>
</filter>
</defs>
</svg>
