<svg width="25" height="30" viewBox="0 0 25 30" fill="none" xmlns="http://www.w3.org/2000/svg">
<path d="M21.2923 15.2091C21.1869 15.0996 21.061 15.0126 20.9221 14.953C20.7832 14.8934 20.634 14.8626 20.4832 14.8621C20.3323 14.8617 20.183 14.8918 20.0437 14.9506C19.9045 15.0094 19.7782 15.0957 19.6721 15.2046C19.5661 15.3135 19.4824 15.4427 19.4261 15.5847C19.3697 15.7267 19.3417 15.8787 19.3438 16.0318C19.3459 16.185 19.3779 16.3361 19.4381 16.4765C19.4983 16.6169 19.5854 16.7437 19.6944 16.8496C20.6585 17.8129 21.4234 18.962 21.9442 20.2295C22.465 21.497 22.7312 22.8574 22.7272 24.2308C22.7272 25.642 18.7433 27.6923 12.5 27.6923C6.25673 27.6923 2.27277 25.641 2.27277 24.2285C2.26894 22.8645 2.5316 21.5133 3.04554 20.2531C3.55947 18.993 4.31448 17.8488 5.26685 16.8869C5.37457 16.7802 5.46036 16.653 5.51925 16.5124C5.57814 16.3718 5.60895 16.2208 5.6099 16.068C5.61086 15.9153 5.58193 15.7639 5.5248 15.6225C5.46767 15.4812 5.38347 15.3528 5.2771 15.2448C5.17072 15.1368 5.04428 15.0513 4.90511 14.9933C4.76593 14.9353 4.61681 14.9059 4.46637 14.9069C4.31593 14.9079 4.16718 14.9392 4.02874 14.999C3.89031 15.0587 3.76494 15.1459 3.65992 15.2552C2.49564 16.4312 1.57266 17.83 0.944439 19.3707C0.316217 20.9114 -0.00477369 22.5633 5.36493e-05 24.2308C5.36493e-05 27.978 6.4398 30 12.5 30C18.5602 30 24.9999 27.978 24.9999 24.2308C25.005 22.552 24.6796 20.8892 24.0429 19.3399C23.4062 17.7907 22.4711 16.3862 21.2923 15.2091Z" fill="black"/>
<path d="M12.5 16.1538C14.0733 16.1538 15.6112 15.6801 16.9193 14.7926C18.2274 13.9051 19.2469 12.6437 19.849 11.1678C20.4511 9.69197 20.6086 8.06797 20.3017 6.5012C19.9947 4.93443 19.2371 3.49526 18.1247 2.36568C17.0122 1.2361 15.5949 0.466849 14.0518 0.155199C12.5088 -0.15645 10.9094 0.00349959 9.45594 0.614823C8.00244 1.22615 6.76012 2.26138 5.88606 3.58963C5.01201 4.91787 4.54549 6.47946 4.54549 8.07693C4.54792 10.2183 5.38677 12.2713 6.878 13.7854C8.36923 15.2996 10.3911 16.1514 12.5 16.1538ZM12.5 2.3077C13.6237 2.3077 14.7223 2.64605 15.6566 3.27999C16.591 3.91392 17.3192 4.81495 17.7493 5.86914C18.1793 6.92333 18.2918 8.08333 18.0726 9.20245C17.8534 10.3216 17.3122 11.3495 16.5176 12.1564C15.723 12.9632 14.7106 13.5127 13.6085 13.7353C12.5063 13.9579 11.3639 13.8437 10.3257 13.407C9.28746 12.9703 8.40008 12.2309 7.77576 11.2821C7.15144 10.3334 6.8182 9.21797 6.8182 8.07693C6.81998 6.54738 7.41916 5.081 8.48432 3.99945C9.54948 2.9179 10.9936 2.3095 12.5 2.3077Z" fill="black"/>
</svg>
