<svg width="18" height="19" viewBox="0 0 18 19" fill="none" xmlns="http://www.w3.org/2000/svg">
<path d="M8.96939 0.769531C4.0279 0.769531 0.0263672 4.78001 0.0263672 9.7215C0.0263672 14.663 4.0279 18.6735 8.96939 18.6735C13.9198 18.6735 17.9303 14.663 17.9303 9.7215C17.9303 4.78001 13.9198 0.769531 8.96939 0.769531ZM8.97834 16.8831C5.02157 16.8831 1.81676 13.6783 1.81676 9.7215C1.81676 5.76473 5.02157 2.55993 8.97834 2.55993C12.9351 2.55993 16.1399 5.76473 16.1399 9.7215C16.1399 13.6783 12.9351 16.8831 8.97834 16.8831ZM8.78139 5.24552H8.72768C8.3696 5.24552 8.08314 5.53198 8.08314 5.89006V10.1154C8.08314 10.4287 8.24428 10.7241 8.52179 10.8853L12.2369 13.1143C12.5412 13.2933 12.9351 13.2038 13.1141 12.8995C13.1591 12.827 13.189 12.7462 13.2021 12.6619C13.2151 12.5776 13.2111 12.4916 13.1902 12.4089C13.1694 12.3262 13.132 12.2485 13.0805 12.1805C13.029 12.1126 12.9643 12.0557 12.8903 12.0132L9.42594 9.95425V5.89006C9.42594 5.53198 9.13947 5.24552 8.78139 5.24552Z" fill="#CE8C59"/>
</svg>
