<svg width="14" height="11" viewBox="0 0 14 11" fill="none" xmlns="http://www.w3.org/2000/svg">
<path d="M13.2584 3.31223V9.09301C13.2584 10.0924 12.4486 10.9023 11.4491 10.9023H1.97189C1.49204 10.9023 1.03184 10.7117 0.692528 10.3724C0.353219 10.0331 0.162598 9.57286 0.162598 9.09301V3.31223L6.50305 6.79986C6.63229 6.87085 6.78909 6.87085 6.91799 6.79986L13.2584 3.31223ZM11.4491 0.563477C11.9215 0.56352 12.375 0.74825 12.713 1.0782C13.0509 1.40816 13.2464 1.85718 13.2578 2.32935L6.71052 5.93071L0.163287 2.329L0.163976 2.29799C0.183276 1.83145 0.382197 1.39044 0.71914 1.06718C1.05608 0.743914 1.50496 0.563433 1.97189 0.563477H11.4491Z" fill="#EE6B01"/>
</svg>
