<svg width="9" height="11" viewBox="0 0 9 11" fill="none" xmlns="http://www.w3.org/2000/svg">
<path d="M4.14989 10.8042C3.42815 10.2058 2.75915 9.54973 2.1499 8.84292C1.23561 7.78146 0.149903 6.20065 0.149903 4.69428C0.149506 3.92496 0.383907 3.17282 0.82344 2.53305C1.26297 1.89327 1.88788 1.39462 2.61908 1.1002C3.35027 0.80578 4.15489 0.728825 4.9311 0.879074C5.70731 1.02932 6.42022 1.40002 6.9796 1.94426C7.35203 2.30467 7.64723 2.73329 7.8481 3.20533C8.04898 3.67737 8.15155 4.18345 8.14988 4.69428C8.14988 6.20065 7.06417 7.78146 6.14989 8.84292C5.54063 9.54973 4.87164 10.2058 4.14989 10.8042ZM4.14989 3.02794C3.69524 3.02794 3.2592 3.2035 2.93771 3.516C2.61622 3.8285 2.43561 4.25234 2.43561 4.69428C2.43561 5.13622 2.61622 5.56006 2.93771 5.87256C3.2592 6.18506 3.69524 6.36062 4.14989 6.36062C4.60455 6.36062 5.04058 6.18506 5.36207 5.87256C5.68356 5.56006 5.86417 5.13622 5.86417 4.69428C5.86417 4.25234 5.68356 3.8285 5.36207 3.516C5.04058 3.2035 4.60455 3.02794 4.14989 3.02794Z" fill="#B90012"/>
</svg>
