<svg width="13" height="16" viewBox="0 0 13 16" fill="none" xmlns="http://www.w3.org/2000/svg">
<path d="M6.27557 15.6895C5.20878 14.8049 4.21995 13.8353 3.31943 12.7905C1.96805 11.2216 0.363282 8.88507 0.363282 6.65853C0.362696 5.52142 0.709158 4.4097 1.35882 3.46406C2.00849 2.51843 2.93215 1.78138 4.01291 1.34621C5.09368 0.911029 6.28296 0.797283 7.43026 1.01936C8.57755 1.24144 9.63129 1.78937 10.4581 2.59379C11.0086 3.1265 11.4449 3.76004 11.7418 4.45775C12.0387 5.15546 12.1903 5.90349 12.1879 6.65853C12.1879 8.88507 10.5831 11.2216 9.23172 12.7905C8.3312 13.8353 7.34237 14.8049 6.27557 15.6895ZM6.27557 4.19555C5.60356 4.19555 4.95907 4.45504 4.48388 4.91694C4.00869 5.37884 3.74174 6.00531 3.74174 6.65853C3.74174 7.31175 4.00869 7.93822 4.48388 8.40012C4.95907 8.86202 5.60356 9.12151 6.27557 9.12151C6.94759 9.12151 7.59208 8.86202 8.06727 8.40012C8.54246 7.93822 8.80941 7.31175 8.80941 6.65853C8.80941 6.00531 8.54246 5.37884 8.06727 4.91694C7.59208 4.45504 6.94759 4.19555 6.27557 4.19555Z" fill="#EE6B01"/>
</svg>
