<svg width="34" height="34" viewBox="0 0 34 34" fill="none" xmlns="http://www.w3.org/2000/svg">
<path fill-rule="evenodd" clip-rule="evenodd" d="M17.0439 0.935791C25.9241 0.935791 33.1229 8.13449 33.1229 17.0148C33.1229 25.8952 25.9241 33.0938 17.0439 33.0938C8.1636 33.0938 0.964844 25.895 0.964844 17.0148C0.964844 8.13467 8.16379 0.935791 17.0439 0.935791Z" fill="#FF542F"/>
<path fill-rule="evenodd" clip-rule="evenodd" d="M24.261 9.13546C22.0804 8.17286 19.4118 7.81604 17.0439 7.81604C14.676 7.81604 12.0075 8.17286 9.82716 9.13546C8.58072 9.68554 6.83746 10.7609 6.83746 12.3214C6.83746 12.833 7.47064 14.2013 7.68199 14.6859L7.69549 14.7168C7.79396 14.9478 7.97298 15.1352 8.19927 15.2442C8.42555 15.3531 8.68371 15.3762 8.92573 15.3091L11.7875 14.5424C12.0554 14.4701 12.2837 14.2946 12.4224 14.0543C12.5611 13.814 12.5989 13.5285 12.5275 13.2604L12.4752 13.0648C12.4118 12.8281 12.3993 12.5806 12.4386 12.3387C12.4778 12.0968 12.568 11.866 12.7031 11.6615C12.8381 11.457 13.015 11.2835 13.2221 11.1524C13.4291 11.0213 13.6616 10.9356 13.9043 10.901C15.9873 10.6114 18.1005 10.6114 20.1836 10.901C20.4262 10.9356 20.6587 11.0213 20.8657 11.1524C21.0728 11.2835 21.2497 11.457 21.3847 11.6615C21.5198 11.866 21.6099 12.0968 21.6492 12.3387C21.6885 12.5806 21.676 12.8281 21.6126 13.0648L21.5603 13.2604C21.4889 13.5285 21.5267 13.814 21.6654 14.0543C21.8041 14.2946 22.0324 14.4701 22.3003 14.5424L25.162 15.3091C25.2527 15.3337 25.3462 15.3462 25.4402 15.3464C25.6432 15.3463 25.8416 15.2865 26.0109 15.1746C26.1802 15.0626 26.3128 14.9034 26.3923 14.7167L26.406 14.6853C26.6171 14.201 27.2504 12.8324 27.2504 12.3214C27.2504 10.7608 25.5072 9.68548 24.261 9.1354V9.13546ZM25.4744 19.7815C25.914 20.0579 26.0684 20.5502 26.0684 21.0491V23.8296C26.0678 24.1286 25.9488 24.4152 25.7373 24.6266C25.5259 24.838 25.2393 24.957 24.9403 24.9575H9.14763C8.84864 24.957 8.56202 24.838 8.35058 24.6266C8.13914 24.4152 8.02012 24.1286 8.01959 23.8296V21.0491C8.01959 20.5503 8.17422 20.0579 8.61357 19.7816L14.8769 15.8429V14.2199C14.8772 14.0887 14.9294 13.963 15.0222 13.8703C15.1149 13.7775 15.2406 13.7253 15.3718 13.725H18.7162C18.8473 13.7253 18.973 13.7775 19.0658 13.8703C19.1585 13.963 19.2108 14.0887 19.2111 14.2199V15.8429L25.4744 19.7816V19.7815ZM17.0439 16.9921C16.4098 16.9921 15.7899 17.1802 15.2627 17.5324C14.7354 17.8847 14.3245 18.3854 14.0818 18.9713C13.8391 19.5571 13.7756 20.2017 13.8993 20.8236C14.023 21.4456 14.3284 22.0168 14.7768 22.4652C15.2251 22.9136 15.7964 23.219 16.4183 23.3427C17.0402 23.4664 17.6849 23.4029 18.2707 23.1602C18.8565 22.9176 19.3573 22.5067 19.7096 21.9794C20.0619 21.4522 20.2499 20.8323 20.2499 20.1982C20.249 19.3482 19.9109 18.5333 19.3099 17.9322C18.7088 17.3312 17.8939 16.9931 17.0439 16.9921ZM17.0439 22.0433C17.4088 22.0433 17.7655 21.9351 18.0689 21.7323C18.3723 21.5295 18.6088 21.2413 18.7484 20.9042C18.888 20.567 18.9246 20.196 18.8533 19.8381C18.7821 19.4802 18.6064 19.1515 18.3483 18.8934C18.0903 18.6354 17.7615 18.4597 17.4036 18.3885C17.0457 18.3173 16.6747 18.3539 16.3375 18.4936C16.0004 18.6332 15.7122 18.8697 15.5095 19.1731C15.3068 19.4766 15.1986 19.8333 15.1986 20.1982C15.1991 20.6874 15.3937 21.1565 15.7396 21.5024C16.0856 21.8483 16.5547 22.0429 17.0439 22.0433Z" fill="white"/>
</svg>
