<svg width="14" height="14" viewBox="0 0 14 14" fill="none" xmlns="http://www.w3.org/2000/svg">
<path d="M13.0179 11.1607L10.0296 8.44372C9.88834 8.31534 9.70272 8.24686 9.51193 8.25276C9.32114 8.25866 9.1401 8.33847 9.00704 8.47533L7.2479 10.2845C6.82447 10.2036 5.9732 9.93822 5.09694 9.06417C4.22067 8.18717 3.95529 7.33369 3.87664 6.9132L5.6843 5.15332C5.82133 5.02036 5.90126 4.83929 5.90716 4.64845C5.91306 4.4576 5.84447 4.27194 5.71591 4.13077L2.99964 1.14324C2.87102 1.00162 2.69227 0.91572 2.50134 0.903779C2.31041 0.891837 2.12234 0.954795 1.97708 1.07928L0.381871 2.44734C0.254777 2.5749 0.178918 2.74466 0.168686 2.92443C0.157659 3.10822 -0.0525854 7.4616 3.32309 10.8387C6.26798 13.7829 9.95682 13.9983 10.9728 13.9983C11.1213 13.9983 11.2124 13.9939 11.2367 13.9924C11.4164 13.9824 11.5861 13.9062 11.713 13.7785L13.0803 12.1825C13.2053 12.0378 13.2688 11.8498 13.2571 11.6589C13.2454 11.468 13.1596 11.2892 13.0179 11.1607Z" fill="#EE6B01"/>
</svg>
