<svg width="96" height="81" viewBox="0 0 96 81" fill="none" xmlns="http://www.w3.org/2000/svg">
<path d="M54.2035 60.4157V26.8984L65.1513 22.3139V6.02832L72.1087 11.7187V25.8794L60.5469 30.7072L60.6496 60.4157H54.2035Z" fill="white"/>
<path d="M33.827 60.413H52.8578V26.0049L63.9084 21.3942V5.0213L57.7693 0L23.9024 20.681L56.7461 3.76961V18.3379L45.4912 23.0291L45.6063 58.1591L33.827 60.413Z" fill="white"/>
<path d="M23.9024 32.0237L33.9934 27.8177V33.7812L23.9024 32.0237Z" fill="white"/>
<path d="M8.4681 72.1305V70.727H0V72.1305H8.4681ZM5.14212 80.7576V72.9535H3.32591V80.7576H5.14212ZM11.9214 80.7576V70.727H10.1049V80.7576H11.9214ZM22.0206 72.1305V70.727H13.5525V72.1305H22.0206ZM18.6947 80.7576V72.9535H16.8785V80.7576H18.6947ZM26.84 70.4847L20.8013 80.7576H22.7621L23.9826 78.6134L26.8227 73.6621L29.6571 78.6134L30.8833 80.7576H32.8383L26.84 70.4847V70.4847ZM34.5563 80.7576H36.3725V75.1114L34.5563 73.6758V80.7575V80.7576ZM43.331 70.727V77.5985L34.5563 70.4846V72.4689L45.1471 80.9999V70.727H43.3309H43.331Z" fill="white"/>
<path d="M55.0846 80.2932C54.6723 80.2932 54.2734 80.2353 53.8878 80.1192C53.5025 80.0031 53.1395 79.8381 52.7989 79.6239H52.8123C52.5703 79.4722 52.3552 79.3071 52.1669 79.1285C51.9788 78.9501 51.8487 78.8206 51.7771 78.7404L53.1754 77.4552C53.2383 77.5355 53.339 77.6314 53.4778 77.743C53.6169 77.8546 53.7761 77.9617 53.9553 78.0643C54.1345 78.167 54.3227 78.254 54.5198 78.3253C54.717 78.3968 54.9054 78.4324 55.0846 78.4324C55.2369 78.4324 55.3893 78.4145 55.5416 78.3789C55.6942 78.3431 55.8331 78.2874 55.9585 78.2115C56.0841 78.1357 56.1872 78.0353 56.2678 77.9102C56.3486 77.7853 56.3889 77.6291 56.3889 77.4418C56.3889 77.3703 56.3642 77.2922 56.315 77.2075C56.2655 77.1227 56.1805 77.0312 56.0595 76.9331C55.9384 76.8349 55.7704 76.7301 55.5551 76.6184C55.3401 76.5069 55.0712 76.3886 54.7486 76.2636C54.3721 76.1209 54.0225 75.9668 53.6998 75.8017C53.3771 75.6366 53.097 75.4425 52.8595 75.2194C52.622 74.9964 52.4382 74.742 52.3083 74.4564C52.1783 74.1709 52.1134 73.8406 52.1134 73.4656C52.1134 73.0819 52.1851 72.7227 52.3285 72.388C52.4718 72.0532 52.6758 71.7633 52.9403 71.5177C53.2046 71.2724 53.5228 71.0806 53.8948 70.9422C54.2668 70.8039 54.6769 70.7347 55.1251 70.7347C55.3671 70.7347 55.6249 70.766 55.8982 70.8284C56.1715 70.8908 56.4382 70.9711 56.6982 71.0694C56.9582 71.1676 57.2024 71.2813 57.4309 71.4106C57.6595 71.5401 57.8498 71.6717 58.0024 71.8056L56.846 73.2514C56.6757 73.1354 56.5009 73.0283 56.3218 72.9303C56.1692 72.8497 55.9945 72.7739 55.7974 72.7025C55.6001 72.6311 55.3985 72.5955 55.1923 72.5955C54.8157 72.5955 54.5222 72.6691 54.3116 72.8163C54.1009 72.9635 53.9956 73.1755 53.9956 73.4523C53.9956 73.5771 54.0337 73.6909 54.1098 73.7936C54.1862 73.8962 54.2892 73.9899 54.4192 74.0747C54.5492 74.1594 54.6993 74.2375 54.8697 74.3089C55.0399 74.3805 55.2192 74.4473 55.4075 74.5097C55.9452 74.715 56.3979 74.9226 56.7654 75.1323C57.133 75.3421 57.4286 75.5652 57.6527 75.8017C57.8769 76.0381 58.0359 76.2925 58.1301 76.5648C58.2242 76.837 58.2713 77.1337 58.2713 77.4551C58.2713 77.8477 58.1906 78.2181 58.0292 78.5662C57.868 78.9141 57.646 79.2156 57.3638 79.4698C57.0815 79.7243 56.7453 79.9251 56.3554 80.0722C55.9654 80.2195 55.5418 80.2931 55.0848 80.2931L55.0846 80.2932ZM66.5399 72.6892H63.9584V80.1994H62.0895V72.6892H59.4811V70.8284H66.5399V72.6892V72.6892ZM79.3263 70.7347H80.1463L85.2287 76.3573V70.8284H87.0841V80.2933H86.2506L81.1818 74.684V80.1994H79.3263V70.7347H79.3263ZM91.8168 72.6892V74.5769H96V76.451H91.8168V78.3387H95.9984V80.1994H89.9479V70.8284H95.9984V72.6892H91.8168Z" fill="white"/>
<path d="M72.2785 80.2932C71.678 80.2932 71.0908 80.1815 70.5172 79.9584C69.9435 79.7354 69.4303 79.4164 68.9777 79.0014C68.525 78.5863 68.162 78.0844 67.8886 77.4952C67.6152 76.9062 67.4785 76.2502 67.4785 75.5273C67.4785 74.9026 67.5996 74.3 67.8416 73.72C68.0836 73.14 68.4174 72.629 68.8432 72.1872C69.2691 71.7455 69.7755 71.3929 70.3625 71.1295C70.9497 70.8664 71.5883 70.7347 72.2785 70.7347C72.8969 70.7347 73.4953 70.853 74.0734 71.0894C74.6515 71.326 75.1624 71.6562 75.6061 72.0801C76.0498 72.5042 76.4061 73.0106 76.6749 73.5995C76.9439 74.1886 77.0784 74.8312 77.0784 75.5274C77.0784 76.1432 76.9597 76.7389 76.7221 77.3146C76.4845 77.8901 76.1528 78.3988 75.7272 78.8407C75.3013 79.2826 74.7949 79.6349 74.2078 79.8983C73.6207 80.1615 72.9776 80.2933 72.2784 80.2933L72.2785 80.2932ZM72.2785 72.5955C71.8751 72.5955 71.4965 72.6713 71.1424 72.8231C70.7883 72.9748 70.4768 73.1846 70.2079 73.4525C69.9391 73.7201 69.7285 74.0324 69.576 74.3893C69.4237 74.7464 69.3474 75.1258 69.3474 75.5274C69.3474 75.9289 69.4259 76.306 69.5827 76.6586C69.7396 77.0111 69.9501 77.319 70.2147 77.5823C70.4789 77.8456 70.7883 78.0532 71.1424 78.2048C71.4965 78.3565 71.8751 78.4324 72.2785 78.4324C72.6818 78.4324 73.0605 78.3566 73.4145 78.2048C73.7687 78.0531 74.078 77.8456 74.3423 77.5823C74.6067 77.319 74.8151 77.0111 74.9674 76.6586C75.1198 76.306 75.1962 75.9289 75.1962 75.5274C75.1962 75.1258 75.1177 74.7464 74.9607 74.3893C74.804 74.0324 74.5933 73.72 74.3288 73.4525C74.0645 73.1846 73.7552 72.9749 73.401 72.8231C73.0471 72.6714 72.6727 72.5955 72.2784 72.5955H72.2785Z" fill="white"/>
<path d="M72.2903 78.5791C70.9138 78.5791 69.7443 77.6799 69.3431 76.4403L71.1282 74.9228L71.2186 75.4522L71.5542 75.6024L71.6484 76.4602L71.3657 77.4964L73.9899 74.9228L73.956 75.6718L74.2613 75.8351L74.6581 77.4803C74.0898 78.1519 73.2394 78.5791 72.2904 78.5791H72.2903ZM72.2903 72.4143C73.9974 72.4143 75.3861 73.797 75.3861 75.4966C75.3861 75.5589 75.3842 75.6206 75.3807 75.682L74.0833 74.2557L72.5394 75.5629L71.3007 74.1204L69.204 75.7359C69.1977 75.6569 69.1947 75.5772 69.1947 75.4967C69.1947 73.797 70.5833 72.4143 72.2904 72.4143L72.2903 72.4143ZM75.6493 74.0837C75.4658 73.6513 75.2029 73.2632 74.8683 72.9298C74.5334 72.5966 74.1437 72.3349 73.7095 72.1521C73.2598 71.9626 72.7824 71.8667 72.2903 71.8667C71.7985 71.8667 71.3209 71.9626 70.8713 72.1521C70.4371 72.3349 70.0473 72.5966 69.7126 72.9298C69.3778 73.2632 69.1151 73.6513 68.9314 74.0837C68.7411 74.5314 68.6449 75.0068 68.6449 75.4966C68.6449 75.9865 68.7411 76.462 68.9314 76.9096C69.1151 77.3419 69.3778 77.7301 69.7126 78.0635C70.0473 78.3967 70.4371 78.6583 70.8713 78.8412C71.3209 79.0305 71.7985 79.1265 72.2903 79.1265C72.7824 79.1265 73.2599 79.0305 73.7095 78.8412C74.1437 78.6583 74.5334 78.3967 74.8683 78.0635C75.2029 77.7301 75.4658 77.3419 75.6493 76.9096C75.8397 76.4619 75.9359 75.9865 75.9359 75.4966C75.9359 75.0068 75.8397 74.5313 75.6493 74.0837Z" fill="white"/>
</svg>
