<svg width="39" height="39" viewBox="0 0 39 39" fill="none" xmlns="http://www.w3.org/2000/svg">
<path fill-rule="evenodd" clip-rule="evenodd" d="M19.5623 0.795532C30.0794 0.795532 38.6051 9.32112 38.6051 19.8383C38.6051 30.3555 30.0794 38.8811 19.5623 38.8811C9.04519 38.8811 0.519531 30.3553 0.519531 19.8383C0.519531 9.32134 9.04541 0.795532 19.5623 0.795532Z" fill="#FF542F"/>
<path fill-rule="evenodd" clip-rule="evenodd" d="M28.1098 10.5066C25.5272 9.36656 22.3667 8.94397 19.5623 8.94397C16.758 8.94397 13.5976 9.36656 11.0154 10.5066C9.53919 11.1581 7.47461 12.4316 7.47461 14.2798C7.47461 14.8857 8.22449 16.5062 8.4748 17.0801L8.49079 17.1167C8.60741 17.3903 8.81943 17.6123 9.08743 17.7413C9.35542 17.8703 9.66116 17.8977 9.94779 17.8182L13.337 16.9102C13.6543 16.8246 13.9247 16.6167 14.0889 16.3321C14.2532 16.0475 14.298 15.7094 14.2134 15.3919L14.1515 15.1602C14.0764 14.8799 14.0616 14.5868 14.1081 14.3003C14.1546 14.0138 14.2614 13.7404 14.4214 13.4982C14.5813 13.256 14.7908 13.0505 15.036 12.8953C15.2813 12.74 15.5566 12.6385 15.844 12.5975C18.311 12.2545 20.8137 12.2545 23.2807 12.5975C23.568 12.6385 23.8434 12.74 24.0886 12.8953C24.3338 13.0505 24.5433 13.256 24.7033 13.4982C24.8632 13.7404 24.97 14.0138 25.0165 14.3002C25.063 14.5867 25.0483 14.8798 24.9732 15.1602L24.9112 15.3918C24.8267 15.7093 24.8715 16.0474 25.0357 16.332C25.2 16.6166 25.4703 16.8245 25.7876 16.9102L29.1768 17.8182C29.2842 17.8473 29.395 17.8621 29.5063 17.8623C29.7466 17.8622 29.9817 17.7915 30.1821 17.6589C30.3826 17.5263 30.5397 17.3377 30.6339 17.1166L30.65 17.0794C30.9001 16.5059 31.6501 14.885 31.6501 14.2797C31.6501 12.4315 29.5857 11.158 28.1098 10.5065V10.5066ZM29.5467 23.115C30.0674 23.4423 30.2502 24.0253 30.2502 24.6162V27.9092C30.2496 28.2633 30.1086 28.6027 29.8582 28.8531C29.6078 29.1035 29.2683 29.2444 28.9142 29.245H10.2106C9.85649 29.2444 9.51704 29.1035 9.26663 28.8531C9.01622 28.6028 8.87525 28.2633 8.87463 27.9092V24.6162C8.87463 24.0254 9.05776 23.4423 9.57809 23.1151L16.9958 18.4503V16.5282C16.9962 16.3729 17.0581 16.224 17.168 16.1142C17.2778 16.0043 17.4267 15.9424 17.582 15.942H21.5428C21.6982 15.9424 21.847 16.0043 21.9569 16.1142C22.0667 16.224 22.1286 16.3729 22.129 16.5282V18.4503L29.5467 23.1151V23.115ZM19.5623 19.8114C18.8113 19.8114 18.0772 20.0341 17.4528 20.4513C16.8283 20.8685 16.3417 21.4615 16.0543 22.1554C15.7669 22.8492 15.6917 23.6126 15.8382 24.3492C15.9847 25.0857 16.3463 25.7623 16.8773 26.2933C17.4083 26.8244 18.0849 27.186 18.8214 27.3325C19.558 27.479 20.3215 27.4039 21.0153 27.1165C21.7091 26.8291 22.3021 26.3424 22.7193 25.718C23.1366 25.0936 23.3593 24.3595 23.3593 23.6085C23.3582 22.6018 22.9578 21.6366 22.246 20.9248C21.5341 20.2129 20.569 19.8125 19.5623 19.8114ZM19.5623 25.7937C19.9945 25.7937 20.417 25.6655 20.7763 25.4253C21.1356 25.1852 21.4157 24.8439 21.581 24.4446C21.7464 24.0453 21.7896 23.6059 21.7053 23.182C21.621 22.7581 21.4128 22.3688 21.1072 22.0632C20.8016 21.7576 20.4122 21.5495 19.9883 21.4652C19.5644 21.3809 19.1251 21.4242 18.7258 21.5896C18.3265 21.755 17.9852 22.0351 17.7451 22.3944C17.505 22.7538 17.3769 23.1763 17.3769 23.6085C17.3775 24.1879 17.6079 24.7434 18.0177 25.153C18.4274 25.5627 18.9829 25.7931 19.5623 25.7937Z" fill="white"/>
</svg>
