<svg width="39" height="39" viewBox="0 0 39 39" fill="none" xmlns="http://www.w3.org/2000/svg">
<path d="M19.5623 38.6313C30.0793 38.6313 38.6051 30.1056 38.6051 19.5886C38.6051 9.07152 30.0793 0.545776 19.5623 0.545776C9.04527 0.545776 0.519531 9.07152 0.519531 19.5886C0.519531 30.1056 9.04527 38.6313 19.5623 38.6313Z" fill="#3A559F"/>
<path d="M25.596 17.3337L25.213 20.6511C25.1971 20.8024 25.1261 20.9427 25.0136 21.0452C24.9011 21.1477 24.7549 21.2054 24.6027 21.2072H21.1404L21.1231 31.0423C21.1243 31.1589 21.0795 31.2712 20.9985 31.355C20.9175 31.4389 20.8068 31.4874 20.6903 31.4903H17.1825C17.1242 31.4903 17.0665 31.4786 17.0128 31.4558C16.9591 31.4329 16.9106 31.3995 16.8702 31.3575C16.8298 31.3154 16.7983 31.2657 16.7776 31.2111C16.7569 31.1566 16.7474 31.0985 16.7497 31.0402V21.2072H14.153C14.0714 21.2063 13.9908 21.1894 13.9158 21.1574C13.8408 21.1254 13.7728 21.079 13.7157 21.0207C13.6587 20.9624 13.6136 20.8935 13.5832 20.8178C13.5528 20.7421 13.5376 20.6612 13.5384 20.5796L13.5255 17.2623C13.5243 17.1805 13.5393 17.0992 13.5696 17.0231C13.5998 16.9471 13.6448 16.8778 13.7018 16.8191C13.7589 16.7604 13.827 16.7135 13.9022 16.6812C13.9773 16.6488 14.0582 16.6316 14.14 16.6304H16.7497V13.4278C16.7497 9.71012 18.957 7.68683 22.1942 7.68683H24.8472C24.9293 7.68768 25.0103 7.70471 25.0858 7.73695C25.1612 7.76919 25.2295 7.81601 25.2868 7.87471C25.3441 7.93341 25.3892 8.00285 25.4197 8.07904C25.4501 8.15524 25.4651 8.23668 25.464 8.3187V11.1102C25.4651 11.1922 25.4501 11.2737 25.4197 11.3499C25.3892 11.426 25.3441 11.4955 25.2868 11.5542C25.2295 11.6129 25.1612 11.6597 25.0858 11.692C25.0103 11.7242 24.9293 11.7412 24.8472 11.7421H23.22C21.4607 11.7421 21.1188 12.6077 21.1188 13.8584V16.6304H24.9857C25.0737 16.6315 25.1604 16.6512 25.2402 16.6883C25.32 16.7253 25.391 16.7787 25.4486 16.8452C25.5063 16.9116 25.5492 16.9895 25.5746 17.0737C25.6 17.1579 25.6073 17.2465 25.596 17.3337Z" fill="white"/>
</svg>
