<?xml version="1.0" encoding="UTF-8"?>
<!DOCTYPE svg PUBLIC "-//W3C//DTD SVG 1.1//EN" "http://www.w3.org/Graphics/SVG/1.1/DTD/svg11.dtd">
<!-- Creator: CorelDRAW 2020 (64-Bit) -->
<svg xmlns="http://www.w3.org/2000/svg" xml:space="preserve" width="1.24776in" height="1.24774in" version="1.1" style="shape-rendering:geometricPrecision; text-rendering:geometricPrecision; image-rendering:optimizeQuality; fill-rule:evenodd; clip-rule:evenodd"
viewBox="0 0 19.59 19.59"
 xmlns:xlink="http://www.w3.org/1999/xlink"
 xmlns:xodm="http://www.corel.com/coreldraw/odm/2003">
 <defs>
  <style type="text/css">
   <![CDATA[
    .fil0 {fill:#FEFEFE;fill-opacity:0.400000}
    .fil1 {fill:black;fill-rule:nonzero;fill-opacity:0.400000}
   ]]>
  </style>
 </defs>
 <g id="Layer_x0020_1">
  <metadata id="CorelCorpID_0Corel-Layer"/>
  <g id="_2815742035088">
   <path class="fil0" d="M9.79 19.59c5.41,0 9.79,-4.38 9.79,-9.79 0,-5.41 -4.38,-9.79 -9.79,-9.79 -5.41,0 -9.79,4.38 -9.79,9.79 0,5.41 4.38,9.79 9.79,9.79z"/>
   <path id="Chevron_Right_1_" class="fil1" d="M7.56 9.49l3.86 -3.86c0.17,-0.17 0.44,-0.17 0.61,0 0.17,0.17 0.17,0.44 0,0.61l-3.55 3.55 3.55 3.55c0.17,0.17 0.17,0.44 0,0.61 -0.17,0.17 -0.44,0.17 -0.61,0l-3.86 -3.86c-0.17,-0.17 -0.17,-0.45 0,-0.61z"/>
  </g>
 </g>
</svg>
