<?xml version="1.0" encoding="UTF-8"?>
<!DOCTYPE svg PUBLIC "-//W3C//DTD SVG 1.1//EN" "http://www.w3.org/Graphics/SVG/1.1/DTD/svg11.dtd">
<!-- Creator: CorelDRAW 2020 (64-Bit) -->
<svg xmlns="http://www.w3.org/2000/svg" xml:space="preserve" width="1.08702in" height="1.08702in" version="1.1" style="shape-rendering:geometricPrecision; text-rendering:geometricPrecision; image-rendering:optimizeQuality; fill-rule:evenodd; clip-rule:evenodd"
viewBox="0 0 17.47 17.47"
 xmlns:xlink="http://www.w3.org/1999/xlink"
 xmlns:xodm="http://www.corel.com/coreldraw/odm/2003">
 <defs>
  <style type="text/css">
   <![CDATA[
    .fil0 {fill:#FEFEFE;fill-opacity:0.129412}
    .fil1 {fill:white;fill-rule:nonzero;fill-opacity:0.400000}
   ]]>
  </style>
 </defs>
 <g id="Layer_x0020_1">
  <metadata id="CorelCorpID_0Corel-Layer"/>
  <g id="_2813261433200">
   <path class="fil0" d="M8.74 17.47c-4.82,0 -8.74,-3.91 -8.74,-8.74 0,-4.82 3.91,-8.74 8.74,-8.74 4.82,0 8.74,3.91 8.74,8.74 0,4.82 -3.91,8.74 -8.74,8.74z"/>
   <path id="Chevron_Right_1_" class="fil1" d="M10.73 8.46l-3.44 -3.44c-0.15,-0.15 -0.4,-0.15 -0.55,0 -0.15,0.15 -0.15,0.4 0,0.55l3.17 3.17 -3.17 3.17c-0.15,0.15 -0.15,0.4 0,0.55 0.15,0.15 0.4,0.15 0.55,0l3.44 -3.44c0.15,-0.15 0.15,-0.4 -0,-0.55z"/>
  </g>
 </g>
</svg>
