<svg width="28" height="23" viewBox="0 0 28 23" fill="none" xmlns="http://www.w3.org/2000/svg">
<path d="M27.1909 21.3773L27.1732 20.9687C27.1642 20.7599 26.9886 20.5984 26.7837 20.6073C26.5777 20.6165 26.4179 20.7931 26.427 21.0018L26.4447 21.4137C26.4449 21.4162 26.445 21.4187 26.4452 21.4212C26.45 21.4973 26.4242 21.5699 26.3728 21.6254C26.3216 21.6807 26.2523 21.7111 26.1777 21.7111H23.9924V14.7272L24.5558 14.9289C25.5267 15.2764 26.1966 16.174 26.2635 17.2162L26.3255 18.6512C26.3345 18.8599 26.5086 19.0221 26.7149 19.0126C26.921 19.0035 27.0808 18.8269 27.0717 18.6181L27.0097 17.1794C27.0095 17.1769 27.0094 17.1744 27.0092 17.1719C26.9246 15.8251 26.0593 14.6646 24.8047 14.2156L23.7615 13.8421C23.7554 13.8395 23.7497 13.8362 23.7434 13.834L20.6278 12.7186C20.6273 12.7184 20.6268 12.7182 20.6262 12.718C20.6147 12.714 20.6032 12.7106 20.5915 12.7075C20.5856 12.7059 20.5796 12.7048 20.5737 12.7035C20.3676 12.6495 20.1442 12.7096 19.9922 12.8637L19.8959 12.9615L19.0738 12.5435L19.0737 11.8135C19.3221 11.6403 19.5561 11.4337 19.7685 11.2031C19.771 11.2004 19.7735 11.1977 19.7761 11.1949C20.3125 10.6097 20.7085 9.87301 20.8432 9.14107C20.8468 9.12176 20.8503 9.10239 20.8535 9.08307C20.8569 9.06303 20.86 9.04304 20.8629 9.02305C20.8678 8.98961 20.8721 8.95622 20.8759 8.92289C20.8769 8.91489 20.878 8.90684 20.8789 8.89884C20.8827 8.8626 20.8859 8.82641 20.8883 8.79037H21.0433C21.5248 8.79037 21.9165 8.39361 21.9165 7.90593V6.91463C21.9165 6.86775 21.9124 6.82127 21.9052 6.77537C21.9602 6.67406 21.9919 6.55765 21.9919 6.4336V6.01093C21.9919 5.68957 21.7811 5.41784 21.4939 5.33383V5.27417C21.4939 5.23808 21.4935 5.20204 21.4926 5.16621C21.4673 4.15736 21.0762 3.20168 20.3915 2.4753C19.7669 1.81269 18.9498 1.39324 18.0698 1.27874C18.0564 1.25434 18.0418 1.23076 18.0267 1.2076C18.0228 1.20168 18.0187 1.19597 18.0147 1.19011C17.9994 1.16767 17.9834 1.14592 17.9665 1.12484C17.9636 1.12115 17.9607 1.11736 17.9578 1.11372C17.937 1.08833 17.9151 1.06393 17.8922 1.04061C17.8914 1.03983 17.8906 1.03911 17.8897 1.03828C17.8674 1.01574 17.844 0.994348 17.8198 0.97389C17.8171 0.971605 17.8144 0.969268 17.8117 0.966984C17.7619 0.925651 17.7084 0.889044 17.652 0.857318C17.6469 0.854462 17.6419 0.851606 17.6368 0.848802C17.6087 0.83364 17.5802 0.819413 17.5508 0.806795C17.5493 0.806172 17.5477 0.805653 17.5462 0.804978C17.5191 0.79345 17.4913 0.783377 17.4631 0.774134C17.4555 0.77159 17.4478 0.769149 17.4401 0.766813C17.4102 0.757778 17.3801 0.749522 17.3493 0.743083C17.3475 0.742719 17.3458 0.742512 17.3441 0.7422C17.3146 0.736177 17.2846 0.731815 17.2544 0.728284C17.2461 0.727298 17.2378 0.726467 17.2294 0.725688C17.1972 0.722728 17.1648 0.720703 17.132 0.720703H16.7795C16.7467 0.720703 16.7143 0.722728 16.6821 0.725688C16.6737 0.726467 16.6654 0.72735 16.6571 0.728284C16.6269 0.731763 16.5971 0.736177 16.5676 0.742148C16.5658 0.742512 16.564 0.742719 16.5623 0.743083C16.5315 0.749522 16.5013 0.757726 16.4715 0.766761C16.4637 0.769097 16.456 0.77159 16.4483 0.774134C16.4203 0.783377 16.3925 0.79345 16.3654 0.804926C16.3639 0.805601 16.3622 0.80612 16.3607 0.806795C16.3313 0.819413 16.3028 0.83364 16.2748 0.84875C16.2696 0.851554 16.2645 0.854462 16.2593 0.857318C16.232 0.872688 16.2051 0.888992 16.1792 0.906699C16.1791 0.906751 16.179 0.906802 16.179 0.906854C16.1516 0.925547 16.1253 0.945746 16.0997 0.966932C16.0969 0.969216 16.0942 0.971605 16.0915 0.973942C16.0674 0.994348 16.044 1.01569 16.0217 1.03817C16.0209 1.039 16.02 1.03978 16.0192 1.04061C15.9963 1.06388 15.9745 1.08828 15.9537 1.11362C15.9507 1.11731 15.9478 1.1211 15.9448 1.12484C15.928 1.14587 15.912 1.16762 15.8967 1.19C15.8927 1.19587 15.8886 1.20158 15.8847 1.20755C15.8695 1.23066 15.855 1.25428 15.8416 1.27869C14.9616 1.39318 14.1445 1.81269 13.5199 2.4752C13.1863 2.82917 12.923 3.23782 12.7371 3.68027L10.5737 1.62742C10.1296 1.2061 9.43486 1.20703 8.99206 1.62965L6.64526 3.86897L6.64485 3.60716C6.64464 3.4571 6.58677 3.31612 6.48183 3.2102C6.3771 3.10443 6.23813 3.04622 6.09029 3.04622C6.09003 3.04622 6.08973 3.04622 6.08947 3.04622L4.33014 3.04871C4.02441 3.04918 3.77594 3.30148 3.7763 3.61132L3.78112 6.60194L1.30929 8.96058C1.08471 9.17488 0.95599 9.46488 0.946814 9.77726C0.937638 10.0896 1.04908 10.3869 1.26059 10.6143C1.4721 10.8418 1.7584 10.9722 2.0668 10.9815C2.07864 10.9819 2.09038 10.982 2.10212 10.982C2.39754 10.982 2.67728 10.8697 2.8932 10.6636L3.73027 9.86486L3.73391 12.5172C3.73421 12.726 3.90133 12.895 4.10741 12.895C4.10756 12.895 4.10776 12.895 4.10792 12.895C4.3142 12.8947 4.48121 12.7251 4.4809 12.5162L4.47624 9.15307L9.78611 4.08628L11.9194 6.11052V6.43355C11.9194 6.45546 11.9206 6.47716 11.9226 6.49871C11.9229 6.50271 11.9232 6.50671 11.9237 6.51071C11.9337 6.60526 11.9615 6.69541 12.0059 6.77662C11.9988 6.82205 11.9949 6.86811 11.9949 6.91458V7.90588C11.9949 8.39356 12.3866 8.79032 12.8681 8.79032H13.0226C13.025 8.82771 13.0283 8.8652 13.0322 8.90284C13.0332 8.91343 13.0347 8.92408 13.036 8.93467C13.0395 8.96588 13.0435 8.99714 13.0481 9.0285C13.0508 9.0473 13.0537 9.06615 13.0568 9.08494C13.0605 9.10732 13.0646 9.12981 13.0688 9.15224C13.0774 9.19871 13.0871 9.24524 13.0978 9.29171C13.0997 9.30022 13.1015 9.30874 13.1036 9.31726C13.111 9.34846 13.119 9.37962 13.1274 9.41077C13.1291 9.417 13.1308 9.42329 13.1325 9.42952C13.199 9.67253 13.2926 9.91382 13.4091 10.1478C13.4103 10.1503 13.4116 10.1528 13.4128 10.1553C13.4594 10.2485 13.5095 10.3403 13.563 10.4307C13.5701 10.4427 13.5771 10.4546 13.5843 10.4665C13.5987 10.4904 13.6134 10.5143 13.6283 10.538C13.6396 10.5559 13.6511 10.5737 13.6626 10.5914C13.6756 10.6114 13.6884 10.6315 13.7016 10.6514C13.7253 10.6867 13.7496 10.7217 13.7743 10.7565C13.7849 10.7714 13.7957 10.786 13.8064 10.8007C13.8248 10.826 13.8435 10.8511 13.8625 10.876C13.8728 10.8897 13.8831 10.9033 13.8936 10.9167C13.9194 10.9499 13.9456 10.9828 13.9723 11.0153C13.9762 11.02 13.9798 11.0247 13.9837 11.0293C14.0131 11.0648 14.0431 11.0996 14.0736 11.1342C14.0843 11.1464 14.0951 11.1584 14.106 11.1705C14.1274 11.1943 14.1491 11.2179 14.171 11.2413C14.1832 11.2542 14.1952 11.2672 14.2075 11.28C14.2338 11.3074 14.2605 11.3344 14.2875 11.3612C14.3069 11.3804 14.3266 11.3993 14.3464 11.4181C14.363 11.4339 14.3795 11.4498 14.3964 11.4653C14.4167 11.4841 14.4373 11.5026 14.4579 11.521C14.4689 11.5308 14.48 11.5404 14.491 11.55C14.6027 11.6475 14.7184 11.7382 14.8375 11.8213L14.8374 12.5433L14.0156 12.9614L13.9191 12.8635C13.8267 12.7698 13.708 12.7108 13.5827 12.691C13.5688 12.6889 13.5548 12.6871 13.5408 12.6859C13.5267 12.6847 13.5126 12.6839 13.4985 12.6837C13.4844 12.6835 13.4702 12.6838 13.4561 12.6845C13.4173 12.6867 13.3786 12.6929 13.3405 12.7027C13.3332 12.7042 13.3258 12.7057 13.3186 12.7076C13.3072 12.7107 13.2935 12.7148 13.2835 12.7184L11.8811 13.2205L11.8774 10.5295C11.877 10.1825 11.5981 9.90069 11.2558 9.90069C11.2555 9.90069 11.2552 9.90069 11.2549 9.90069L8.33344 9.90484C8.1674 9.9051 8.01135 9.97079 7.89412 10.0899C7.77688 10.209 7.71239 10.3672 7.71265 10.5354L7.71905 15.1661C7.71854 15.1668 7.71803 15.1674 7.71747 15.168C7.70737 15.1796 7.69778 15.1917 7.68784 15.2035C7.67194 15.2223 7.65595 15.2411 7.64047 15.2603C7.63073 15.2724 7.62145 15.2849 7.61192 15.2971C7.59679 15.3165 7.58157 15.3357 7.56691 15.3554C7.55753 15.3679 7.54861 15.3809 7.53938 15.3936C7.52508 15.4133 7.51057 15.4329 7.49668 15.453C7.48771 15.466 7.47925 15.4793 7.47048 15.4923C7.4569 15.5125 7.44316 15.5326 7.42999 15.5531C7.42142 15.5665 7.41332 15.5802 7.40497 15.5937C7.39215 15.6143 7.37918 15.6349 7.36683 15.6558C7.35878 15.6694 7.35125 15.6833 7.34335 15.697C7.33125 15.7182 7.31895 15.7393 7.30726 15.7607C7.29957 15.7749 7.29235 15.7893 7.28486 15.8037C7.27369 15.825 7.26231 15.8462 7.25154 15.8678C7.24401 15.8829 7.23703 15.8983 7.2297 15.9135C7.21955 15.9346 7.20925 15.9557 7.19951 15.9771C7.19238 15.9927 7.18582 16.0086 7.17895 16.0244C7.16967 16.0457 7.16019 16.0669 7.15132 16.0884C7.14466 16.1046 7.13851 16.1211 7.1321 16.1375C7.12369 16.1588 7.11508 16.1801 7.10713 16.2016C7.10088 16.2186 7.09519 16.2357 7.08919 16.2527C7.08171 16.2741 7.07397 16.2953 7.06684 16.3168C7.0611 16.3342 7.05592 16.3519 7.05049 16.3694C7.04383 16.3907 7.0369 16.412 7.03065 16.4336C7.02547 16.4515 7.02086 16.4697 7.01594 16.4877C7.01009 16.5092 7.00399 16.5306 6.99856 16.5522C6.994 16.5704 6.99 16.5888 6.98574 16.6072C6.98067 16.6289 6.97534 16.6505 6.97067 16.6724C6.96667 16.6912 6.96329 16.7102 6.9596 16.7291C6.9554 16.7507 6.95094 16.7722 6.94709 16.7939C6.94366 16.8135 6.94084 16.8333 6.93776 16.853C6.93443 16.8742 6.93079 16.8954 6.92787 16.9167C6.92505 16.937 6.9229 16.9574 6.92049 16.9777C6.91798 16.9988 6.91516 17.0198 6.913 17.0409C6.9109 17.0616 6.90947 17.0823 6.90777 17.1031C6.90619 17.1224 6.90419 17.1416 6.9029 17.161L4.50259 17.1644C4.49418 17.1644 4.48736 17.1575 4.48736 17.149L4.48424 14.8668C4.48393 14.6581 4.31681 14.489 4.11074 14.489C4.11058 14.489 4.11038 14.489 4.11022 14.489C3.90394 14.4894 3.73693 14.6589 3.73724 14.8679L3.74037 17.15C3.74098 17.5754 4.0828 17.921 4.50259 17.921C4.50295 17.921 4.50331 17.921 4.50361 17.921L6.86994 17.9177L6.72056 21.3773C6.70401 21.6587 6.80356 21.9376 6.99395 22.1432C7.185 22.3494 7.45469 22.4677 7.73377 22.4677H26.1777C26.4567 22.4677 26.7264 22.3494 26.9174 22.1432C27.1079 21.9376 27.2074 21.6587 27.1909 21.3773ZM21.1695 7.90588C21.1695 7.97634 21.1129 8.03367 21.0433 8.03367H20.8941V7.13744H21.1695V7.90588ZM16.4614 1.73085C16.4617 1.7295 16.4623 1.72826 16.4627 1.72691C16.4764 1.67259 16.503 1.62441 16.5385 1.58515C16.5394 1.58416 16.5403 1.58318 16.5411 1.58224C16.5524 1.57009 16.5645 1.55888 16.5774 1.5486C16.5789 1.5474 16.5805 1.54626 16.582 1.54512C16.608 1.52507 16.637 1.50908 16.6681 1.49761C16.6704 1.49672 16.6727 1.49579 16.6751 1.49501C16.69 1.48992 16.7054 1.48592 16.7211 1.48301C16.7239 1.4825 16.7268 1.48213 16.7296 1.48172C16.746 1.47917 16.7625 1.47746 16.7795 1.47746H17.132C17.1489 1.47746 17.1655 1.47917 17.1818 1.48172C17.1846 1.48213 17.1875 1.4825 17.1903 1.48301C17.206 1.48592 17.2214 1.48987 17.2363 1.49501C17.2387 1.49584 17.2411 1.49677 17.2435 1.49766C17.2744 1.50908 17.3034 1.52507 17.3293 1.54506C17.3309 1.54626 17.3326 1.54745 17.3341 1.54865C17.3469 1.55888 17.359 1.57004 17.3702 1.58214C17.3712 1.58318 17.372 1.58422 17.373 1.58526C17.4084 1.62451 17.4349 1.67259 17.4487 1.72685C17.449 1.7282 17.4497 1.7294 17.45 1.73075C17.4561 1.75598 17.4597 1.78226 17.4597 1.80936V3.08594C17.4597 3.26898 17.3127 3.4179 17.132 3.4179H16.7795C16.5988 3.4179 16.4518 3.26898 16.4518 3.08594V1.80936C16.4518 1.78226 16.4553 1.75609 16.4614 1.73085ZM5.89816 3.80308L5.89939 4.5806L4.52694 5.89026L4.52361 3.80505L5.89816 3.80308ZM12.4865 4.52302C12.4793 4.56186 12.4724 4.6007 12.4663 4.63985C12.4629 4.66176 12.4602 4.68367 12.4571 4.70564C12.4522 4.74131 12.4472 4.77693 12.4432 4.81281C12.4398 4.84288 12.4375 4.87299 12.4347 4.90311C12.4322 4.93141 12.4292 4.95955 12.4273 4.98795C12.4232 5.04736 12.4202 5.10676 12.4188 5.16621C12.4178 5.20209 12.4174 5.23813 12.4174 5.27422V5.33383C12.4166 5.33403 12.4159 5.3344 12.4152 5.33461C12.3925 5.34136 12.3704 5.34961 12.3487 5.35859C12.3417 5.3615 12.3348 5.36452 12.3279 5.36763C12.3087 5.37635 12.29 5.38575 12.2718 5.39619C12.2692 5.39775 12.2662 5.39884 12.2636 5.40039L10.0407 3.29115C9.89679 3.15464 9.67282 3.15484 9.52929 3.29188L2.38099 10.113C2.30168 10.1887 2.19859 10.229 2.08905 10.2253C1.98011 10.2219 1.87902 10.1759 1.80428 10.0956C1.72954 10.0152 1.69017 9.91024 1.6934 9.7999C1.69668 9.68956 1.74215 9.58711 1.82146 9.51146L9.50422 2.18037C9.5826 2.1056 9.68328 2.06816 9.78396 2.06816C9.88428 2.06816 9.98465 2.10528 10.0629 2.17959L12.493 4.48537C12.4905 4.49794 12.4888 4.5105 12.4865 4.52302ZM12.8681 8.03372C12.7985 8.03372 12.7419 7.9764 12.7419 7.90593V7.1375H13.0171V8.03372H12.8681ZM12.6664 6.26313V6.06363H12.7909C12.9972 6.06363 13.1644 5.89425 13.1644 5.68531V5.27411C13.1644 5.24446 13.1648 5.21492 13.1655 5.18537C13.167 5.12774 13.1703 5.07005 13.1747 5.01241C13.1758 4.99772 13.1775 4.98313 13.1788 4.96843C13.1828 4.92404 13.1875 4.87969 13.1933 4.8354C13.1952 4.82096 13.1972 4.80658 13.1993 4.79215C13.2061 4.74531 13.2137 4.69863 13.2224 4.6521C13.2244 4.64167 13.2262 4.63123 13.2282 4.62079C13.2395 4.56378 13.2519 4.50697 13.2661 4.45053C13.2661 4.45022 13.2662 4.44991 13.2662 4.4496C13.4028 3.90755 13.6738 3.40751 14.0601 2.99767C14.5103 2.52006 15.0832 2.1988 15.7047 2.06868V3.08573C15.7047 3.68599 16.1868 4.17429 16.7794 4.17429H17.1319C17.7245 4.17429 18.2066 3.68593 18.2066 3.08573V2.06878C18.8281 2.19891 19.401 2.52017 19.8513 2.99777C20.4076 3.5879 20.7253 4.3648 20.7458 5.18543C20.7466 5.21492 20.7469 5.24446 20.7469 5.27411V5.68531C20.7469 5.89425 20.9141 6.06363 21.1204 6.06363H21.245V6.26313H12.6664ZM13.7783 8.85289C13.7776 8.84707 13.777 8.84126 13.7763 8.83539C13.773 8.80367 13.7703 8.7721 13.7683 8.74063C13.768 8.73559 13.7676 8.73056 13.7673 8.72552C13.7653 8.68922 13.7641 8.65308 13.7641 8.6172V7.1375H20.1471V8.60931C20.1471 8.64555 20.146 8.68211 20.144 8.71877C20.1437 8.72297 20.1433 8.72718 20.1431 8.73139C20.1411 8.76358 20.1384 8.79593 20.1349 8.82838C20.1343 8.83409 20.1337 8.83981 20.133 8.84552C20.1289 8.88109 20.1241 8.91676 20.1182 8.95259C20.1182 8.9528 20.1182 8.95295 20.1181 8.95316C19.9857 9.76241 19.414 10.6262 18.7134 11.144C18.7084 11.1477 18.7033 11.1515 18.6983 11.1551C18.6761 11.1713 18.6537 11.1868 18.6312 11.2023C18.6189 11.2108 18.6067 11.2195 18.5942 11.2278C18.5877 11.2321 18.5811 11.2362 18.5745 11.2405C18.5517 11.2554 18.5289 11.2703 18.5058 11.2845C18.5046 11.2852 18.5036 11.2861 18.5024 11.2869C18.2942 11.4151 18.0778 11.5115 17.8607 11.5662L17.8216 11.576C17.0249 11.7767 16.842 11.7763 16.0423 11.572C15.8272 11.5171 15.6129 11.4212 15.4066 11.2938C15.4061 11.2935 15.4057 11.2931 15.4053 11.2928C15.397 11.2878 15.389 11.2823 15.3807 11.2771C15.3563 11.2617 15.332 11.2462 15.3078 11.2299C15.3018 11.2259 15.2959 11.2217 15.29 11.2176C14.5166 10.6879 13.8791 9.72658 13.7783 8.85289ZM15.2041 13.2036C15.4331 13.1156 15.5845 12.8955 15.5845 12.6445L15.5845 12.2193C15.6756 12.2532 15.7674 12.2821 15.8598 12.3057C16.3186 12.4229 16.6277 12.4814 16.9373 12.4814C17.2433 12.4814 17.5499 12.4242 18.002 12.3104L18.0411 12.3005C18.137 12.2764 18.2323 12.2463 18.3268 12.2111L18.3269 12.6445C18.3269 12.8956 18.4782 13.1157 18.7073 13.2037L19.3058 13.508C19.2986 13.5136 19.2916 13.5194 19.2844 13.525C19.2679 13.5375 19.2512 13.5496 19.2346 13.5618C19.2031 13.5849 19.1715 13.6076 19.1395 13.6297C19.1216 13.642 19.1036 13.6542 19.0855 13.6662C19.0529 13.6879 19.0199 13.709 18.9866 13.7297C18.9696 13.7402 18.9528 13.751 18.9357 13.7613C18.8951 13.7857 18.8538 13.8091 18.8124 13.832C18.8026 13.8374 18.793 13.8431 18.7831 13.8484C18.7317 13.8762 18.6796 13.9026 18.627 13.9279C18.6129 13.9347 18.5986 13.9409 18.5844 13.9476C18.5455 13.9657 18.5064 13.9834 18.467 14.0002C18.448 14.0083 18.4288 14.0159 18.4097 14.0237C18.374 14.0382 18.3381 14.0522 18.3019 14.0656C18.282 14.0731 18.262 14.0804 18.2419 14.0875C18.2044 14.1006 18.1666 14.1131 18.1287 14.1252C18.1105 14.1309 18.0924 14.1369 18.0742 14.1424C18.0242 14.1575 17.9739 14.1715 17.9232 14.1845C17.9171 14.1861 17.9111 14.1879 17.905 14.1894C17.848 14.2038 17.7906 14.2166 17.7328 14.2283C17.7162 14.2317 17.6995 14.2345 17.6828 14.2376C17.6414 14.2455 17.5998 14.2529 17.5579 14.2594C17.5373 14.2626 17.5166 14.2655 17.4958 14.2683C17.4569 14.2737 17.4179 14.2785 17.3788 14.2828C17.3577 14.2851 17.3366 14.2873 17.3154 14.2893C17.2739 14.2931 17.2323 14.296 17.1905 14.2985C17.1723 14.2996 17.1542 14.301 17.136 14.3019C17.0761 14.3046 17.016 14.3063 16.9556 14.3063C16.8952 14.3063 16.8351 14.3046 16.7752 14.3019C16.757 14.301 16.739 14.2996 16.7209 14.2985C16.679 14.296 16.6373 14.2931 16.5957 14.2893C16.5746 14.2874 16.5535 14.2851 16.5325 14.2828C16.4933 14.2786 16.4542 14.2738 16.4153 14.2684C16.3946 14.2655 16.3739 14.2626 16.3533 14.2594C16.3114 14.2529 16.2697 14.2455 16.2282 14.2376C16.2116 14.2345 16.1949 14.2317 16.1784 14.2284C16.1206 14.2166 16.0631 14.2038 16.0061 14.1894C16.0002 14.1879 15.9943 14.1861 15.9884 14.1846C15.9376 14.1716 15.8871 14.1575 15.8369 14.1424C15.8188 14.1369 15.8008 14.1309 15.7828 14.1252C15.7447 14.1131 15.7068 14.1006 15.6691 14.0873C15.6492 14.0803 15.6294 14.0731 15.6096 14.0657C15.5732 14.0522 15.5371 14.0381 15.5012 14.0235C15.4823 14.0158 15.4633 14.0083 15.4446 14.0003C15.4046 13.9833 15.3652 13.9654 15.3258 13.9471C15.3121 13.9407 15.2982 13.9347 15.2846 13.9281C15.2318 13.9027 15.1795 13.8762 15.1279 13.8483C15.1186 13.8434 15.1097 13.838 15.1005 13.8329C15.0584 13.8098 15.0166 13.7859 14.9753 13.7612C14.9586 13.7511 14.942 13.7406 14.9254 13.7303C14.8918 13.7093 14.8583 13.688 14.8252 13.666C14.8075 13.6542 14.79 13.6423 14.7725 13.6303C14.74 13.6079 14.7079 13.5848 14.676 13.5613C14.6597 13.5494 14.6434 13.5376 14.6274 13.5254C14.6201 13.5199 14.6129 13.5138 14.6057 13.5082L15.2041 13.2036ZM7.73377 21.711C7.65913 21.711 7.58982 21.6806 7.53861 21.6254C7.48714 21.5698 7.46141 21.4973 7.46623 21.4211C7.46638 21.4186 7.46654 21.4162 7.46664 21.4137L7.64785 17.2164C7.68784 16.5932 7.94358 16.0218 8.35015 15.5887C8.35404 15.585 8.35814 15.5815 8.36189 15.5775C8.60103 15.3258 8.89117 15.124 9.20797 14.9874C9.21459 14.9845 9.22125 14.9817 9.22792 14.979C9.27005 14.9612 9.31255 14.9443 9.35551 14.9289L9.91893 14.7272V21.711H7.73377ZM10.1499 13.8421L9.10668 14.2156C9.06752 14.2296 9.02876 14.2443 8.99042 14.2596C8.97822 14.2645 8.96632 14.2699 8.95423 14.2749C8.94474 14.2788 8.93531 14.2828 8.92588 14.2869C8.90942 14.2939 8.89276 14.3006 8.87646 14.3078C8.85847 14.3158 8.84088 14.3245 8.82304 14.3328C8.80367 14.3418 8.78409 14.3506 8.76496 14.36C8.74692 14.3688 8.72923 14.3783 8.7114 14.3874C8.69289 14.3969 8.67413 14.4061 8.65583 14.416C8.63901 14.425 8.62256 14.4347 8.6059 14.444C8.58703 14.4546 8.56796 14.4648 8.5493 14.4757C8.5329 14.4854 8.5169 14.4956 8.50065 14.5054C8.48881 14.5127 8.47692 14.5198 8.46518 14.5271L8.45985 10.6614L11.1307 10.6576L11.1346 13.4879L10.168 13.8339C10.1617 13.8361 10.156 13.8395 10.1499 13.8421ZM10.6659 21.711V14.4598L13.1368 13.5753L13.4227 14.9966C13.5296 15.5282 13.851 15.9988 14.3043 16.2877L16.5821 17.7395V21.711H10.6659ZM14.7021 15.6473C14.4206 15.4679 14.2211 15.1756 14.1547 14.8455L13.9782 13.9679C13.9921 13.9798 14.0055 13.9925 14.0196 14.0042C14.8433 14.6899 15.8698 15.0628 16.9557 15.0628C17.2566 15.0628 17.5527 15.0336 17.8415 14.9776C18.6125 14.8281 19.3289 14.4832 19.9333 13.9679L19.7567 14.8455C19.6904 15.1756 19.4909 15.4678 19.2093 15.6472L16.9557 17.0836L14.7021 15.6473ZM23.2454 21.711H17.3292V17.7395L19.6071 16.2877C20.0605 15.9988 20.3818 15.5282 20.4887 14.9966L20.7746 13.5753L23.2454 14.4598V21.711Z" fill="#EE6B01"/>
</svg>
