<svg width="39" height="38" viewBox="0 0 39 38" fill="none" xmlns="http://www.w3.org/2000/svg">
<path d="M38.1057 18.9655C38.1057 8.68992 29.7761 0.360352 19.5006 0.360352C9.22508 0.360352 0.895508 8.68992 0.895508 18.9655C0.895508 28.2515 7.69809 35.9498 16.5927 37.3445V24.343H11.8684V18.9655H16.5927V14.8668C16.5927 10.2031 19.3711 7.62874 23.6213 7.62874C25.6582 7.62874 27.7861 7.99258 27.7861 7.99258V12.5708H25.4405C23.1279 12.5708 22.4085 14.0041 22.4085 15.476V18.9655H27.5683L26.7442 24.343H22.4085V37.3445C31.3004 35.9498 38.1057 28.2515 38.1057 18.9655Z" fill="#1677F0"/>
<path d="M26.7416 24.3434L27.5657 18.9658H22.4059V15.4764C22.4059 14.0045 23.1253 12.5712 25.4379 12.5712H27.7835V7.99297C27.7835 7.99297 25.6556 7.62914 23.6187 7.62914C19.3685 7.62914 16.5901 10.2035 16.5901 14.8672V18.9658H11.8658V24.3434H16.5901V37.3449C17.5383 37.4938 18.5085 37.5709 19.498 37.5709C20.4875 37.5709 21.4577 37.4938 22.4059 37.3449V24.3434H26.7416Z" fill="white"/>
</svg>
