<svg width="26" height="12" viewBox="0 0 26 12" fill="none" xmlns="http://www.w3.org/2000/svg">
<path d="M4.45303 0.737244C1.29324 0.884211 0.631891 3.34591 0.705374 5.32996C0.815599 7.90188 2.65268 10.1064 5.73899 10.1064C8.75181 10.1064 10.7726 8.74694 11.6912 5.88109C12.573 3.05197 12.2055 2.09669 14.6305 3.52962C15.4755 4.044 15.5858 1.94972 14.8509 1.50882C13.1241 0.516794 10.4787 1.80275 9.009 5.25648C8.20069 7.16705 6.95147 8.74694 5.0409 8.85717C3.13033 8.93065 1.6974 7.49772 1.62391 5.40344C1.58717 3.1622 3.24055 2.35388 5.9227 3.45613C7.31889 4.00726 7.50259 4.044 7.31889 2.68456C7.13518 1.43534 6.03292 0.663761 4.45303 0.737244ZM21.7216 11.7598C24.8814 11.6128 25.5428 9.11436 25.4693 7.13031C25.3591 4.55838 23.522 2.39062 20.4357 2.35388C17.4229 2.35388 15.4021 3.75007 14.4835 6.61592C13.6017 9.40829 13.9691 10.3636 11.5442 8.93065C10.6991 8.45301 10.5889 10.5473 11.3237 10.9514C13.0506 11.9802 15.696 10.6575 17.1657 7.24053C17.974 5.29322 19.2599 3.71332 21.1338 3.63984C23.0443 3.52962 24.4773 4.99929 24.5508 7.09356C24.5875 9.33481 22.9341 10.1064 20.252 9.04088C18.8558 8.48975 18.6721 8.41627 18.8558 9.77571C19.0395 11.0617 20.1417 11.7965 21.7216 11.7598Z" fill="#A48579"/>
</svg>
