<svg width="25" height="25" viewBox="0 0 25 25" fill="none" xmlns="http://www.w3.org/2000/svg">
<path d="M24.8109 19.4864L22.9029 0.698907C22.8663 0.338751 22.5585 0.0644531 22.1909 0.0644531H3.11039C2.7428 0.0644531 2.43498 0.338751 2.3984 0.698907L0.490346 19.4864C0.487961 19.5097 0.486816 19.5331 0.486816 19.5565V23.4079C0.486816 23.797 0.807178 24.1125 1.20234 24.1125H24.0989C24.4941 24.1125 24.8145 23.797 24.8145 23.4079V19.5565C24.8145 19.5331 24.8133 19.5097 24.8109 19.4864ZM23.3083 18.852H13.7021C13.6192 18.5494 13.4903 18.1578 13.2955 17.7321C14.878 17.3766 17.7969 16.3627 18.5858 13.6441C18.8988 12.5651 19.6877 11.9441 20.9973 11.7454C21.6035 11.6535 22.1876 11.6788 22.5839 11.719L23.3083 18.852ZM10.4016 9.33083C11.4628 9.21265 13.3903 9.18382 13.8944 10.4244C14.6399 12.2596 16.1417 13.3165 16.9985 13.7945C16.0708 15.6461 13.5155 16.2705 12.5238 16.4466C11.9548 15.7133 11.1495 15.0333 10.0149 14.6609C9.68591 14.5529 9.3624 14.4085 9.04876 14.2401C10.0053 13.107 10.4943 11.8446 10.504 10.4771C10.5068 10.084 10.4693 9.70075 10.4016 9.33083ZM22.439 10.2927C21.9888 10.2626 21.4202 10.2599 20.8228 10.3464C19.2601 10.5727 18.136 11.3001 17.5257 12.4663C16.9339 12.111 16.0598 11.4557 15.4824 10.4362C17.0205 9.43359 18.0256 7.99184 18.4485 6.19167C19.0816 6.23117 19.969 6.33389 20.4399 6.56573C21.0692 6.87554 21.8123 7.42657 22.1766 7.70871L22.439 10.2927ZM21.5433 1.47352L21.986 5.83165C21.6922 5.64002 21.3794 5.4529 21.0798 5.30542C20.3965 4.96898 19.3681 4.84052 18.6543 4.79153C18.6623 4.67204 18.6689 4.55175 18.6726 4.42982C18.7079 3.24912 18.5299 2.18937 18.3622 1.47356L21.5433 1.47352ZM13.0354 2.85792C13.1947 2.35601 13.2772 1.85781 13.32 1.47352H16.8881C17.0471 2.06462 17.279 3.155 17.2422 4.38835C17.1787 6.51341 16.3602 8.12312 14.808 9.18433C13.6105 7.671 11.1656 7.79537 10.0022 7.95591C9.59084 6.9163 9.00573 6.05654 8.55796 5.4892C9.02868 5.3289 9.58335 5.23102 10.2656 5.23102C11.5661 5.23102 12.5498 4.38826 13.0354 2.85792ZM3.75793 1.47352H11.8752C11.7528 2.3756 11.3823 3.82195 10.2656 3.82195C7.75529 3.82195 6.48577 4.94864 5.55879 5.7713C4.93362 6.32614 4.55597 6.64008 4.06441 6.64008H3.23322L3.75793 1.47352ZM3.09011 8.04914H4.06441C5.12963 8.04914 5.83484 7.42324 6.51687 6.81795C6.76254 6.59992 7.01063 6.37987 7.28329 6.17584C7.91161 6.93232 9.08626 8.59826 9.07295 10.4672C9.06527 11.5415 8.65308 12.5446 7.84655 13.456C7.30757 13.0446 6.82879 12.6015 6.44403 12.2119C5.48762 11.2435 4.20751 10.6222 2.84645 10.4479L3.09011 8.04914ZM2.70402 11.8508C3.73193 11.9911 4.69621 12.4634 5.41817 13.1943C6.3804 14.1685 7.88041 15.4457 9.56231 15.9977C11.1491 16.5185 11.8853 17.9419 12.2028 18.852H1.99298L2.70402 11.8508ZM23.3834 22.7034H1.91785V20.261H23.3834V22.7034Z" fill="#EE6B01"/>
</svg>
