<svg width="27" height="28" viewBox="0 0 27 28" fill="none" xmlns="http://www.w3.org/2000/svg">
<path d="M24.1877 17.714C23.8297 17.714 23.5395 18.0125 23.5395 18.3809V24.3026C23.5383 25.4072 22.6686 26.3023 21.5951 26.3034H3.40871C2.33522 26.3023 1.46553 25.4072 1.46427 24.3026V6.92294C1.46553 5.8186 2.33522 4.92345 3.40871 4.92214H9.16356C9.52156 4.92214 9.81171 4.62359 9.81171 4.25521C9.81171 3.88709 9.52156 3.58828 9.16356 3.58828H3.40871C1.61972 3.59036 0.169994 5.0821 0.167969 6.92294V24.3028C0.169994 26.1437 1.61972 27.6354 3.40871 27.6375H21.5951C23.3841 27.6354 24.8338 26.1437 24.8358 24.3028V18.3809C24.8358 18.0125 24.5457 17.714 24.1877 17.714Z" fill="#EE6B01"/>
<path d="M24.5791 1.87223C23.44 0.700143 21.5933 0.700143 20.4543 1.87223L8.89088 13.7707C8.81164 13.8523 8.75442 13.9534 8.72454 14.0643L7.20392 19.7132C7.14139 19.9448 7.20494 20.1928 7.37001 20.363C7.53534 20.5328 7.77637 20.5982 8.00145 20.5341L13.4912 18.9692C13.5991 18.9384 13.6973 18.8795 13.7766 18.798L25.3397 6.89924C26.477 5.72637 26.477 3.8277 25.3397 2.65483L24.5791 1.87223ZM10.3031 14.2042L19.7669 4.46597L22.819 7.60655L13.355 17.3448L10.3031 14.2042ZM9.69347 15.4631L12.1319 17.9724L8.75897 18.934L9.69347 15.4631ZM24.4232 5.95615L23.7358 6.66347L20.6834 3.52263L21.371 2.81531C22.0037 2.16427 23.0296 2.16427 23.6623 2.81531L24.4232 3.59792C25.0548 4.24974 25.0548 5.30459 24.4232 5.95615Z" fill="#EE6B01"/>
</svg>
