<svg width="38" height="38" viewBox="0 0 38 38" fill="none" xmlns="http://www.w3.org/2000/svg">
<path d="M18.6735 37.5706C28.9488 37.5706 37.2786 29.2408 37.2786 18.9655C37.2786 8.69014 28.9488 0.360352 18.6735 0.360352C8.39815 0.360352 0.0683594 8.69014 0.0683594 18.9655C0.0683594 29.2408 8.39815 37.5706 18.6735 37.5706Z" fill="#FD0000"/>
<path d="M30.5589 12.995C30.2722 11.9283 29.4343 11.0877 28.3648 10.801C26.4299 10.2828 18.6737 10.2828 18.6737 10.2828C18.6737 10.2828 10.9174 10.2828 8.98246 10.801C7.91577 11.0877 7.07511 11.9256 6.78845 12.995C6.27027 14.9299 6.27026 18.9652 6.27026 18.9652C6.27026 18.9652 6.27027 23.0004 6.78845 24.9354C7.07511 26.0021 7.91302 26.8427 8.98246 27.1294C10.9174 27.6476 18.6737 27.6476 18.6737 27.6476C18.6737 27.6476 26.4299 27.6476 28.3648 27.1294C29.4315 26.8427 30.2722 26.0048 30.5589 24.9354C31.0771 23.0004 31.0771 18.9652 31.0771 18.9652C31.0771 18.9652 31.0771 14.9299 30.5589 12.995ZM16.193 22.6862V15.2442L22.6372 18.9652L16.193 22.6862Z" fill="white"/>
</svg>
