<svg width="56" height="41" viewBox="0 0 56 41" fill="none" xmlns="http://www.w3.org/2000/svg">
<g filter="url(#filter0_d)">
<path d="M51.1864 0H4.81356C4.36427 0 4 0.360384 4 0.804878V32.1951C4 32.6396 4.36427 33 4.81356 33H51.1864C51.6357 33 52 32.6396 52 32.1951V0.804878C52 0.360384 51.6357 0 51.1864 0ZM50.3729 31.3902H5.62712V1.60976H50.3729V31.3902Z" fill="white"/>
<path d="M47.9322 3.21951H8.0678C7.61851 3.21951 7.25424 3.5799 7.25424 4.02439V28.9756C7.25424 29.4201 7.61851 29.7805 8.0678 29.7805H47.9322C48.3815 29.7805 48.7458 29.4201 48.7458 28.9756V4.02439C48.7458 3.5799 48.3815 3.21951 47.9322 3.21951ZM47.1186 28.1707H8.88136V4.82927H47.1186V28.1707Z" fill="white"/>
<path d="M13.3559 6.43902C11.7833 6.43902 10.5085 7.70027 10.5085 9.2561C10.5085 10.8119 11.7833 12.0732 13.3559 12.0732C14.9285 12.0732 16.2034 10.8119 16.2034 9.2561C16.2034 7.70027 14.9285 6.43902 13.3559 6.43902ZM13.3559 10.4634C12.682 10.4634 12.1356 9.92284 12.1356 9.2561C12.1356 8.58936 12.682 8.04878 13.3559 8.04878C14.0299 8.04878 14.5763 8.58936 14.5763 9.2561C14.5763 9.92284 14.0299 10.4634 13.3559 10.4634Z" fill="white"/>
<path d="M20.678 6.43902C19.1054 6.43902 17.8305 7.70027 17.8305 9.2561C17.8305 10.8119 19.1054 12.0732 20.678 12.0732C22.2506 12.0732 23.5254 10.8119 23.5254 9.2561C23.5254 7.70027 22.2506 6.43902 20.678 6.43902ZM20.678 10.4634C20.004 10.4634 19.4576 9.92284 19.4576 9.2561C19.4576 8.58936 20.004 8.04878 20.678 8.04878C21.3519 8.04878 21.8983 8.58936 21.8983 9.2561C21.8983 9.92284 21.3519 10.4634 20.678 10.4634Z" fill="white"/>
<path d="M28 6.43902C26.4274 6.43902 25.1525 7.70027 25.1525 9.2561C25.1525 10.8119 26.4274 12.0732 28 12.0732C29.5726 12.0732 30.8475 10.8119 30.8475 9.2561C30.8475 7.70027 29.5726 6.43902 28 6.43902ZM28 10.4634C27.3261 10.4634 26.7797 9.92284 26.7797 9.2561C26.7797 8.58936 27.3261 8.04878 28 8.04878C28.6739 8.04878 29.2203 8.58936 29.2203 9.2561C29.2203 9.92284 28.6739 10.4634 28 10.4634Z" fill="white"/>
<path d="M35.322 6.43902C33.7494 6.43902 32.4746 7.70027 32.4746 9.2561C32.4746 10.8119 33.7494 12.0732 35.322 12.0732C36.8946 12.0732 38.1695 10.8119 38.1695 9.2561C38.1695 7.70027 36.8946 6.43902 35.322 6.43902ZM35.322 10.4634C34.6481 10.4634 34.1017 9.92284 34.1017 9.2561C34.1017 8.58936 34.6481 8.04878 35.322 8.04878C35.996 8.04878 36.5424 8.58936 36.5424 9.2561C36.5424 9.92284 35.996 10.4634 35.322 10.4634Z" fill="white"/>
<path d="M42.6441 6.43902C41.0715 6.43902 39.7966 7.70027 39.7966 9.2561C39.7966 10.8119 41.0715 12.0732 42.6441 12.0732C44.2167 12.0732 45.4915 10.8119 45.4915 9.2561C45.4915 7.70027 44.2167 6.43902 42.6441 6.43902ZM42.6441 10.4634C41.9701 10.4634 41.4237 9.92284 41.4237 9.2561C41.4237 8.58936 41.9701 8.04878 42.6441 8.04878C43.318 8.04878 43.8644 8.58936 43.8644 9.2561C43.8644 9.92284 43.318 10.4634 42.6441 10.4634Z" fill="white"/>
<path d="M13.3559 13.6829C11.7833 13.6829 10.5085 14.9442 10.5085 16.5C10.5085 18.0558 11.7833 19.3171 13.3559 19.3171C14.9285 19.3171 16.2034 18.0558 16.2034 16.5C16.2034 14.9442 14.9285 13.6829 13.3559 13.6829ZM13.3559 17.7073C12.682 17.7073 12.1356 17.1667 12.1356 16.5C12.1356 15.8333 12.682 15.2927 13.3559 15.2927C14.0299 15.2927 14.5763 15.8333 14.5763 16.5C14.5763 17.1667 14.0299 17.7073 13.3559 17.7073Z" fill="white"/>
<path d="M20.678 13.6829C19.1054 13.6829 17.8305 14.9442 17.8305 16.5C17.8305 18.0558 19.1054 19.3171 20.678 19.3171C22.2506 19.3171 23.5254 18.0558 23.5254 16.5C23.5254 14.9442 22.2506 13.6829 20.678 13.6829ZM20.678 17.7073C20.004 17.7073 19.4576 17.1667 19.4576 16.5C19.4576 15.8333 20.004 15.2927 20.678 15.2927C21.3519 15.2927 21.8983 15.8333 21.8983 16.5C21.8983 17.1667 21.3519 17.7073 20.678 17.7073Z" fill="white"/>
<path d="M28 13.6829C26.4274 13.6829 25.1525 14.9442 25.1525 16.5C25.1525 18.0558 26.4274 19.3171 28 19.3171C29.5726 19.3171 30.8475 18.0558 30.8475 16.5C30.8475 14.9442 29.5726 13.6829 28 13.6829ZM28 17.7073C27.3261 17.7073 26.7797 17.1667 26.7797 16.5C26.7797 15.8333 27.3261 15.2927 28 15.2927C28.6739 15.2927 29.2203 15.8333 29.2203 16.5C29.2203 17.1667 28.6739 17.7073 28 17.7073Z" fill="white"/>
<path d="M35.322 13.6829C33.7494 13.6829 32.4746 14.9442 32.4746 16.5C32.4746 18.0558 33.7494 19.3171 35.322 19.3171C36.8946 19.3171 38.1695 18.0558 38.1695 16.5C38.1695 14.9442 36.8946 13.6829 35.322 13.6829ZM35.322 17.7073C34.6481 17.7073 34.1017 17.1667 34.1017 16.5C34.1017 15.8333 34.6481 15.2927 35.322 15.2927C35.996 15.2927 36.5424 15.8333 36.5424 16.5C36.5424 17.1667 35.996 17.7073 35.322 17.7073Z" fill="white"/>
<path d="M42.6441 13.6829C41.0715 13.6829 39.7966 14.9442 39.7966 16.5C39.7966 18.0558 41.0715 19.3171 42.6441 19.3171C44.2167 19.3171 45.4915 18.0558 45.4915 16.5C45.4915 14.9442 44.2167 13.6829 42.6441 13.6829ZM42.6441 17.7073C41.9701 17.7073 41.4237 17.1667 41.4237 16.5C41.4237 15.8333 41.9701 15.2927 42.6441 15.2927C43.318 15.2927 43.8644 15.8333 43.8644 16.5C43.8644 17.1667 43.318 17.7073 42.6441 17.7073Z" fill="white"/>
<path d="M13.3559 20.9268C11.7833 20.9268 10.5085 22.1881 10.5085 23.7439C10.5085 25.2997 11.7833 26.561 13.3559 26.561C14.9285 26.561 16.2034 25.2997 16.2034 23.7439C16.2034 22.1881 14.9285 20.9268 13.3559 20.9268ZM13.3559 24.9512C12.682 24.9512 12.1356 24.4106 12.1356 23.7439C12.1356 23.0772 12.682 22.5366 13.3559 22.5366C14.0299 22.5366 14.5763 23.0772 14.5763 23.7439C14.5763 24.4106 14.0299 24.9512 13.3559 24.9512Z" fill="white"/>
<path d="M20.678 20.9268C19.1054 20.9268 17.8305 22.1881 17.8305 23.7439C17.8305 25.2997 19.1054 26.561 20.678 26.561C22.2506 26.561 23.5254 25.2997 23.5254 23.7439C23.5254 22.1881 22.2506 20.9268 20.678 20.9268ZM20.678 24.9512C20.004 24.9512 19.4576 24.4106 19.4576 23.7439C19.4576 23.0772 20.004 22.5366 20.678 22.5366C21.3519 22.5366 21.8983 23.0772 21.8983 23.7439C21.8983 24.4106 21.3519 24.9512 20.678 24.9512Z" fill="white"/>
<path d="M28 20.9268C26.4274 20.9268 25.1525 22.1881 25.1525 23.7439C25.1525 25.2997 26.4274 26.561 28 26.561C29.5726 26.561 30.8475 25.2997 30.8475 23.7439C30.8475 22.1881 29.5726 20.9268 28 20.9268ZM28 24.9512C27.3261 24.9512 26.7797 24.4106 26.7797 23.7439C26.7797 23.0772 27.3261 22.5366 28 22.5366C28.6739 22.5366 29.2203 23.0772 29.2203 23.7439C29.2203 24.4106 28.6739 24.9512 28 24.9512Z" fill="white"/>
<path d="M35.322 20.9268C33.7494 20.9268 32.4746 22.1881 32.4746 23.7439C32.4746 25.2997 33.7494 26.561 35.322 26.561C36.8946 26.561 38.1695 25.2997 38.1695 23.7439C38.1695 22.1881 36.8946 20.9268 35.322 20.9268ZM35.322 24.9512C34.6481 24.9512 34.1017 24.4106 34.1017 23.7439C34.1017 23.0772 34.6481 22.5366 35.322 22.5366C35.996 22.5366 36.5424 23.0772 36.5424 23.7439C36.5424 24.4106 35.996 24.9512 35.322 24.9512Z" fill="white"/>
<path d="M42.6441 20.9268C41.0715 20.9268 39.7966 22.1881 39.7966 23.7439C39.7966 25.2997 41.0715 26.561 42.6441 26.561C44.2167 26.561 45.4915 25.2997 45.4915 23.7439C45.4915 22.1881 44.2167 20.9268 42.6441 20.9268ZM42.6441 24.9512C41.9701 24.9512 41.4237 24.4106 41.4237 23.7439C41.4237 23.0772 41.9701 22.5366 42.6441 22.5366C43.318 22.5366 43.8644 23.0772 43.8644 23.7439C43.8644 24.4106 43.318 24.9512 42.6441 24.9512Z" fill="white"/>
</g>
<defs>
<filter id="filter0_d" x="0" y="0" width="56" height="41" filterUnits="userSpaceOnUse" color-interpolation-filters="sRGB">
<feFlood flood-opacity="0" result="BackgroundImageFix"/>
<feColorMatrix in="SourceAlpha" type="matrix" values="0 0 0 0 0 0 0 0 0 0 0 0 0 0 0 0 0 0 127 0" result="hardAlpha"/>
<feOffset dy="4"/>
<feGaussianBlur stdDeviation="2"/>
<feComposite in2="hardAlpha" operator="out"/>
<feColorMatrix type="matrix" values="0 0 0 0 0 0 0 0 0 0 0 0 0 0 0 0 0 0 0.25 0"/>
<feBlend mode="normal" in2="BackgroundImageFix" result="effect1_dropShadow"/>
<feBlend mode="normal" in="SourceGraphic" in2="effect1_dropShadow" result="shape"/>
</filter>
</defs>
</svg>
