<svg width="47" height="47" viewBox="0 0 47 47" fill="none" xmlns="http://www.w3.org/2000/svg">
<g filter="url(#filter0_d)">
<path d="M42.9943 31.4977L39.9355 1.02893C39.8769 0.444844 39.3834 0 38.7941 0H8.20588C7.6166 0 7.12314 0.444844 7.06448 1.02893L4.00566 31.4977C4.00184 31.5354 4 31.5734 4 31.6113V37.8574C4 38.4884 4.51358 39 5.14706 39H41.8529C42.4864 39 43 38.4884 43 37.8574V31.6113C43 31.5734 42.9982 31.5354 42.9943 31.4977ZM40.5854 30.4688H25.1856C25.0527 29.9781 24.846 29.343 24.5337 28.6526C27.0708 28.076 31.75 26.4318 33.0147 22.0229C33.5166 20.2731 34.7812 19.2659 36.8806 18.9437C37.8525 18.7946 38.7888 18.8357 39.4242 18.9008L40.5854 30.4688ZM19.8945 15.0278C21.5958 14.8361 24.6858 14.7894 25.4938 16.8013C26.689 19.7775 29.0967 21.4917 30.4701 22.2667C28.9829 25.2696 24.8864 26.2823 23.2967 26.5679C22.3845 25.3786 21.0935 24.2758 19.2745 23.6719C18.7472 23.4967 18.2286 23.2626 17.7258 22.9894C19.2592 21.1519 20.0431 19.1045 20.0587 16.8867C20.0631 16.2493 20.003 15.6277 19.8945 15.0278ZM39.1919 16.5877C38.4702 16.5389 37.5586 16.5345 36.6009 16.6748C34.0957 17.0418 32.2937 18.2215 31.3154 20.1127C30.3665 19.5366 28.9654 18.4739 28.0396 16.8205C30.5055 15.1945 32.1167 12.8563 32.7947 9.93685C33.8096 10.0009 35.2322 10.1675 35.9871 10.5435C36.9959 11.0459 38.1872 11.9396 38.7713 12.3971L39.1919 16.5877ZM37.756 2.28516L38.4656 9.35299C37.9947 9.04221 37.4933 8.73874 37.013 8.49956C35.9175 7.95394 34.2689 7.74561 33.1245 7.66617C33.1374 7.47238 33.148 7.27731 33.1539 7.07957C33.2105 5.16476 32.9252 3.44609 32.6564 2.28523L37.756 2.28516ZM24.1169 4.53032C24.3722 3.71635 24.5044 2.90839 24.573 2.28516H30.2931C30.5481 3.24378 30.9199 5.01211 30.8608 7.01231C30.759 10.4586 29.4468 13.0692 26.9585 14.7902C25.0387 12.336 21.1193 12.5377 19.2542 12.798C18.5948 11.112 17.6568 9.7177 16.939 8.79762C17.6936 8.53765 18.5828 8.37891 19.6765 8.37891C21.7614 8.37891 23.3383 7.01215 24.1169 4.53032ZM9.24397 2.28516H22.2569C22.0607 3.74811 21.4667 6.09375 19.6765 6.09375C15.6522 6.09375 13.617 7.92096 12.131 9.25511C11.1287 10.1549 10.5233 10.6641 9.73529 10.6641H8.40279L9.24397 2.28516ZM8.17338 12.9492H9.73529C11.443 12.9492 12.5735 11.9342 13.6669 10.9525C14.0607 10.5989 14.4584 10.2421 14.8955 9.91118C15.9028 11.138 17.7859 13.8397 17.7646 16.8707C17.7522 18.6129 17.0915 20.2398 15.7985 21.7178C14.9345 21.0506 14.1669 20.332 13.5501 19.7003C12.0169 18.1297 9.96471 17.1221 7.78277 16.8395L8.17338 12.9492ZM7.55443 19.1146C9.20229 19.3422 10.7481 20.108 11.9055 21.2934C13.4481 22.8733 15.8528 24.9446 18.5491 25.8399C21.0929 26.6845 22.273 28.9928 22.782 30.4688H6.41456L7.55443 19.1146ZM40.7059 36.7148H6.29412V32.7539H40.7059V36.7148Z" fill="white"/>
</g>
<defs>
<filter id="filter0_d" x="0" y="0" width="47" height="47" filterUnits="userSpaceOnUse" color-interpolation-filters="sRGB">
<feFlood flood-opacity="0" result="BackgroundImageFix"/>
<feColorMatrix in="SourceAlpha" type="matrix" values="0 0 0 0 0 0 0 0 0 0 0 0 0 0 0 0 0 0 127 0" result="hardAlpha"/>
<feOffset dy="4"/>
<feGaussianBlur stdDeviation="2"/>
<feComposite in2="hardAlpha" operator="out"/>
<feColorMatrix type="matrix" values="0 0 0 0 0 0 0 0 0 0 0 0 0 0 0 0 0 0 0.25 0"/>
<feBlend mode="normal" in2="BackgroundImageFix" result="effect1_dropShadow"/>
<feBlend mode="normal" in="SourceGraphic" in2="effect1_dropShadow" result="shape"/>
</filter>
</defs>
</svg>
