<svg width="87" height="84" viewBox="0 0 87 84" fill="none" xmlns="http://www.w3.org/2000/svg">
<ellipse cx="43.5" cy="42" rx="43.5" ry="42" fill="#F9EFE5"/>
<g filter="url(#filter0_d)">
<path d="M66.9966 59.9944L66.963 59.2429C66.9458 58.8588 66.6114 58.5617 66.221 58.5782C65.8284 58.595 65.5241 58.9198 65.5413 59.3038L65.5752 60.0614C65.5755 60.066 65.5757 60.0706 65.576 60.0751C65.5852 60.2152 65.5362 60.3486 65.4381 60.4508C65.3407 60.5524 65.2086 60.6084 65.0664 60.6084H60.9035V47.7627L61.9768 48.1336C63.8263 48.7729 65.1026 50.4237 65.23 52.3408L65.348 54.9802C65.3652 55.3641 65.6968 55.6625 66.0899 55.6449C66.4825 55.6281 66.7868 55.3033 66.7697 54.9194L66.6514 52.273C66.6511 52.2684 66.6509 52.2639 66.6506 52.2593C66.4894 49.782 64.8409 47.6475 62.4509 46.8216L60.4636 46.1347C60.4519 46.1299 60.441 46.1238 60.429 46.1197L54.4939 44.0682C54.4929 44.0678 54.4918 44.0674 54.4908 44.0671C54.4688 44.0597 54.4469 44.0534 54.4246 44.0477C54.4134 44.0448 54.4021 44.0429 54.3908 44.0405C53.9981 43.941 53.5725 44.0516 53.283 44.3351L53.0995 44.5149L51.5334 43.746L51.5332 42.4034C52.0064 42.0848 52.4521 41.7047 52.8568 41.2807C52.8616 41.2756 52.8664 41.2707 52.8712 41.2656C53.8932 40.1892 54.6475 38.8342 54.9041 37.4879C54.9109 37.4524 54.9177 37.4167 54.9238 37.3812C54.9302 37.3443 54.9361 37.3076 54.9417 37.2708C54.9511 37.2093 54.9593 37.1479 54.9665 37.0866C54.9683 37.0719 54.9705 37.0571 54.9721 37.0423C54.9793 36.9757 54.9855 36.9091 54.99 36.8428H55.2854C56.2025 36.8428 56.9487 36.1131 56.9487 35.2161V33.3927C56.9487 33.3065 56.941 33.221 56.9273 33.1366C57.0321 32.9502 57.0925 32.7361 57.0925 32.5079V31.7305C57.0925 31.1394 56.6908 30.6396 56.1438 30.4851V30.3753C56.1438 30.309 56.1429 30.2427 56.1412 30.1768C56.0931 28.3212 55.3481 26.5634 54.0437 25.2273C52.8537 24.0085 51.2972 23.237 49.6208 23.0264C49.5952 22.9815 49.5675 22.9382 49.5387 22.8956C49.5312 22.8847 49.5234 22.8742 49.5158 22.8634C49.4867 22.8221 49.456 22.7821 49.424 22.7433C49.4184 22.7366 49.413 22.7296 49.4073 22.7229C49.3677 22.6762 49.3261 22.6313 49.2823 22.5884C49.2809 22.587 49.2793 22.5857 49.2777 22.5841C49.2351 22.5427 49.1906 22.5033 49.1445 22.4657C49.1393 22.4615 49.1343 22.4572 49.1291 22.453C49.0342 22.377 48.9323 22.3096 48.8248 22.2513C48.8151 22.246 48.8056 22.2408 48.7958 22.2356C48.7424 22.2077 48.688 22.1816 48.632 22.1584C48.6292 22.1572 48.6262 22.1563 48.6232 22.155C48.5716 22.1338 48.5186 22.1153 48.465 22.0983C48.4505 22.0936 48.4358 22.0891 48.4212 22.0848C48.3643 22.0682 48.3068 22.053 48.2481 22.0412C48.2448 22.0405 48.2415 22.0401 48.2382 22.0395C48.182 22.0285 48.125 22.0204 48.0674 22.0139C48.0516 22.0121 48.0357 22.0106 48.0198 22.0092C47.9585 22.0037 47.8968 22 47.8343 22H47.1627C47.1002 22 47.0385 22.0037 46.9771 22.0092C46.9611 22.0106 46.9453 22.0122 46.9295 22.0139C46.8721 22.0203 46.8151 22.0285 46.7591 22.0394C46.7557 22.0401 46.7522 22.0405 46.7488 22.0412C46.6902 22.053 46.6327 22.0681 46.5759 22.0847C46.5611 22.089 46.5465 22.0936 46.5318 22.0983C46.4783 22.1153 46.4255 22.1338 46.3738 22.1549C46.3709 22.1562 46.3678 22.1571 46.3648 22.1584C46.3089 22.1816 46.2546 22.2077 46.2012 22.2355C46.1913 22.2407 46.1815 22.246 46.1718 22.2513C46.1196 22.2796 46.0684 22.3095 46.019 22.3421C46.0189 22.3422 46.0187 22.3423 46.0186 22.3424C45.9665 22.3768 45.9164 22.4139 45.8677 22.4529C45.8624 22.4571 45.8572 22.4615 45.852 22.4658C45.806 22.5033 45.7616 22.5426 45.7191 22.5839C45.7176 22.5855 45.7159 22.5869 45.7143 22.5884C45.6707 22.6312 45.6291 22.6761 45.5895 22.7227C45.5838 22.7295 45.5783 22.7365 45.5726 22.7433C45.5406 22.782 45.51 22.822 45.4809 22.8632C45.4733 22.874 45.4654 22.8845 45.458 22.8955C45.4292 22.938 45.4014 22.9814 45.3759 23.0263C43.6996 23.2369 42.1429 24.0085 40.9531 25.2271C40.3175 25.8782 39.8159 26.6298 39.4618 27.4436L35.3404 23.6678C34.4945 22.8928 33.171 22.8945 32.3274 23.6719L27.8567 27.7907L27.8559 27.3092C27.8555 27.0332 27.7453 26.7739 27.5454 26.579C27.3458 26.3845 27.0811 26.2774 26.7995 26.2774C26.799 26.2774 26.7984 26.2774 26.7979 26.2774L23.4463 26.282C22.8639 26.2828 22.3906 26.7469 22.3912 27.3168L22.4004 32.8176L17.6915 37.1559C17.2637 37.5501 17.0185 38.0835 17.001 38.658C16.9835 39.2326 17.1958 39.7794 17.5988 40.1976C18.0017 40.616 18.5471 40.8559 19.1346 40.8731C19.1572 40.8737 19.1795 40.874 19.2019 40.874C19.7647 40.874 20.2976 40.6674 20.7089 40.2884L22.3035 38.8192L22.3105 43.6978C22.3111 44.0817 22.6294 44.3926 23.022 44.3926C23.0223 44.3926 23.0227 44.3926 23.023 44.3926C23.416 44.392 23.7341 44.0801 23.7335 43.6958L23.7246 37.51L33.8401 28.1904L37.904 31.9137V32.5078C37.904 32.5481 37.9064 32.5881 37.9101 32.6277C37.9108 32.6351 37.9114 32.6424 37.9123 32.6498C37.9312 32.8237 37.9843 32.9895 38.0688 33.1389C38.0553 33.2224 38.0478 33.3071 38.0478 33.3926V35.216C38.0478 36.113 38.794 36.8427 39.7113 36.8427H40.0056C40.0102 36.9115 40.0165 36.9805 40.0239 37.0497C40.0259 37.0692 40.0288 37.0888 40.0311 37.1082C40.038 37.1656 40.0456 37.2231 40.0543 37.2808C40.0594 37.3154 40.0649 37.3501 40.0708 37.3846C40.0778 37.4258 40.0857 37.4672 40.0936 37.5084C40.11 37.5939 40.1285 37.6795 40.1489 37.765C40.1526 37.7806 40.156 37.7963 40.1599 37.8119C40.1741 37.8693 40.1894 37.9267 40.2053 37.984C40.2086 37.9954 40.2118 38.007 40.2151 38.0184C40.3418 38.4654 40.5201 38.9092 40.742 39.3397C40.7443 39.3443 40.7467 39.3489 40.7491 39.3534C40.8378 39.5248 40.9333 39.6937 41.0352 39.86C41.0487 39.882 41.062 39.9039 41.0757 39.9258C41.1032 39.9698 41.1311 40.0137 41.1595 40.0572C41.181 40.0902 41.2029 40.1229 41.2249 40.1556C41.2496 40.1924 41.274 40.2293 41.2993 40.2658C41.3444 40.3309 41.3907 40.3952 41.4378 40.4592C41.4579 40.4865 41.4785 40.5134 41.4989 40.5405C41.534 40.587 41.5695 40.6332 41.6056 40.6791C41.6254 40.7041 41.645 40.7291 41.6649 40.7539C41.714 40.8149 41.764 40.8754 41.8149 40.9352C41.8222 40.9438 41.8293 40.9525 41.8366 40.961C41.8926 41.0263 41.9498 41.0903 42.0078 41.1539C42.0282 41.1764 42.0489 41.1985 42.0695 41.2206C42.1103 41.2645 42.1516 41.3079 42.1934 41.3509C42.2166 41.3747 42.2395 41.3985 42.2629 41.422C42.3131 41.4725 42.3639 41.5222 42.4153 41.5714C42.4523 41.6068 42.4899 41.6415 42.5276 41.6762C42.5592 41.7052 42.5907 41.7343 42.6227 41.7629C42.6615 41.7976 42.7007 41.8316 42.74 41.8654C42.7609 41.8833 42.782 41.9011 42.8031 41.9188C43.0159 42.098 43.2363 42.2649 43.4632 42.4177L43.463 43.7457L41.8973 44.5148L41.7135 44.3347C41.5376 44.1623 41.3113 44.0538 41.0727 44.0175C41.0463 44.0134 41.0196 44.0103 40.9928 44.008C40.9661 44.0058 40.9392 44.0044 40.9123 44.004C40.8854 44.0036 40.8584 44.0041 40.8315 44.0055C40.7577 44.0094 40.684 44.0208 40.6112 44.0388C40.5973 44.0417 40.5834 44.0444 40.5695 44.048C40.5478 44.0536 40.5218 44.0611 40.5027 44.0678L37.8311 44.9912L37.8241 40.0417C37.8232 39.4035 37.2921 38.8851 36.6398 38.8851C36.6392 38.8851 36.6387 38.8851 36.6381 38.8851L31.0727 38.8927C30.7564 38.8932 30.4591 39.014 30.2358 39.2331C30.0125 39.4521 29.8896 39.7432 29.8901 40.0526L29.9023 48.57C29.9013 48.5712 29.9003 48.5723 29.8993 48.5734C29.88 48.5948 29.8618 48.617 29.8428 48.6387C29.8125 48.6734 29.7821 48.7078 29.7526 48.7433C29.734 48.7655 29.7164 48.7884 29.6982 48.811C29.6694 48.8465 29.6404 48.8818 29.6125 48.918C29.5946 48.9412 29.5776 48.9649 29.56 48.9883C29.5328 49.0246 29.5051 49.0607 29.4787 49.0977C29.4616 49.1215 29.4455 49.1459 29.4288 49.1699C29.4029 49.2071 29.3767 49.2441 29.3516 49.2818C29.3353 49.3064 29.3199 49.3316 29.304 49.3564C29.2795 49.3943 29.2548 49.4322 29.2313 49.4706C29.216 49.4957 29.2016 49.5213 29.1866 49.5465C29.1635 49.5854 29.1401 49.6242 29.1178 49.6637C29.1032 49.6897 29.0894 49.7163 29.0751 49.7427C29.0539 49.7819 29.0322 49.8209 29.0117 49.8606C28.9973 49.8884 28.984 49.9167 28.9701 49.9447C28.9507 49.9835 28.9311 50.0222 28.9125 50.0616C28.899 50.0903 28.8865 50.1195 28.8734 50.1486C28.8557 50.1878 28.8376 50.2268 28.8208 50.2664C28.8081 50.2962 28.7963 50.3266 28.7841 50.3567C28.7681 50.3959 28.7517 50.435 28.7366 50.4746C28.7247 50.5058 28.7138 50.5373 28.7024 50.5686C28.6881 50.6079 28.6734 50.6469 28.6598 50.6865C28.6489 50.7185 28.639 50.7509 28.6287 50.7831C28.616 50.8225 28.6028 50.8616 28.5909 50.9014C28.581 50.9343 28.5722 50.9676 28.5628 51.0008C28.5517 51.0403 28.5401 51.0797 28.5297 51.1195C28.521 51.1529 28.5134 51.1868 28.5053 51.2205C28.4957 51.2605 28.4855 51.3003 28.4766 51.3405C28.469 51.3751 28.4625 51.41 28.4555 51.4448C28.4475 51.4845 28.439 51.5241 28.4317 51.564C28.4251 51.6001 28.4198 51.6365 28.4139 51.6727C28.4076 51.7117 28.4006 51.7507 28.3951 51.79C28.3897 51.8272 28.3856 51.8647 28.381 51.9021C28.3762 51.9409 28.3708 51.9794 28.3667 52.0184C28.3627 52.0563 28.36 52.0945 28.3568 52.1326C28.3538 52.1682 28.3499 52.2036 28.3475 52.2392L23.7748 52.2454C23.7588 52.2454 23.7458 52.2327 23.7458 52.2171L23.7399 48.0195C23.7393 47.6355 23.4209 47.3246 23.0284 47.3246C23.0281 47.3246 23.0277 47.3246 23.0274 47.3246C22.6344 47.3252 22.3162 47.6371 22.3168 48.0214L22.3228 52.2191C22.324 53.0015 22.9751 53.6372 23.7748 53.6372C23.7755 53.6372 23.7762 53.6372 23.7768 53.6372L28.2847 53.6311L28.0001 59.9944C27.9686 60.512 28.1582 61.0251 28.5209 61.4031C28.8849 61.7824 29.3987 62 29.9303 62H65.0664C65.5981 62 66.1117 61.7824 66.4757 61.4031C66.8385 61.0251 67.0282 60.512 66.9966 59.9944ZM55.5257 35.216C55.5257 35.3456 55.4179 35.451 55.2854 35.451H55.0012V33.8025H55.5257V35.216ZM46.5566 23.858C46.5573 23.8555 46.5585 23.8532 46.5592 23.8507C46.5853 23.7508 46.636 23.6622 46.7036 23.59C46.7053 23.5882 46.7069 23.5864 46.7086 23.5847C46.73 23.5623 46.7531 23.5417 46.7776 23.5228C46.7805 23.5206 46.7835 23.5185 46.7864 23.5164C46.836 23.4795 46.8912 23.4501 46.9504 23.429C46.9549 23.4274 46.9593 23.4256 46.9638 23.4242C46.9922 23.4148 47.0215 23.4075 47.0515 23.4021C47.0568 23.4012 47.0623 23.4005 47.0677 23.3998C47.0988 23.3951 47.1304 23.3919 47.1626 23.3919H47.8342C47.8664 23.3919 47.898 23.3951 47.9291 23.3998C47.9345 23.4005 47.9399 23.4012 47.9453 23.4021C47.9752 23.4075 48.0045 23.4148 48.0329 23.4242C48.0375 23.4257 48.042 23.4275 48.0466 23.4291C48.1056 23.4501 48.1606 23.4795 48.2101 23.5163C48.2132 23.5185 48.2163 23.5207 48.2192 23.5229C48.2436 23.5417 48.2666 23.5622 48.288 23.5845C48.2898 23.5864 48.2915 23.5883 48.2933 23.5902C48.3607 23.6624 48.4113 23.7508 48.4375 23.8507C48.4382 23.8531 48.4393 23.8553 48.44 23.8578C48.4517 23.9042 48.4585 23.9526 48.4585 24.0024V26.3505C48.4585 26.6871 48.1784 26.961 47.8343 26.961H47.1627C46.8184 26.961 46.5384 26.6871 46.5384 26.3505V24.0024C46.5384 23.9526 46.5451 23.9044 46.5566 23.858ZM26.4334 27.6695L26.4358 29.0996L23.8212 31.5085L23.8149 27.6731L26.4334 27.6695ZM38.9843 28.9937C38.9708 29.0652 38.9575 29.1366 38.946 29.2086C38.9395 29.2489 38.9342 29.2892 38.9285 29.3296C38.9191 29.3952 38.9095 29.4608 38.9019 29.5268C38.8955 29.5821 38.891 29.6375 38.8858 29.6928C38.881 29.7449 38.8753 29.7967 38.8716 29.8489C38.8637 29.9582 38.8582 30.0674 38.8553 30.1768C38.8536 30.2428 38.8527 30.3091 38.8527 30.3754V30.4851C38.8512 30.4855 38.85 30.4861 38.8485 30.4865C38.8052 30.4989 38.7633 30.5141 38.7219 30.5306C38.7086 30.536 38.6954 30.5415 38.6822 30.5473C38.6458 30.5633 38.61 30.5806 38.5755 30.5998C38.5704 30.6027 38.5648 30.6047 38.5597 30.6075L34.3252 26.7279C34.0509 26.4768 33.6243 26.4772 33.3508 26.7292L19.7331 39.2755C19.5821 39.4148 19.3857 39.4889 19.177 39.4821C18.9695 39.476 18.7769 39.3913 18.6345 39.2435C18.4921 39.0958 18.4171 38.9026 18.4233 38.6997C18.4295 38.4967 18.5161 38.3083 18.6672 38.1691L33.3031 24.6848C33.4524 24.5473 33.6442 24.4784 33.836 24.4784C34.0271 24.4784 34.2183 24.5467 34.3674 24.6834L38.9967 28.9245C38.9921 28.9476 38.9887 28.9707 38.9843 28.9937ZM39.7113 35.4511C39.5787 35.4511 39.4709 35.3457 39.4709 35.2161V33.8026H39.9953V35.4511H39.7113ZM39.3271 32.1944V31.8274H39.5643C39.9573 31.8274 40.2759 31.5159 40.2759 31.1316V30.3752C40.2759 30.3207 40.2765 30.2664 40.278 30.212C40.2807 30.106 40.287 29.9999 40.2955 29.8939C40.2976 29.8669 40.3008 29.84 40.3033 29.813C40.3109 29.7313 40.3198 29.6498 40.3308 29.5683C40.3344 29.5418 40.3384 29.5153 40.3424 29.4887C40.3552 29.4026 40.3698 29.3167 40.3864 29.2312C40.3901 29.212 40.3936 29.1928 40.3974 29.1736C40.4188 29.0687 40.4426 28.9642 40.4695 28.8604C40.4696 28.8598 40.4697 28.8593 40.4698 28.8587C40.73 27.8617 41.2462 26.9419 41.9821 26.1881C42.8398 25.3096 43.9311 24.7187 45.1151 24.4794V26.3501C45.1151 27.4542 46.0336 28.3523 47.1625 28.3523H47.8341C48.963 28.3523 49.8813 27.4541 49.8813 26.3501V24.4796C51.0652 24.7189 52.1567 25.3098 53.0145 26.1883C54.0742 27.2737 54.6795 28.7027 54.7187 30.2121C54.72 30.2664 54.7207 30.3207 54.7207 30.3752V31.1316C54.7207 31.5159 55.0393 31.8274 55.4322 31.8274H55.6695V32.1944H39.3271ZM41.4453 36.9578C41.444 36.9471 41.4428 36.9364 41.4416 36.9256C41.4351 36.8673 41.4301 36.8092 41.4262 36.7513C41.4257 36.7421 41.4249 36.7328 41.4243 36.7235C41.4205 36.6568 41.4183 36.5903 41.4183 36.5243V33.8026H53.5781V36.5098C53.5781 36.5765 53.576 36.6437 53.5721 36.7111C53.5716 36.7189 53.5709 36.7266 53.5704 36.7343C53.5666 36.7935 53.5614 36.853 53.5548 36.9127C53.5536 36.9232 53.5524 36.9338 53.5512 36.9443C53.5434 37.0097 53.5342 37.0753 53.523 37.1412C53.5229 37.1416 53.523 37.1419 53.5229 37.1422C53.2706 38.6307 52.1815 40.2196 50.8468 41.1719C50.8372 41.1787 50.8276 41.1857 50.8181 41.1923C50.7758 41.2221 50.733 41.2507 50.6902 41.2792C50.6667 41.2947 50.6435 41.3109 50.6198 41.326C50.6073 41.3341 50.5947 41.3415 50.5821 41.3495C50.5388 41.3769 50.4953 41.4042 50.4514 41.4303C50.4491 41.4317 50.4472 41.4334 50.4449 41.4347C50.0482 41.6706 49.636 41.8478 49.2224 41.9485L49.1479 41.9666C47.6302 42.3358 47.2817 42.3349 45.7584 41.9593C45.3486 41.8582 44.9403 41.6818 44.5472 41.4474C44.5464 41.4469 44.5456 41.4462 44.5447 41.4457C44.529 41.4364 44.5137 41.4263 44.4979 41.4168C44.4514 41.3884 44.4051 41.3599 44.3591 41.33C44.3476 41.3226 44.3364 41.3148 44.3251 41.3073C42.8517 40.333 41.6374 38.5648 41.4453 36.9578ZM44.1614 44.9603C44.5977 44.7983 44.8861 44.3936 44.8861 43.9318L44.8862 43.1499C45.0597 43.2121 45.2347 43.2653 45.4106 43.3088C46.2847 43.5243 46.8735 43.6318 47.4633 43.6318C48.0463 43.6318 48.6303 43.5267 49.4916 43.3173L49.566 43.2991C49.7487 43.2547 49.9303 43.1994 50.1103 43.1348L50.1104 43.9318C50.1104 44.3937 50.3987 44.7985 50.8352 44.9604L51.9753 45.5202C51.9616 45.5304 51.9482 45.5412 51.9346 45.5513C51.9032 45.5743 51.8714 45.5966 51.8396 45.6191C51.7798 45.6616 51.7195 45.7034 51.6585 45.7439C51.6244 45.7667 51.5902 45.789 51.5558 45.8112C51.4936 45.8511 51.4307 45.8899 51.3673 45.9279C51.335 45.9473 51.3028 45.9671 51.2703 45.986C51.1929 46.0309 51.1143 46.074 51.0353 46.116C51.0167 46.126 50.9984 46.1366 50.9797 46.1463C50.8817 46.1973 50.7825 46.2459 50.6822 46.2925C50.6554 46.3051 50.628 46.3164 50.601 46.3286C50.5269 46.362 50.4524 46.3945 50.3773 46.4254C50.3412 46.4403 50.3047 46.4543 50.2683 46.4687C50.2002 46.4953 50.1318 46.5211 50.063 46.5458C50.025 46.5595 49.9869 46.5729 49.9486 46.5859C49.8771 46.6102 49.8052 46.6331 49.7329 46.6553C49.6983 46.6659 49.6639 46.677 49.6291 46.6871C49.5339 46.7148 49.438 46.7406 49.3415 46.7644C49.3299 46.7673 49.3185 46.7707 49.3068 46.7735C49.1982 46.7999 49.0888 46.8235 48.9787 46.8451C48.9472 46.8513 48.9153 46.8563 48.8836 46.8621C48.8046 46.8766 48.7254 46.8902 48.6456 46.9022C48.6062 46.9081 48.5668 46.9133 48.5273 46.9186C48.4532 46.9285 48.3789 46.9374 48.3043 46.9452C48.2642 46.9494 48.2239 46.9535 48.1836 46.9572C48.1046 46.9641 48.0252 46.9696 47.9456 46.9742C47.911 46.9762 47.8766 46.9788 47.8418 46.9803C47.7276 46.9853 47.6132 46.9884 47.4981 46.9884C47.3831 46.9884 47.2686 46.9853 47.1545 46.9803C47.1198 46.9788 47.0854 46.9762 47.051 46.9742C46.9713 46.9696 46.8918 46.9641 46.8126 46.9572C46.7724 46.9536 46.7322 46.9494 46.6922 46.9453C46.6175 46.9375 46.5431 46.9286 46.4688 46.9187C46.4295 46.9134 46.39 46.9082 46.3508 46.9023C46.271 46.8903 46.1916 46.8767 46.1125 46.8621C46.0808 46.8563 46.049 46.8513 46.0176 46.8451C45.9074 46.8236 45.7979 46.8 45.6893 46.7735C45.678 46.7707 45.6669 46.7674 45.6556 46.7646C45.5588 46.7407 45.4626 46.7148 45.3671 46.687C45.3325 46.677 45.2983 46.6659 45.2639 46.6554C45.1914 46.6331 45.1191 46.6101 45.0473 46.5857C45.0095 46.5729 44.9717 46.5595 44.934 46.546C44.8647 46.5212 44.7959 46.4952 44.7274 46.4684C44.6914 46.4542 44.6554 46.4403 44.6196 46.4256C44.5435 46.3944 44.4683 46.3615 44.3934 46.3278C44.3673 46.316 44.3408 46.305 44.3148 46.2928C44.2142 46.2461 44.1147 46.1973 44.0163 46.1461C43.9987 46.137 43.9816 46.127 43.9641 46.1178C43.8839 46.0752 43.8043 46.0313 43.7257 45.9858C43.6937 45.9672 43.6623 45.9479 43.6306 45.9289C43.5665 45.8905 43.5027 45.8512 43.4397 45.8107C43.406 45.7891 43.3726 45.7672 43.3393 45.745C43.2774 45.7038 43.2162 45.6614 43.1554 45.6183C43.1245 45.5963 43.0934 45.5746 43.0629 45.5522C43.0489 45.5419 43.0353 45.5309 43.0215 45.5206L44.1614 44.9603ZM29.9303 60.6083C29.7881 60.6083 29.6561 60.5523 29.5585 60.4507C29.4605 60.3485 29.4115 60.2151 29.4207 60.075C29.4209 60.0705 29.4212 60.0659 29.4214 60.0613L29.7667 52.341C29.8428 51.1948 30.33 50.1439 31.1045 49.3473C31.112 49.3404 31.1198 49.334 31.1269 49.3267C31.5825 48.8637 32.1352 48.4925 32.7387 48.2412C32.7513 48.2359 32.764 48.2308 32.7767 48.2257C32.857 48.193 32.9379 48.162 33.0198 48.1336L34.0931 47.7627V60.6083H29.9303ZM34.5332 46.1346L32.5458 46.8216C32.4711 46.8473 32.3973 46.8744 32.3243 46.9026C32.301 46.9116 32.2784 46.9216 32.2553 46.9307C32.2373 46.938 32.2193 46.9453 32.2013 46.9528C32.17 46.9657 32.1382 46.9779 32.1072 46.9913C32.0729 47.006 32.0394 47.0219 32.0054 47.0372C31.9685 47.0538 31.9312 47.0699 31.8948 47.0872C31.8604 47.1035 31.8267 47.1209 31.7927 47.1377C31.7575 47.1552 31.7217 47.1721 31.6869 47.1902C31.6548 47.2068 31.6235 47.2246 31.5918 47.2417C31.5558 47.2612 31.5195 47.2801 31.4839 47.3001C31.4527 47.3178 31.4222 47.3366 31.3913 47.3548C31.3687 47.368 31.346 47.3811 31.3237 47.3946L31.3135 40.2843L36.4015 40.2774L36.4089 45.4832L34.5676 46.1196C34.5556 46.1237 34.5448 46.1298 34.5332 46.1346ZM35.5162 60.6083V47.2708L40.2232 45.6439L40.7678 48.2581C40.9716 49.2359 41.5838 50.1015 42.4473 50.6329L46.7867 53.3033V60.6083H35.5162ZM43.2053 49.455C42.6689 49.125 42.2888 48.5874 42.1623 47.9803L41.826 46.3661C41.8526 46.388 41.8782 46.4113 41.905 46.4327C43.4741 47.694 45.4298 48.38 47.4984 48.38C48.0716 48.38 48.6357 48.3262 49.1857 48.2232C50.6547 47.9483 52.0194 47.3139 53.1707 46.3661L52.8344 47.9803C52.708 48.5874 52.3279 49.1249 51.7916 49.4549L47.4984 52.0968L43.2053 49.455ZM59.4805 60.6083H48.2099V53.3034L52.5493 50.633C53.4131 50.1015 54.0252 49.2359 54.2287 48.2582L54.7734 45.6439L59.4805 47.2708V60.6083Z" fill="#0D113B"/>
</g>
<defs>
<filter id="filter0_d" x="13" y="22" width="58" height="48" filterUnits="userSpaceOnUse" color-interpolation-filters="sRGB">
<feFlood flood-opacity="0" result="BackgroundImageFix"/>
<feColorMatrix in="SourceAlpha" type="matrix" values="0 0 0 0 0 0 0 0 0 0 0 0 0 0 0 0 0 0 127 0" result="hardAlpha"/>
<feOffset dy="4"/>
<feGaussianBlur stdDeviation="2"/>
<feComposite in2="hardAlpha" operator="out"/>
<feColorMatrix type="matrix" values="0 0 0 0 0 0 0 0 0 0 0 0 0 0 0 0 0 0 0.25 0"/>
<feBlend mode="normal" in2="BackgroundImageFix" result="effect1_dropShadow"/>
<feBlend mode="normal" in="SourceGraphic" in2="effect1_dropShadow" result="shape"/>
</filter>
</defs>
</svg>
