<?xml version="1.0" encoding="UTF-8"?>
<!DOCTYPE svg PUBLIC "-//W3C//DTD SVG 1.1//EN" "http://www.w3.org/Graphics/SVG/1.1/DTD/svg11.dtd">
<!-- Creator: CorelDRAW 2020 (64-Bit) -->
<svg xmlns="http://www.w3.org/2000/svg" xml:space="preserve" width="0.150063in" height="0.150063in" version="1.1" style="shape-rendering:geometricPrecision; text-rendering:geometricPrecision; image-rendering:optimizeQuality; fill-rule:evenodd; clip-rule:evenodd"
viewBox="0 0 2.28 2.28"
 xmlns:xlink="http://www.w3.org/1999/xlink"
 xmlns:xodm="http://www.corel.com/coreldraw/odm/2003">
 <defs>
  <style type="text/css">
   <![CDATA[
    .fil0 {fill:url(#id0);fill-rule:nonzero}
   ]]>
  </style>
  <radialGradient id="id0" gradientUnits="userSpaceOnUse" gradientTransform="matrix(2.30955 -0.000155853 0.000155853 2.30954 -2 -1)" cx="1.25" cy="1.12" r="64.57" fx="1.25" fy="1.12">
   <stop offset="0" style="stop-opacity:1; stop-color:#FBE2A2"/>
   <stop offset="0.941176" style="stop-opacity:1; stop-color:#FDF1D1"/>
   <stop offset="1" style="stop-opacity:1; stop-color:white"/>
  </radialGradient>
 </defs>
 <g id="Layer_x0020_1">
  <metadata id="CorelCorpID_0Corel-Layer"/>
  <path class="fil0" d="M1.14 0c0.63,0 1.14,0.51 1.14,1.14 0,0.63 -0.51,1.14 -1.14,1.14 -0.63,0 -1.14,-0.51 -1.14,-1.14 0,-0.63 0.51,-1.14 1.14,-1.14zm-0.35 1.22c0.01,0.01 0.01,0.01 0.02,0.01l0.43 0.43c0.02,0.02 0.05,0.03 0.08,0.03 0.03,0 0.05,-0.01 0.08,-0.03 0.04,-0.04 0.04,-0.11 0,-0.15l-0.37 -0.37 0.37 -0.37c0.04,-0.04 0.04,-0.11 0,-0.15 -0.04,-0.04 -0.11,-0.04 -0.15,-0l-0.43 0.43c-0.01,0 -0.01,0.01 -0.02,0.01 -0.02,0.02 -0.03,0.05 -0.03,0.08 -0,0.03 0.01,0.06 0.03,0.08z"/>
 </g>
</svg>
