<?xml version="1.0" encoding="UTF-8"?>
<!DOCTYPE svg PUBLIC "-//W3C//DTD SVG 1.1//EN" "http://www.w3.org/Graphics/SVG/1.1/DTD/svg11.dtd">
<!-- Creator: CorelDRAW 2020 (64-Bit) -->
<svg xmlns="http://www.w3.org/2000/svg" xml:space="preserve" width="0.837035in" height="0.837035in" version="1.1" style="shape-rendering:geometricPrecision; text-rendering:geometricPrecision; image-rendering:optimizeQuality; fill-rule:evenodd; clip-rule:evenodd"
viewBox="0 0 50.74 50.74"
 xmlns:xlink="http://www.w3.org/1999/xlink"
 xmlns:xodm="http://www.corel.com/coreldraw/odm/2003">
 <defs>
  <style type="text/css">
   <![CDATA[
    .fil0 {fill:white;fill-rule:nonzero;fill-opacity:0.168627}
   ]]>
  </style>
 </defs>
 <g id="Layer_x0020_1">
  <metadata id="CorelCorpID_0Corel-Layer"/>
  <path class="fil0" d="M25.37 0c-14.01,0 -25.37,11.36 -25.37,25.37 0,14.01 11.36,25.37 25.37,25.37 14.01,0 25.37,-11.36 25.37,-25.37 0,-14.01 -11.36,-25.37 -25.37,-25.37zm7.73 27.09c-0.12,0.12 -0.26,0.23 -0.4,0.32l-9.52 9.52c-0.46,0.46 -1.07,0.69 -1.67,0.69 -0.61,0 -1.21,-0.23 -1.67,-0.69 -0.93,-0.93 -0.93,-2.43 0,-3.35l8.2 -8.21 -8.16 -8.16c-0.93,-0.93 -0.93,-2.43 0,-3.35 0.93,-0.93 2.43,-0.92 3.35,-0l9.48 9.48c0.14,0.09 0.28,0.2 0.4,0.32 0.47,0.47 0.7,1.1 0.69,1.72 0.01,0.62 -0.22,1.24 -0.69,1.72z"/>
 </g>
</svg>
