<?xml version="1.0" encoding="UTF-8"?>
<!DOCTYPE svg PUBLIC "-//W3C//DTD SVG 1.1//EN" "http://www.w3.org/Graphics/SVG/1.1/DTD/svg11.dtd">
<!-- Creator: CorelDRAW 2020 (64-Bit) -->
<svg xmlns="http://www.w3.org/2000/svg" xml:space="preserve" width="0.150063in" height="0.150063in" version="1.1" style="shape-rendering:geometricPrecision; text-rendering:geometricPrecision; image-rendering:optimizeQuality; fill-rule:evenodd; clip-rule:evenodd"
viewBox="0 0 2.19 2.19"
 xmlns:xlink="http://www.w3.org/1999/xlink"
 xmlns:xodm="http://www.corel.com/coreldraw/odm/2003">
 <defs>
  <style type="text/css">
   <![CDATA[
    .fil0 {fill:url(#id0);fill-rule:nonzero}
   ]]>
  </style>
  <radialGradient id="id0" gradientUnits="userSpaceOnUse" gradientTransform="matrix(-2.30955 -0.000155853 -0.000155853 2.30954 4 -1)" cx="1.21" cy="1.08" r="62.15" fx="1.21" fy="1.08">
   <stop offset="0" style="stop-opacity:1; stop-color:#FBE2A2"/>
   <stop offset="0.941176" style="stop-opacity:1; stop-color:#FDF1D1"/>
   <stop offset="1" style="stop-opacity:1; stop-color:white"/>
  </radialGradient>
 </defs>
 <g id="Layer_x0020_1">
  <metadata id="CorelCorpID_0Corel-Layer"/>
  <path class="fil0" d="M1.1 0c-0.61,0 -1.1,0.49 -1.1,1.1 0,0.61 0.49,1.1 1.1,1.1 0.61,0 1.1,-0.49 1.1,-1.1 0,-0.61 -0.49,-1.1 -1.1,-1.1zm0.33 1.17c-0.01,0.01 -0.01,0.01 -0.02,0.01l-0.41 0.41c-0.02,0.02 -0.05,0.03 -0.07,0.03 -0.03,0 -0.05,-0.01 -0.07,-0.03 -0.04,-0.04 -0.04,-0.1 0,-0.14l0.35 -0.35 -0.35 -0.35c-0.04,-0.04 -0.04,-0.1 0,-0.14 0.04,-0.04 0.1,-0.04 0.14,-0l0.41 0.41c0.01,0 0.01,0.01 0.02,0.01 0.02,0.02 0.03,0.05 0.03,0.07 0,0.03 -0.01,0.05 -0.03,0.07z"/>
 </g>
</svg>
